{"glyphs":{"0":{"ha":826,"x_min":76,"x_max":750,"o":"m 413 -14 q 228 51 303 -14 q 115 230 153 117 q 76 486 76 343 q 114 743 76 631 q 227 921 151 856 q 413 986 303 986 q 598 922 522 986 q 712 744 674 857 q 750 486 750 631 q 712 230 750 343 q 598 51 674 117 q 413 -14 522 -14 m 413 72 q 597 184 532 72 q 661 486 661 296 q 597 790 661 678 q 413 901 532 901 q 230 790 294 901 q 165 486 165 678 q 230 184 165 296 q 413 72 294 72 z "},"1":{"ha":463,"x_min":7,"x_max":333,"o":"m 297 972 q 323 959 313 971 q 333 931 333 947 l 333 42 q 320 12 333 24 q 288 0 307 0 q 257 12 269 0 q 244 42 244 24 l 244 854 l 71 751 q 51 746 61 746 q 20 760 33 746 q 7 790 7 774 q 13 810 7 800 q 29 825 19 819 l 264 967 q 297 972 278 975 z "},"2":{"ha":788,"x_min":108,"x_max":725,"o":"m 685 81 q 713 69 701 81 q 725 40 725 57 q 713 11 725 22 q 685 0 701 0 l 164 0 q 132 11 144 0 q 119 42 119 22 q 131 71 119 57 l 451 425 q 567 574 529 508 q 604 704 604 640 q 547 853 604 799 q 389 907 490 907 q 267 874 321 907 q 188 775 214 842 q 151 750 172 750 q 122 761 136 750 q 108 786 108 772 q 114 806 108 794 q 128 828 119 817 q 236 944 164 903 q 394 986 308 986 q 614 910 535 986 q 693 710 693 833 q 651 553 693 633 q 514 368 610 474 l 258 81 l 685 81 z "},"3":{"ha":722,"x_min":63,"x_max":647,"o":"m 353 615 q 498 579 431 615 q 606 474 565 543 q 647 310 647 404 q 602 142 647 215 q 479 27 557 68 q 307 -14 401 -14 q 192 6 247 -14 q 97 64 136 25 q 78 97 78 78 q 90 128 78 114 q 119 143 103 143 q 154 128 136 143 q 315 65 213 65 q 439 96 382 65 q 529 182 496 126 q 563 307 563 238 q 528 435 563 383 q 440 510 494 486 q 324 535 385 535 q 281 530 307 535 q 247 525 254 525 q 220 537 231 525 q 210 567 210 549 q 224 599 210 585 l 489 893 l 103 893 q 74 904 86 893 q 63 933 63 915 q 74 961 63 950 q 103 972 86 972 l 569 972 q 602 959 592 972 q 613 929 613 946 q 599 899 613 913 l 344 615 l 353 615 z "},"4":{"ha":772,"x_min":47,"x_max":714,"o":"m 674 378 q 702 367 690 378 q 714 339 714 356 q 702 311 714 322 q 674 300 690 300 l 581 300 l 581 42 q 568 12 581 24 q 538 0 556 0 q 508 12 519 0 q 497 42 497 24 l 497 300 l 89 300 q 60 313 72 300 q 47 343 47 326 q 57 371 47 360 l 504 956 q 539 972 515 972 q 569 960 557 972 q 581 931 581 949 l 581 378 l 674 378 m 161 378 l 497 378 l 497 822 l 161 378 z "},"5":{"ha":763,"x_min":76,"x_max":665,"o":"m 351 646 q 512 606 440 646 q 624 495 583 567 q 665 335 665 424 q 620 160 665 238 q 494 40 575 83 q 311 -3 414 -3 q 195 17 253 -3 q 94 72 138 36 q 81 88 86 78 q 76 108 76 99 q 88 135 76 122 q 117 149 100 149 q 147 136 132 149 q 226 93 183 108 q 311 78 268 78 q 452 110 390 78 q 548 200 514 142 q 582 332 582 258 q 514 502 582 438 q 332 567 446 567 q 252 554 289 567 q 169 521 215 542 q 126 504 136 504 q 92 517 106 504 q 79 549 79 531 q 81 560 79 556 l 140 938 q 155 962 143 951 q 183 972 167 972 l 601 972 q 630 960 618 972 q 642 931 642 949 q 630 902 642 914 q 601 890 618 890 l 213 890 l 165 603 q 251 633 201 621 q 351 646 300 646 z "},"6":{"ha":746,"x_min":76,"x_max":700,"o":"m 413 615 q 560 571 494 615 q 663 453 626 526 q 700 297 700 379 q 660 144 700 215 q 551 29 621 72 q 396 -14 482 -14 q 219 35 292 -14 q 112 163 147 83 q 76 333 76 242 q 126 587 76 451 q 272 835 176 722 q 500 999 368 949 q 518 1001 511 1001 q 549 990 536 1001 q 561 958 561 979 q 528 918 561 929 q 319 756 417 872 q 185 510 221 640 q 285 587 226 558 q 413 615 344 615 m 393 67 q 553 131 490 67 q 615 297 615 196 q 590 414 615 360 q 515 501 564 468 q 400 535 467 535 q 274 502 328 535 q 190 415 219 469 q 161 293 161 360 q 189 181 161 232 q 269 98 217 129 q 393 67 322 67 z "},"7":{"ha":719,"x_min":83,"x_max":675,"o":"m 635 972 q 665 961 654 972 q 675 933 675 950 q 671 914 675 926 l 289 24 q 272 3 283 11 q 249 -4 261 -4 q 219 7 232 -4 q 206 35 206 18 q 210 56 206 46 l 569 893 l 124 893 q 95 904 107 893 q 83 933 83 915 q 95 961 83 950 q 124 972 107 972 l 635 972 z "},"8":{"ha":785,"x_min":94,"x_max":690,"o":"m 533 494 q 647 399 603 461 q 690 260 690 338 q 651 124 690 186 q 542 25 611 61 q 392 -11 474 -11 q 242 25 310 -11 q 134 124 174 61 q 94 260 94 186 q 138 400 94 340 q 247 493 181 460 q 154 580 192 522 q 117 708 117 638 q 153 842 117 782 q 253 938 190 903 q 392 972 317 972 q 530 938 467 972 q 629 842 593 903 q 665 708 665 782 q 627 581 665 636 q 533 494 589 525 m 392 893 q 254 842 307 893 q 201 708 201 790 q 228 612 201 654 q 298 546 254 569 q 392 522 342 522 q 485 546 442 522 q 555 612 529 569 q 581 708 581 654 q 528 842 581 790 q 392 893 475 893 m 392 69 q 546 123 486 69 q 606 260 606 176 q 576 358 606 314 q 498 428 547 403 q 392 454 449 454 q 286 428 335 454 q 208 358 238 403 q 179 260 179 314 q 238 123 179 176 q 392 69 297 69 z "},"9":{"ha":768,"x_min":76,"x_max":700,"o":"m 382 988 q 557 939 485 988 q 665 811 629 890 q 700 640 700 732 q 651 392 700 524 q 505 150 601 260 q 276 -10 408 40 q 260 -12 265 -12 q 228 0 242 -12 q 215 31 215 13 q 249 71 215 60 q 459 227 363 119 q 590 461 556 335 q 491 388 550 415 q 364 361 432 361 q 217 405 282 361 q 114 522 151 449 q 76 676 76 594 q 116 830 76 758 q 226 944 156 901 q 382 988 296 988 m 378 442 q 504 474 450 442 q 587 560 558 506 q 615 681 615 615 q 588 793 615 742 q 507 876 560 844 q 383 907 454 907 q 269 878 319 907 q 191 796 219 849 q 163 676 163 743 q 188 560 163 614 q 261 474 213 507 q 378 442 310 442 z "},"\u0000":{"ha":0,"x_min":0,"x_max":0,"o":""},"\r":{"ha":379,"x_min":0,"x_max":0,"o":""}," ":{"ha":379,"x_min":0,"x_max":0,"o":""},"A":{"ha":899,"x_min":40,"x_max":858,"o":"m 856 56 q 858 39 858 44 q 846 10 858 21 q 817 -1 833 -1 q 792 6 803 -1 q 776 26 782 14 l 672 281 l 221 281 l 118 26 q 81 -1 107 -1 q 51 8 61 -1 q 40 35 42 18 l 40 39 q 42 51 40 47 l 408 949 q 450 976 419 976 q 474 969 464 976 q 490 949 485 961 l 856 56 m 253 363 l 639 363 l 444 838 l 253 363 z "},"Á":{"ha":899,"x_min":40,"x_max":858,"o":"m 856 56 q 858 39 858 44 q 846 10 858 21 q 817 -1 833 -1 q 792 6 803 -1 q 776 26 782 14 l 672 281 l 221 281 l 118 26 q 81 -1 107 -1 q 51 8 61 -1 q 40 35 42 18 l 40 39 q 42 51 40 47 l 408 949 q 450 976 419 976 q 474 969 464 976 q 490 949 485 961 l 856 56 m 253 363 l 639 363 l 444 838 l 253 363 m 454 1036 q 435 1043 442 1036 q 428 1061 428 1050 q 442 1086 428 1072 l 565 1182 q 606 1197 583 1197 q 635 1185 624 1197 q 647 1156 647 1174 q 621 1113 647 1128 l 485 1044 q 454 1036 465 1036 z "},"Ă":{"ha":899,"x_min":40,"x_max":858,"o":"m 856 56 q 858 39 858 44 q 846 10 858 21 q 817 -1 833 -1 q 792 6 803 -1 q 776 26 782 14 l 672 281 l 221 281 l 118 26 q 81 -1 107 -1 q 51 8 61 -1 q 40 35 42 18 l 40 39 q 42 51 40 47 l 408 949 q 450 976 419 976 q 474 969 464 976 q 490 949 485 961 l 856 56 m 253 363 l 639 363 l 444 838 l 253 363 m 450 1075 q 328 1112 378 1075 q 260 1215 279 1149 q 257 1231 257 1226 q 265 1250 257 1243 q 286 1257 272 1257 q 309 1251 301 1257 q 328 1226 317 1244 q 450 1146 364 1146 q 572 1226 538 1146 q 589 1249 579 1242 q 614 1256 599 1256 q 643 1232 643 1256 q 640 1215 643 1226 q 572 1112 621 1149 q 450 1075 522 1075 z "},"Ắ":{"ha":899,"x_min":40,"x_max":858,"o":"m 856 56 q 858 39 858 44 q 846 10 858 21 q 817 -1 833 -1 q 792 6 803 -1 q 776 26 782 14 l 672 281 l 221 281 l 118 26 q 81 -1 107 -1 q 51 8 61 -1 q 40 35 42 18 l 40 39 q 42 51 40 47 l 408 949 q 450 976 419 976 q 474 969 464 976 q 490 949 485 961 l 856 56 m 253 363 l 639 363 l 444 838 l 253 363 m 450 1075 q 328 1112 378 1075 q 260 1215 279 1149 q 257 1231 257 1226 q 265 1250 257 1243 q 286 1257 272 1257 q 309 1251 301 1257 q 328 1226 317 1244 q 450 1146 364 1146 q 572 1226 538 1146 q 589 1249 579 1242 q 614 1256 599 1256 q 643 1232 643 1256 q 640 1215 643 1226 q 572 1112 621 1149 q 450 1075 522 1075 m 454 1313 q 435 1319 442 1313 q 428 1338 428 1326 q 442 1363 428 1349 l 565 1458 q 606 1474 583 1474 q 635 1462 624 1474 q 647 1432 647 1450 q 621 1389 647 1404 l 485 1321 q 454 1313 465 1313 z "},"Ặ":{"ha":899,"x_min":40,"x_max":858,"o":"m 856 56 q 858 39 858 44 q 846 10 858 21 q 817 -1 833 -1 q 792 6 803 -1 q 776 26 782 14 l 672 281 l 221 281 l 118 26 q 81 -1 107 -1 q 51 8 61 -1 q 40 35 42 18 l 40 39 q 42 51 40 47 l 408 949 q 450 976 419 976 q 474 969 464 976 q 490 949 485 961 l 856 56 m 253 363 l 639 363 l 444 838 l 253 363 m 450 -194 q 407 -180 422 -194 q 392 -139 392 -165 l 392 -124 q 408 -84 392 -99 q 450 -69 424 -69 q 507 -124 507 -69 l 507 -139 q 492 -180 507 -165 q 450 -194 478 -194 m 450 1075 q 328 1112 378 1075 q 260 1215 279 1149 q 257 1231 257 1226 q 265 1250 257 1243 q 286 1257 272 1257 q 309 1251 301 1257 q 328 1226 317 1244 q 450 1146 364 1146 q 572 1226 538 1146 q 589 1249 579 1242 q 614 1256 599 1256 q 643 1232 643 1256 q 640 1215 643 1226 q 572 1112 621 1149 q 450 1075 522 1075 z "},"Ằ":{"ha":899,"x_min":40,"x_max":858,"o":"m 856 56 q 858 39 858 44 q 846 10 858 21 q 817 -1 833 -1 q 792 6 803 -1 q 776 26 782 14 l 672 281 l 221 281 l 118 26 q 81 -1 107 -1 q 51 8 61 -1 q 40 35 42 18 l 40 39 q 42 51 40 47 l 408 949 q 450 976 419 976 q 474 969 464 976 q 490 949 485 961 l 856 56 m 253 363 l 639 363 l 444 838 l 253 363 m 450 1075 q 328 1112 378 1075 q 260 1215 279 1149 q 257 1231 257 1226 q 265 1250 257 1243 q 286 1257 272 1257 q 309 1251 301 1257 q 328 1226 317 1244 q 450 1146 364 1146 q 572 1226 538 1146 q 589 1249 579 1242 q 614 1256 599 1256 q 643 1232 643 1256 q 640 1215 643 1226 q 572 1112 621 1149 q 450 1075 522 1075 m 450 1314 q 419 1322 439 1314 l 285 1390 q 257 1433 257 1406 q 269 1463 257 1451 q 299 1475 281 1475 q 339 1460 321 1475 l 463 1364 q 476 1339 476 1350 q 469 1321 476 1328 q 450 1314 463 1314 z "},"Ẳ":{"ha":899,"x_min":40,"x_max":858,"o":"m 856 56 q 858 39 858 44 q 846 10 858 21 q 817 -1 833 -1 q 792 6 803 -1 q 776 26 782 14 l 672 281 l 221 281 l 118 26 q 81 -1 107 -1 q 51 8 61 -1 q 40 35 42 18 l 40 39 q 42 51 40 47 l 408 949 q 450 976 419 976 q 474 969 464 976 q 490 949 485 961 l 856 56 m 253 363 l 639 363 l 444 838 l 253 363 m 450 1075 q 328 1112 378 1075 q 260 1215 279 1149 q 257 1231 257 1226 q 265 1250 257 1243 q 286 1257 272 1257 q 309 1251 301 1257 q 328 1226 317 1244 q 450 1146 364 1146 q 572 1226 538 1146 q 589 1249 579 1242 q 614 1256 599 1256 q 643 1232 643 1256 q 640 1215 643 1226 q 572 1112 621 1149 q 450 1075 522 1075 m 343 1531 q 446 1574 389 1574 q 533 1542 506 1574 q 560 1471 560 1510 q 548 1430 560 1449 q 513 1388 536 1411 q 496 1350 496 1368 q 486 1333 494 1339 q 464 1328 478 1328 q 445 1335 453 1328 q 438 1351 438 1342 q 457 1407 438 1385 q 489 1443 481 1432 q 497 1469 497 1454 q 483 1499 497 1488 q 447 1511 468 1511 q 383 1486 417 1511 q 360 1475 372 1475 q 338 1486 349 1475 q 331 1506 331 1496 q 343 1531 331 1518 z "},"Ẵ":{"ha":899,"x_min":40,"x_max":858,"o":"m 856 56 q 858 39 858 44 q 846 10 858 21 q 817 -1 833 -1 q 792 6 803 -1 q 776 26 782 14 l 672 281 l 221 281 l 118 26 q 81 -1 107 -1 q 51 8 61 -1 q 40 35 42 18 l 40 39 q 42 51 40 47 l 408 949 q 450 976 419 976 q 474 969 464 976 q 490 949 485 961 l 856 56 m 253 363 l 639 363 l 444 838 l 253 363 m 450 1075 q 328 1112 378 1075 q 260 1215 279 1149 q 257 1231 257 1226 q 265 1250 257 1243 q 286 1257 272 1257 q 309 1251 301 1257 q 328 1226 317 1244 q 450 1146 364 1146 q 572 1226 538 1146 q 589 1249 579 1242 q 614 1256 599 1256 q 643 1232 643 1256 q 640 1215 643 1226 q 572 1112 621 1149 q 450 1075 522 1075 m 271 1347 q 247 1358 256 1347 q 238 1392 238 1369 q 239 1408 238 1403 q 282 1476 249 1451 q 360 1501 315 1501 q 412 1490 385 1501 q 474 1456 439 1478 q 522 1429 504 1438 q 553 1421 539 1421 q 584 1435 572 1421 q 599 1475 596 1450 q 606 1501 597 1490 q 629 1511 614 1511 q 655 1499 646 1511 q 664 1467 664 1488 l 663 1451 q 624 1379 654 1406 q 550 1353 594 1353 q 439 1397 511 1353 q 389 1424 407 1415 q 356 1432 371 1432 q 322 1419 336 1432 q 301 1378 307 1406 q 292 1355 301 1363 q 271 1347 283 1347 z "},"Ǎ":{"ha":899,"x_min":40,"x_max":858,"o":"m 856 56 q 858 39 858 44 q 846 10 858 21 q 817 -1 833 -1 q 792 6 803 -1 q 776 26 782 14 l 672 281 l 221 281 l 118 26 q 81 -1 107 -1 q 51 8 61 -1 q 40 35 42 18 l 40 39 q 42 51 40 47 l 408 949 q 450 976 419 976 q 474 969 464 976 q 490 949 485 961 l 856 56 m 253 363 l 639 363 l 444 838 l 253 363 m 597 1229 q 614 1223 607 1229 q 621 1208 621 1217 q 610 1185 621 1197 l 503 1071 q 457 1047 488 1047 l 442 1047 q 394 1071 413 1047 l 289 1183 q 278 1207 278 1196 q 284 1222 278 1215 q 300 1228 290 1228 q 338 1211 317 1228 l 453 1125 l 560 1211 q 597 1229 582 1229 z "},"Â":{"ha":899,"x_min":40,"x_max":858,"o":"m 856 56 q 858 39 858 44 q 846 10 858 21 q 817 -1 833 -1 q 792 6 803 -1 q 776 26 782 14 l 672 281 l 221 281 l 118 26 q 81 -1 107 -1 q 51 8 61 -1 q 40 35 42 18 l 40 39 q 42 51 40 47 l 408 949 q 450 976 419 976 q 474 969 464 976 q 490 949 485 961 l 856 56 m 253 363 l 639 363 l 444 838 l 253 363 m 608 1103 q 619 1079 619 1090 q 613 1065 619 1072 q 597 1058 606 1058 q 560 1076 582 1058 l 444 1160 l 338 1075 q 300 1057 313 1057 q 283 1063 290 1057 q 276 1078 276 1069 q 288 1101 276 1089 l 394 1215 q 415 1233 406 1228 q 440 1239 425 1239 l 456 1239 q 481 1233 471 1239 q 503 1215 490 1228 l 608 1103 z "},"Ấ":{"ha":899,"x_min":40,"x_max":858,"o":"m 856 56 q 858 39 858 44 q 846 10 858 21 q 817 -1 833 -1 q 792 6 803 -1 q 776 26 782 14 l 672 281 l 221 281 l 118 26 q 81 -1 107 -1 q 51 8 61 -1 q 40 35 42 18 l 40 39 q 42 51 40 47 l 408 949 q 450 976 419 976 q 474 969 464 976 q 490 949 485 961 l 856 56 m 253 363 l 639 363 l 444 838 l 253 363 m 608 1103 q 619 1079 619 1090 q 613 1065 619 1072 q 597 1058 606 1058 q 560 1076 582 1058 l 444 1160 l 338 1075 q 300 1057 313 1057 q 283 1063 290 1057 q 276 1078 276 1069 q 288 1101 276 1089 l 394 1215 q 415 1233 406 1228 q 440 1239 425 1239 l 456 1239 q 481 1233 471 1239 q 503 1215 490 1228 l 608 1103 m 633 1149 q 614 1156 621 1149 q 607 1174 607 1163 q 621 1199 607 1185 l 744 1294 q 785 1310 763 1310 q 815 1298 803 1310 q 826 1268 826 1286 q 800 1225 826 1240 l 664 1157 q 633 1149 644 1149 z "},"Ậ":{"ha":899,"x_min":40,"x_max":858,"o":"m 856 56 q 858 39 858 44 q 846 10 858 21 q 817 -1 833 -1 q 792 6 803 -1 q 776 26 782 14 l 672 281 l 221 281 l 118 26 q 81 -1 107 -1 q 51 8 61 -1 q 40 35 42 18 l 40 39 q 42 51 40 47 l 408 949 q 450 976 419 976 q 474 969 464 976 q 490 949 485 961 l 856 56 m 253 363 l 639 363 l 444 838 l 253 363 m 450 -194 q 407 -180 422 -194 q 392 -139 392 -165 l 392 -124 q 408 -84 392 -99 q 450 -69 424 -69 q 507 -124 507 -69 l 507 -139 q 492 -180 507 -165 q 450 -194 478 -194 m 608 1103 q 619 1079 619 1090 q 613 1065 619 1072 q 597 1058 606 1058 q 560 1076 582 1058 l 444 1160 l 338 1075 q 300 1057 313 1057 q 283 1063 290 1057 q 276 1078 276 1069 q 288 1101 276 1089 l 394 1215 q 415 1233 406 1228 q 440 1239 425 1239 l 456 1239 q 481 1233 471 1239 q 503 1215 490 1228 l 608 1103 z "},"Ầ":{"ha":899,"x_min":40,"x_max":858,"o":"m 856 56 q 858 39 858 44 q 846 10 858 21 q 817 -1 833 -1 q 792 6 803 -1 q 776 26 782 14 l 672 281 l 221 281 l 118 26 q 81 -1 107 -1 q 51 8 61 -1 q 40 35 42 18 l 40 39 q 42 51 40 47 l 408 949 q 450 976 419 976 q 474 969 464 976 q 490 949 485 961 l 856 56 m 253 363 l 639 363 l 444 838 l 253 363 m 608 1103 q 619 1079 619 1090 q 613 1065 619 1072 q 597 1058 606 1058 q 560 1076 582 1058 l 444 1160 l 338 1075 q 300 1057 313 1057 q 283 1063 290 1057 q 276 1078 276 1069 q 288 1101 276 1089 l 394 1215 q 415 1233 406 1228 q 440 1239 425 1239 l 456 1239 q 481 1233 471 1239 q 503 1215 490 1228 l 608 1103 m 618 1214 q 588 1222 607 1214 l 453 1290 q 425 1333 425 1306 q 437 1363 425 1351 q 467 1375 449 1375 q 507 1360 489 1375 l 631 1264 q 644 1239 644 1250 q 638 1221 644 1228 q 618 1214 631 1214 z "},"Ẩ":{"ha":899,"x_min":40,"x_max":858,"o":"m 856 56 q 858 39 858 44 q 846 10 858 21 q 817 -1 833 -1 q 792 6 803 -1 q 776 26 782 14 l 672 281 l 221 281 l 118 26 q 81 -1 107 -1 q 51 8 61 -1 q 40 35 42 18 l 40 39 q 42 51 40 47 l 408 949 q 450 976 419 976 q 474 969 464 976 q 490 949 485 961 l 856 56 m 253 363 l 639 363 l 444 838 l 253 363 m 608 1103 q 619 1079 619 1090 q 613 1065 619 1072 q 597 1058 606 1058 q 560 1076 582 1058 l 444 1160 l 338 1075 q 300 1057 313 1057 q 283 1063 290 1057 q 276 1078 276 1069 q 288 1101 276 1089 l 394 1215 q 415 1233 406 1228 q 440 1239 425 1239 l 456 1239 q 481 1233 471 1239 q 503 1215 490 1228 l 608 1103 m 557 1321 q 660 1364 603 1364 q 747 1332 719 1364 q 774 1261 774 1300 q 762 1220 774 1239 q 726 1178 750 1201 q 710 1140 710 1158 q 700 1124 708 1129 q 678 1118 692 1118 q 659 1125 667 1118 q 651 1142 651 1132 q 671 1197 651 1175 q 703 1233 694 1222 q 711 1260 711 1244 q 697 1290 711 1278 q 661 1301 682 1301 q 597 1276 631 1301 q 574 1265 586 1265 q 551 1276 563 1265 q 544 1296 544 1286 q 557 1321 544 1308 z "},"Ẫ":{"ha":899,"x_min":40,"x_max":858,"o":"m 271 1204 q 247 1215 256 1204 q 238 1249 238 1226 q 239 1265 238 1260 q 282 1333 249 1308 q 360 1358 315 1358 q 412 1347 385 1358 q 474 1313 439 1335 q 522 1286 504 1294 q 553 1278 539 1278 q 584 1292 572 1278 q 599 1332 596 1307 q 606 1358 597 1347 q 629 1368 614 1368 q 655 1356 646 1368 q 664 1324 664 1344 l 663 1308 q 624 1236 654 1263 q 550 1210 594 1210 q 493 1225 524 1210 l 503 1215 l 608 1103 q 619 1079 619 1090 q 613 1065 619 1072 q 597 1058 607 1058 q 560 1076 582 1058 l 444 1160 l 338 1075 q 300 1057 313 1057 q 283 1063 290 1057 q 276 1078 276 1069 q 288 1101 276 1089 l 394 1215 q 415 1233 406 1228 q 440 1239 425 1239 l 456 1239 q 467 1238 464 1239 q 430 1259 454 1244 q 388 1281 406 1274 q 356 1289 369 1289 q 322 1276 336 1289 q 301 1235 307 1263 q 292 1212 301 1219 q 271 1204 283 1204 m 856 56 q 858 39 858 44 q 846 10 858 21 q 817 -1 833 -1 q 792 6 803 -1 q 776 26 782 14 l 672 281 l 221 281 l 118 26 q 81 -1 107 -1 q 51 8 61 -1 q 40 35 42 18 l 40 39 q 42 51 40 47 l 408 949 q 450 976 419 976 q 474 969 464 976 q 490 949 485 961 l 856 56 m 253 363 l 639 363 l 444 838 l 253 363 z "},"Ȁ":{"ha":899,"x_min":40,"x_max":858,"o":"m 856 56 q 858 39 858 44 q 846 10 858 21 q 817 -1 833 -1 q 792 6 803 -1 q 776 26 782 14 l 672 281 l 221 281 l 118 26 q 81 -1 107 -1 q 51 8 61 -1 q 40 35 42 18 l 40 39 q 42 51 40 47 l 408 949 q 450 976 419 976 q 474 969 464 976 q 490 949 485 961 l 856 56 m 253 363 l 639 363 l 444 838 l 253 363 m 382 1049 q 363 1053 372 1049 q 351 1058 354 1057 l 217 1125 q 189 1169 189 1140 q 201 1199 189 1186 q 231 1211 213 1211 q 271 1194 251 1211 l 394 1099 q 408 1074 408 1088 q 401 1056 408 1064 q 382 1049 394 1049 m 615 1049 q 585 1057 604 1049 l 449 1125 q 422 1168 422 1140 q 434 1198 422 1186 q 464 1210 446 1210 q 504 1194 486 1210 l 628 1099 q 642 1074 642 1085 q 635 1056 642 1063 q 615 1049 628 1049 z "},"Ä":{"ha":899,"x_min":40,"x_max":858,"o":"m 856 56 q 858 39 858 44 q 846 10 858 21 q 817 -1 833 -1 q 792 6 803 -1 q 776 26 782 14 l 672 281 l 221 281 l 118 26 q 81 -1 107 -1 q 51 8 61 -1 q 40 35 42 18 l 40 39 q 42 51 40 47 l 408 949 q 450 976 419 976 q 474 969 464 976 q 490 949 485 961 l 856 56 m 253 363 l 639 363 l 444 838 l 253 363 m 331 1076 q 289 1091 304 1076 q 274 1132 274 1106 l 274 1146 q 290 1187 274 1172 q 332 1201 306 1201 q 374 1187 358 1201 q 389 1146 389 1172 l 389 1132 q 374 1091 389 1106 q 331 1076 358 1076 m 569 1076 q 528 1091 543 1076 q 513 1132 513 1106 l 513 1146 q 528 1187 513 1172 q 571 1201 543 1201 q 613 1187 597 1201 q 628 1146 628 1172 l 628 1132 q 613 1091 628 1106 q 569 1076 597 1076 z "},"Ạ":{"ha":899,"x_min":40,"x_max":858,"o":"m 856 56 q 858 39 858 44 q 846 10 858 21 q 817 -1 833 -1 q 792 6 803 -1 q 776 26 782 14 l 672 281 l 221 281 l 118 26 q 81 -1 107 -1 q 51 8 61 -1 q 40 35 42 18 l 40 39 q 42 51 40 47 l 408 949 q 450 976 419 976 q 474 969 464 976 q 490 949 485 961 l 856 56 m 253 363 l 639 363 l 444 838 l 253 363 m 450 -194 q 407 -180 422 -194 q 392 -139 392 -165 l 392 -124 q 408 -84 392 -99 q 450 -69 424 -69 q 507 -124 507 -69 l 507 -139 q 492 -180 507 -165 q 450 -194 478 -194 z "},"À":{"ha":899,"x_min":40,"x_max":858,"o":"m 856 56 q 858 39 858 44 q 846 10 858 21 q 817 -1 833 -1 q 792 6 803 -1 q 776 26 782 14 l 672 281 l 221 281 l 118 26 q 81 -1 107 -1 q 51 8 61 -1 q 40 35 42 18 l 40 39 q 42 51 40 47 l 408 949 q 450 976 419 976 q 474 969 464 976 q 490 949 485 961 l 856 56 m 253 363 l 639 363 l 444 838 l 253 363 m 450 1038 q 419 1046 439 1038 l 285 1114 q 257 1157 257 1129 q 269 1187 257 1175 q 299 1199 281 1199 q 339 1183 321 1199 l 463 1088 q 476 1063 476 1074 q 469 1044 476 1051 q 450 1038 463 1038 z "},"Ả":{"ha":899,"x_min":40,"x_max":858,"o":"m 856 56 q 858 39 858 44 q 846 10 858 21 q 817 -1 833 -1 q 792 6 803 -1 q 776 26 782 14 l 672 281 l 221 281 l 118 26 q 81 -1 107 -1 q 51 8 61 -1 q 40 35 42 18 l 40 39 q 42 51 40 47 l 408 949 q 450 976 419 976 q 474 969 464 976 q 490 949 485 961 l 856 56 m 253 363 l 639 363 l 444 838 l 253 363 m 343 1254 q 446 1297 389 1297 q 533 1265 506 1297 q 560 1194 560 1233 q 548 1153 560 1172 q 513 1111 536 1135 q 496 1074 496 1092 q 486 1057 494 1063 q 464 1051 478 1051 q 445 1058 453 1051 q 438 1075 438 1065 q 457 1131 438 1108 q 489 1167 481 1156 q 497 1193 497 1178 q 483 1223 497 1211 q 447 1235 468 1235 q 383 1210 417 1235 q 360 1199 372 1199 q 338 1210 349 1199 q 331 1229 331 1219 q 343 1254 331 1242 z "},"Ȃ":{"ha":899,"x_min":40,"x_max":858,"o":"m 856 56 q 858 39 858 44 q 846 10 858 21 q 817 -1 833 -1 q 792 6 803 -1 q 776 26 782 14 l 672 281 l 221 281 l 118 26 q 81 -1 107 -1 q 51 8 61 -1 q 40 35 42 18 l 40 39 q 42 51 40 47 l 408 949 q 450 976 419 976 q 474 969 464 976 q 490 949 485 961 l 856 56 m 253 363 l 639 363 l 444 838 l 253 363 m 449 1201 q 571 1162 519 1201 q 629 1065 622 1122 q 623 1039 632 1050 q 599 1028 614 1028 q 574 1036 583 1028 q 557 1061 564 1044 q 518 1113 547 1094 q 449 1132 489 1132 q 378 1113 407 1132 q 340 1061 349 1094 q 324 1036 333 1044 q 297 1028 314 1028 q 273 1038 282 1028 q 267 1064 264 1049 q 325 1162 274 1122 q 449 1201 376 1201 z "},"Ā":{"ha":899,"x_min":40,"x_max":858,"o":"m 856 56 q 858 39 858 44 q 846 10 858 21 q 817 -1 833 -1 q 792 6 803 -1 q 776 26 782 14 l 672 281 l 221 281 l 118 26 q 81 -1 107 -1 q 51 8 61 -1 q 40 35 42 18 l 40 39 q 42 51 40 47 l 408 949 q 450 976 419 976 q 474 969 464 976 q 490 949 485 961 l 856 56 m 253 363 l 639 363 l 444 838 l 253 363 m 278 1094 q 238 1129 238 1094 q 278 1165 238 1165 l 632 1165 q 672 1129 672 1165 q 632 1094 672 1094 l 278 1094 z "},"Ą":{"ha":900,"x_min":40,"x_max":896,"o":"m 864 -157 q 887 -165 878 -157 q 896 -187 896 -174 q 860 -242 896 -218 q 781 -265 825 -265 q 687 -228 726 -265 q 647 -132 647 -192 q 683 -29 647 -71 q 772 36 719 13 l 672 281 l 221 281 l 118 26 q 81 -1 107 -1 q 40 33 43 -1 l 40 38 q 43 53 40 42 l 408 949 q 450 976 419 976 q 474 969 464 976 q 490 949 485 961 l 860 46 q 863 31 863 38 q 832 -1 863 7 q 755 -44 788 -11 q 722 -117 722 -78 q 742 -174 722 -153 q 789 -194 763 -194 q 831 -178 818 -194 q 864 -157 843 -157 m 253 363 l 639 363 l 444 838 l 253 363 z "},"Å":{"ha":900,"x_min":40,"x_max":858,"o":"m 856 56 q 858 39 858 44 q 846 10 858 21 q 817 -1 833 -1 q 792 6 803 -1 q 776 26 782 14 l 672 281 l 221 281 l 118 26 q 81 -1 107 -1 q 51 8 61 -1 q 40 35 42 18 l 40 39 q 42 51 40 47 l 400 929 q 334 978 360 944 q 308 1056 308 1013 q 351 1151 308 1111 q 450 1192 393 1192 q 549 1151 507 1192 q 592 1056 592 1111 q 565 978 592 1013 q 499 928 539 943 l 856 56 m 371 1056 q 394 1001 371 1024 q 450 978 418 978 q 507 1001 483 978 q 531 1056 531 1024 q 507 1112 531 1089 q 450 1135 483 1135 q 394 1112 418 1135 q 371 1056 371 1089 m 253 363 l 639 363 l 444 838 l 253 363 z "},"Ǻ":{"ha":900,"x_min":40,"x_max":858,"o":"m 856 56 q 858 39 858 44 q 846 10 858 21 q 817 -1 833 -1 q 792 6 803 -1 q 776 26 782 14 l 672 281 l 221 281 l 118 26 q 81 -1 107 -1 q 51 8 61 -1 q 40 35 42 18 l 40 39 q 42 51 40 47 l 400 929 q 334 978 360 944 q 308 1056 308 1013 q 351 1151 308 1111 q 450 1192 393 1192 q 549 1151 507 1192 q 592 1056 592 1111 q 565 978 592 1013 q 499 928 539 943 l 856 56 m 371 1056 q 394 1001 371 1024 q 450 978 418 978 q 507 1001 483 978 q 531 1056 531 1024 q 507 1112 531 1089 q 450 1135 483 1135 q 394 1112 418 1135 q 371 1056 371 1089 m 253 363 l 639 363 l 444 838 l 253 363 m 454 1254 q 435 1261 442 1254 q 428 1279 428 1268 q 442 1304 428 1290 l 565 1400 q 606 1415 583 1415 q 635 1403 624 1415 q 647 1374 647 1392 q 621 1331 647 1346 l 485 1263 q 454 1254 465 1254 z "},"Ã":{"ha":899,"x_min":40,"x_max":858,"o":"m 856 56 q 858 39 858 44 q 846 10 858 21 q 817 -1 833 -1 q 792 6 803 -1 q 776 26 782 14 l 672 281 l 221 281 l 118 26 q 81 -1 107 -1 q 51 8 61 -1 q 40 35 42 18 l 40 39 q 42 51 40 47 l 408 949 q 450 976 419 976 q 474 969 464 976 q 490 949 485 961 l 856 56 m 253 363 l 639 363 l 444 838 l 253 363 m 271 1071 q 247 1082 256 1071 q 238 1115 238 1093 q 239 1132 238 1126 q 282 1200 249 1175 q 360 1225 315 1225 q 412 1213 385 1225 q 474 1179 439 1201 q 522 1153 504 1161 q 553 1144 539 1144 q 584 1159 572 1144 q 599 1199 596 1174 q 606 1224 597 1214 q 629 1235 614 1235 q 655 1223 646 1235 q 664 1190 664 1211 l 663 1175 q 624 1103 654 1129 q 550 1076 594 1076 q 439 1121 511 1076 q 389 1147 407 1139 q 356 1156 371 1156 q 322 1142 336 1156 q 301 1101 307 1129 q 292 1078 301 1086 q 271 1071 283 1071 z "},"Æ":{"ha":1276,"x_min":11,"x_max":1211,"o":"m 1169 82 q 1199 69 1188 82 q 1211 40 1211 57 q 1199 11 1211 22 q 1169 0 1188 0 l 678 0 q 647 12 660 0 q 635 42 635 24 l 635 235 l 236 235 l 83 15 q 50 -3 71 -3 q 23 9 35 -3 q 11 38 11 21 q 18 64 11 50 l 642 954 q 679 972 656 972 l 1169 972 q 1199 960 1188 972 q 1211 931 1211 949 q 1199 901 1211 913 q 1169 890 1188 890 l 721 890 l 721 539 l 1107 539 q 1137 528 1125 539 q 1149 499 1149 517 q 1137 469 1149 481 q 1107 458 1125 458 l 721 458 l 721 82 l 1169 82 m 635 810 l 292 315 l 635 315 l 635 810 z "},"Ǽ":{"ha":1276,"x_min":11,"x_max":1211,"o":"m 1169 82 q 1199 69 1188 82 q 1211 40 1211 57 q 1199 11 1211 22 q 1169 0 1188 0 l 678 0 q 647 12 660 0 q 635 42 635 24 l 635 235 l 236 235 l 83 15 q 50 -3 71 -3 q 23 9 35 -3 q 11 38 11 21 q 18 64 11 50 l 642 954 q 679 972 656 972 l 1169 972 q 1199 960 1188 972 q 1211 931 1211 949 q 1199 901 1211 913 q 1169 890 1188 890 l 721 890 l 721 539 l 1107 539 q 1137 528 1125 539 q 1149 499 1149 517 q 1137 469 1149 481 q 1107 458 1125 458 l 721 458 l 721 82 l 1169 82 m 635 810 l 292 315 l 635 315 l 635 810 m 871 1036 q 851 1043 858 1036 q 844 1061 844 1050 q 858 1086 844 1072 l 982 1182 q 1022 1197 1000 1197 q 1052 1185 1040 1197 q 1064 1156 1064 1174 q 1038 1113 1064 1128 l 901 1044 q 871 1036 882 1036 z "},"B":{"ha":904,"x_min":131,"x_max":839,"o":"m 650 517 q 786 433 733 496 q 839 271 839 371 q 755 67 839 135 q 546 0 671 0 l 172 0 q 142 12 154 0 q 131 42 131 24 l 131 931 q 142 960 131 949 q 172 972 154 972 l 540 972 q 723 908 657 972 q 789 733 789 844 q 753 601 789 660 q 650 517 717 543 m 700 726 q 655 847 700 803 q 529 890 610 890 l 219 890 l 219 543 l 529 543 q 652 592 604 544 q 700 726 700 639 m 542 82 q 692 129 635 82 q 750 271 750 176 q 691 414 750 368 q 539 460 632 460 l 219 460 l 219 82 l 542 82 z "},"C":{"ha":907,"x_min":67,"x_max":861,"o":"m 840 900 q 861 865 861 888 q 851 838 861 853 q 819 822 839 822 q 797 829 808 822 q 554 903 686 903 q 351 850 442 903 q 208 702 260 797 q 156 486 156 607 q 208 267 156 363 q 352 120 261 172 q 554 68 443 68 q 796 140 686 68 q 819 147 807 147 q 851 131 839 147 q 861 104 861 119 q 842 71 861 82 q 708 10 788 35 q 554 -14 629 -14 q 310 49 422 -14 q 133 226 199 113 q 67 486 67 340 q 132 741 67 626 q 308 920 197 856 q 554 985 419 985 q 706 963 632 985 q 840 900 781 940 z "},"Ć":{"ha":907,"x_min":67,"x_max":861,"o":"m 840 900 q 861 865 861 888 q 851 838 861 853 q 819 822 839 822 q 797 829 808 822 q 554 903 686 903 q 351 850 442 903 q 208 702 260 797 q 156 486 156 607 q 208 267 156 363 q 352 120 261 172 q 554 68 443 68 q 796 140 686 68 q 819 147 807 147 q 851 131 839 147 q 861 104 861 119 q 842 71 861 82 q 708 10 788 35 q 554 -14 629 -14 q 310 49 422 -14 q 133 226 199 113 q 67 486 67 340 q 132 741 67 626 q 308 920 197 856 q 554 985 419 985 q 706 963 632 985 q 840 900 781 940 m 546 1036 q 526 1043 533 1036 q 519 1061 519 1050 q 533 1086 519 1072 l 657 1182 q 697 1197 675 1197 q 727 1185 715 1197 q 739 1156 739 1174 q 713 1113 739 1128 l 576 1044 q 546 1036 557 1036 z "},"Č":{"ha":907,"x_min":67,"x_max":861,"o":"m 840 900 q 861 865 861 888 q 851 838 861 853 q 819 822 839 822 q 797 829 808 822 q 554 903 686 903 q 351 850 442 903 q 208 702 260 797 q 156 486 156 607 q 208 267 156 363 q 352 120 261 172 q 554 68 443 68 q 796 140 686 68 q 819 147 807 147 q 851 131 839 147 q 861 104 861 119 q 842 71 861 82 q 708 10 788 35 q 554 -14 629 -14 q 310 49 422 -14 q 133 226 199 113 q 67 486 67 340 q 132 741 67 626 q 308 920 197 856 q 554 985 419 985 q 706 963 632 985 q 840 900 781 940 m 689 1229 q 706 1223 699 1229 q 713 1208 713 1217 q 701 1185 713 1197 l 594 1071 q 549 1047 579 1047 l 533 1047 q 486 1071 504 1047 l 381 1183 q 369 1207 369 1196 q 376 1222 369 1215 q 392 1228 382 1228 q 429 1211 408 1228 l 544 1125 l 651 1211 q 689 1229 674 1229 z "},"Ç":{"ha":907,"x_min":67,"x_max":861,"o":"m 851 131 q 861 104 861 119 q 842 71 861 82 q 720 14 792 38 q 578 -14 649 -10 l 504 -172 q 468 -200 493 -200 q 431 -186 451 -200 q 410 -156 410 -172 q 419 -131 410 -140 l 514 -12 q 288 63 390 -3 q 126 238 186 128 q 67 486 67 349 q 132 741 67 626 q 308 920 197 856 q 554 985 419 985 q 706 963 632 985 q 840 900 781 940 q 861 865 861 888 q 851 838 861 853 q 819 822 839 822 q 797 829 808 822 q 554 903 686 903 q 351 850 442 903 q 208 702 260 797 q 156 486 156 607 q 208 267 156 363 q 352 120 261 172 q 554 68 443 68 q 796 140 686 68 q 819 147 807 147 q 851 131 839 147 z "},"Ḉ":{"ha":907,"x_min":67,"x_max":861,"o":"m 546 1036 q 526 1043 533 1036 q 519 1061 519 1050 q 533 1086 519 1072 l 657 1182 q 697 1197 675 1197 q 727 1185 715 1197 q 739 1156 739 1174 q 713 1113 739 1128 l 576 1044 q 546 1036 557 1036 m 851 131 q 861 104 861 119 q 842 71 861 82 q 720 14 792 38 q 578 -14 649 -10 l 504 -172 q 468 -200 493 -200 q 431 -186 451 -200 q 410 -156 410 -172 q 419 -131 410 -140 l 514 -12 q 288 63 390 -3 q 126 238 186 128 q 67 486 67 349 q 132 741 67 626 q 308 920 197 856 q 554 985 419 985 q 706 963 632 985 q 840 900 781 940 q 861 865 861 888 q 851 838 861 853 q 819 822 839 822 q 797 829 808 822 q 554 903 686 903 q 351 850 442 903 q 208 702 260 797 q 156 486 156 607 q 208 267 156 363 q 352 120 261 172 q 554 68 443 68 q 796 140 686 68 q 819 147 807 147 q 851 131 839 147 z "},"Ĉ":{"ha":907,"x_min":67,"x_max":861,"o":"m 840 900 q 861 865 861 888 q 851 838 861 853 q 819 822 839 822 q 797 829 808 822 q 554 903 686 903 q 351 850 442 903 q 208 702 260 797 q 156 486 156 607 q 208 267 156 363 q 352 120 261 172 q 554 68 443 68 q 796 140 686 68 q 819 147 807 147 q 851 131 839 147 q 861 104 861 119 q 842 71 861 82 q 708 10 788 35 q 554 -14 629 -14 q 310 49 422 -14 q 133 226 199 113 q 67 486 67 340 q 132 741 67 626 q 308 920 197 856 q 554 985 419 985 q 706 963 632 985 q 840 900 781 940 m 700 1103 q 711 1079 711 1090 q 704 1065 711 1072 q 689 1058 697 1058 q 651 1076 674 1058 l 536 1160 l 429 1075 q 392 1057 404 1057 q 375 1063 382 1057 q 368 1078 368 1069 q 379 1101 368 1089 l 486 1215 q 507 1233 497 1228 q 532 1239 517 1239 l 547 1239 q 572 1233 563 1239 q 594 1215 582 1228 l 700 1103 z "},"Ċ":{"ha":907,"x_min":67,"x_max":861,"o":"m 840 900 q 861 865 861 888 q 851 838 861 853 q 819 822 839 822 q 797 829 808 822 q 554 903 686 903 q 351 850 442 903 q 208 702 260 797 q 156 486 156 607 q 208 267 156 363 q 352 120 261 172 q 554 68 443 68 q 796 140 686 68 q 819 147 807 147 q 851 131 839 147 q 861 104 861 119 q 842 71 861 82 q 708 10 788 35 q 554 -14 629 -14 q 310 49 422 -14 q 133 226 199 113 q 67 486 67 340 q 132 741 67 626 q 308 920 197 856 q 554 985 419 985 q 706 963 632 985 q 840 900 781 940 m 542 1069 q 499 1084 514 1069 q 483 1125 483 1099 l 483 1139 q 499 1180 483 1165 q 543 1194 515 1194 q 599 1139 599 1194 l 599 1125 q 584 1084 599 1099 q 542 1069 569 1069 z "},"D":{"ha":999,"x_min":131,"x_max":932,"o":"m 526 972 q 751 906 660 972 q 887 730 842 840 q 932 486 932 619 q 887 239 932 349 q 751 65 842 129 q 526 0 660 0 l 172 0 q 142 12 154 0 q 131 42 131 24 l 131 931 q 142 960 131 949 q 172 972 154 972 l 526 972 m 513 82 q 761 194 679 82 q 843 486 843 306 q 808 690 843 599 q 699 835 774 781 q 513 890 625 890 l 218 890 l 218 82 l 513 82 z "},"Ǆ":{"ha":1893,"x_min":131,"x_max":1829,"o":"m 526 972 q 751 906 660 972 q 887 730 842 840 q 932 486 932 619 q 887 239 932 349 q 751 65 842 129 q 526 0 660 0 l 172 0 q 142 12 154 0 q 131 42 131 24 l 131 931 q 142 960 131 949 q 172 972 154 972 l 526 972 m 513 82 q 761 194 679 82 q 843 486 843 306 q 808 690 843 599 q 699 835 774 781 q 513 890 625 890 l 218 890 l 218 82 l 513 82 m 1782 79 q 1812 67 1800 79 q 1824 40 1824 56 q 1812 11 1824 22 q 1782 0 1800 0 l 1117 0 q 1085 13 1097 0 q 1074 43 1074 26 q 1082 68 1074 56 l 1707 893 l 1151 893 q 1122 904 1133 893 q 1110 933 1110 915 q 1122 961 1110 950 q 1151 972 1133 972 l 1783 972 q 1817 960 1804 972 q 1829 931 1829 947 q 1821 906 1829 918 l 1197 79 l 1782 79 m 1594 1229 q 1611 1223 1604 1229 q 1618 1208 1618 1217 q 1607 1185 1618 1197 l 1500 1071 q 1454 1047 1485 1047 l 1439 1047 q 1392 1071 1410 1047 l 1286 1183 q 1275 1207 1275 1196 q 1281 1222 1275 1215 q 1297 1228 1288 1228 q 1335 1211 1314 1228 l 1450 1125 l 1557 1211 q 1594 1229 1579 1229 z "},"Ð":{"ha":999,"x_min":24,"x_max":932,"o":"m 526 972 q 751 906 660 972 q 887 730 842 840 q 932 486 932 619 q 887 239 932 349 q 751 65 842 129 q 526 0 660 0 l 172 0 q 142 12 154 0 q 131 42 131 24 l 131 449 l 65 449 q 35 460 46 449 q 24 489 24 471 q 35 516 24 506 q 65 526 47 526 l 131 526 l 131 931 q 142 960 131 949 q 172 972 154 972 l 526 972 m 513 82 q 761 194 679 82 q 843 486 843 306 q 808 690 843 599 q 699 835 774 781 q 513 890 625 890 l 218 890 l 218 526 l 293 526 q 324 516 313 526 q 335 488 335 506 q 324 459 335 469 q 293 449 313 449 l 218 449 l 218 82 l 513 82 z "},"Ď":{"ha":999,"x_min":131,"x_max":932,"o":"m 526 972 q 751 906 660 972 q 887 730 842 840 q 932 486 932 619 q 887 239 932 349 q 751 65 842 129 q 526 0 660 0 l 172 0 q 142 12 154 0 q 131 42 131 24 l 131 931 q 142 960 131 949 q 172 972 154 972 l 526 972 m 513 82 q 761 194 679 82 q 843 486 843 306 q 808 690 843 599 q 699 835 774 781 q 513 890 625 890 l 218 890 l 218 82 l 513 82 m 581 1229 q 597 1223 590 1229 q 604 1208 604 1217 q 593 1185 604 1197 l 486 1071 q 440 1047 471 1047 l 425 1047 q 378 1071 396 1047 l 272 1183 q 261 1207 261 1196 q 267 1222 261 1215 q 283 1228 274 1228 q 321 1211 300 1228 l 436 1125 l 543 1211 q 581 1229 565 1229 z "},"Đ":{"ha":999,"x_min":24,"x_max":932,"o":"m 526 972 q 751 906 660 972 q 887 730 842 840 q 932 486 932 619 q 887 239 932 349 q 751 65 842 129 q 526 0 660 0 l 172 0 q 142 12 154 0 q 131 42 131 24 l 131 449 l 65 449 q 35 460 46 449 q 24 489 24 471 q 35 516 24 506 q 65 526 47 526 l 131 526 l 131 931 q 142 960 131 949 q 172 972 154 972 l 526 972 m 513 82 q 761 194 679 82 q 843 486 843 306 q 808 690 843 599 q 699 835 774 781 q 513 890 625 890 l 218 890 l 218 526 l 293 526 q 324 516 313 526 q 335 488 335 506 q 324 459 335 469 q 293 449 313 449 l 218 449 l 218 82 l 513 82 z "},"Ḍ":{"ha":999,"x_min":131,"x_max":932,"o":"m 526 972 q 751 906 660 972 q 887 730 842 840 q 932 486 932 619 q 887 239 932 349 q 751 65 842 129 q 526 0 660 0 l 172 0 q 142 12 154 0 q 131 42 131 24 l 131 931 q 142 960 131 949 q 172 972 154 972 l 526 972 m 513 82 q 761 194 679 82 q 843 486 843 306 q 808 690 843 599 q 699 835 774 781 q 513 890 625 890 l 218 890 l 218 82 l 513 82 m 444 -194 q 401 -180 417 -194 q 386 -139 386 -165 l 386 -124 q 402 -84 386 -99 q 444 -69 418 -69 q 501 -124 501 -69 l 501 -139 q 487 -180 501 -165 q 444 -194 472 -194 z "},"Ḏ":{"ha":999,"x_min":131,"x_max":932,"o":"m 526 972 q 751 906 660 972 q 887 730 842 840 q 932 486 932 619 q 887 239 932 349 q 751 65 842 129 q 526 0 660 0 l 172 0 q 142 12 154 0 q 131 42 131 24 l 131 931 q 142 960 131 949 q 172 972 154 972 l 526 972 m 513 82 q 761 194 679 82 q 843 486 843 306 q 808 690 843 599 q 699 835 774 781 q 513 890 625 890 l 218 890 l 218 82 l 513 82 m 307 -175 q 268 -140 268 -175 q 307 -106 268 -106 l 599 -106 q 638 -140 638 -106 q 599 -175 638 -175 l 307 -175 z "},"ǲ":{"ha":1663,"x_min":131,"x_max":1600,"o":"m 526 972 q 751 906 660 972 q 887 730 842 840 q 932 486 932 619 q 887 239 932 349 q 751 65 842 129 q 526 0 660 0 l 172 0 q 142 12 154 0 q 131 42 131 24 l 131 931 q 142 960 131 949 q 172 972 154 972 l 526 972 m 513 82 q 761 194 679 82 q 843 486 843 306 q 808 690 843 599 q 699 835 774 781 q 513 890 625 890 l 218 890 l 218 82 l 513 82 m 1551 78 q 1581 67 1569 78 q 1592 39 1592 56 q 1581 11 1592 22 q 1551 0 1569 0 l 1100 0 q 1071 13 1082 0 q 1060 40 1060 26 q 1072 72 1060 58 l 1483 642 l 1135 642 q 1106 653 1118 642 q 1094 681 1094 664 q 1106 708 1094 697 q 1135 719 1118 719 l 1561 719 q 1589 707 1578 719 q 1600 678 1600 694 q 1589 647 1600 663 l 1176 78 l 1551 78 z "},"ǅ":{"ha":1664,"x_min":131,"x_max":1601,"o":"m 526 972 q 751 906 660 972 q 887 730 842 840 q 932 486 932 619 q 887 239 932 349 q 751 65 842 129 q 526 0 660 0 l 172 0 q 142 12 154 0 q 131 42 131 24 l 131 931 q 142 960 131 949 q 172 972 154 972 l 526 972 m 513 82 q 761 194 679 82 q 843 486 843 306 q 808 690 843 599 q 699 835 774 781 q 513 890 625 890 l 218 890 l 218 82 l 513 82 m 1553 78 q 1582 67 1571 78 q 1593 39 1593 56 q 1582 11 1593 22 q 1553 0 1571 0 l 1101 0 q 1072 13 1083 0 q 1061 40 1061 26 q 1074 72 1061 58 l 1485 642 l 1136 642 q 1108 653 1119 642 q 1096 681 1096 664 q 1108 708 1096 697 q 1136 719 1119 719 l 1563 719 q 1590 707 1579 719 q 1601 678 1601 694 q 1590 647 1601 663 l 1178 78 l 1553 78 m 1499 968 q 1516 961 1508 968 q 1524 946 1524 954 q 1511 921 1524 936 l 1411 813 q 1365 790 1396 790 l 1343 790 q 1296 813 1313 790 l 1197 921 q 1186 944 1186 932 q 1193 960 1186 953 q 1213 967 1200 967 q 1249 949 1226 967 l 1357 861 l 1460 949 q 1499 968 1482 968 z "},"E":{"ha":789,"x_min":131,"x_max":724,"o":"m 682 82 q 712 69 700 82 q 724 40 724 57 q 712 11 724 22 q 682 0 700 0 l 172 0 q 142 12 154 0 q 131 42 131 24 l 131 931 q 142 960 131 949 q 172 972 154 972 l 682 972 q 712 960 700 972 q 724 931 724 949 q 712 901 724 913 q 682 890 700 890 l 218 890 l 218 542 l 619 542 q 649 530 638 542 q 661 500 661 518 q 649 471 661 482 q 619 460 638 460 l 218 460 l 218 82 l 682 82 z "},"É":{"ha":789,"x_min":131,"x_max":724,"o":"m 682 82 q 712 69 700 82 q 724 40 724 57 q 712 11 724 22 q 682 0 700 0 l 172 0 q 142 12 154 0 q 131 42 131 24 l 131 931 q 142 960 131 949 q 172 972 154 972 l 682 972 q 712 960 700 972 q 724 931 724 949 q 712 901 724 913 q 682 890 700 890 l 218 890 l 218 542 l 619 542 q 649 530 638 542 q 661 500 661 518 q 649 471 661 482 q 619 460 638 460 l 218 460 l 218 82 l 682 82 m 446 1036 q 426 1043 433 1036 q 419 1061 419 1050 q 433 1086 419 1072 l 557 1182 q 597 1197 575 1197 q 627 1185 615 1197 q 639 1156 639 1174 q 613 1113 639 1128 l 476 1044 q 446 1036 457 1036 z "},"Ĕ":{"ha":789,"x_min":131,"x_max":724,"o":"m 682 82 q 712 69 700 82 q 724 40 724 57 q 712 11 724 22 q 682 0 700 0 l 172 0 q 142 12 154 0 q 131 42 131 24 l 131 931 q 142 960 131 949 q 172 972 154 972 l 682 972 q 712 960 700 972 q 724 931 724 949 q 712 901 724 913 q 682 890 700 890 l 218 890 l 218 542 l 619 542 q 649 530 638 542 q 661 500 661 518 q 649 471 661 482 q 619 460 638 460 l 218 460 l 218 82 l 682 82 m 442 1075 q 320 1112 369 1075 q 251 1215 271 1149 q 249 1231 249 1226 q 256 1250 249 1243 q 278 1257 264 1257 q 301 1251 293 1257 q 319 1226 308 1244 q 442 1146 356 1146 q 564 1226 529 1146 q 581 1249 571 1242 q 606 1256 590 1256 q 635 1232 635 1256 q 632 1215 635 1226 q 563 1112 613 1149 q 442 1075 514 1075 z "},"Ě":{"ha":789,"x_min":131,"x_max":724,"o":"m 682 82 q 712 69 700 82 q 724 40 724 57 q 712 11 724 22 q 682 0 700 0 l 172 0 q 142 12 154 0 q 131 42 131 24 l 131 931 q 142 960 131 949 q 172 972 154 972 l 682 972 q 712 960 700 972 q 724 931 724 949 q 712 901 724 913 q 682 890 700 890 l 218 890 l 218 542 l 619 542 q 649 530 638 542 q 661 500 661 518 q 649 471 661 482 q 619 460 638 460 l 218 460 l 218 82 l 682 82 m 589 1229 q 606 1223 599 1229 q 613 1208 613 1217 q 601 1185 613 1197 l 494 1071 q 449 1047 479 1047 l 433 1047 q 386 1071 404 1047 l 281 1183 q 269 1207 269 1196 q 276 1222 269 1215 q 292 1228 282 1228 q 329 1211 308 1228 l 444 1125 l 551 1211 q 589 1229 574 1229 z "},"Ḝ":{"ha":789,"x_min":131,"x_max":724,"o":"m 442 1075 q 320 1112 369 1075 q 251 1215 271 1149 q 249 1231 249 1226 q 256 1250 249 1243 q 278 1257 264 1257 q 301 1251 293 1257 q 319 1226 308 1244 q 442 1146 356 1146 q 564 1226 529 1146 q 581 1249 571 1242 q 606 1256 590 1256 q 635 1232 635 1256 q 632 1215 635 1226 q 563 1112 613 1149 q 442 1075 514 1075 m 682 82 q 712 69 700 82 q 724 40 724 57 q 712 11 724 22 q 682 0 700 0 l 456 0 l 376 -172 q 340 -200 365 -200 q 303 -186 324 -200 q 282 -156 282 -172 q 292 -131 282 -140 l 396 0 l 172 0 q 142 12 154 0 q 131 42 131 24 l 131 931 q 142 960 131 949 q 172 972 154 972 l 682 972 q 712 960 700 972 q 724 931 724 949 q 712 901 724 913 q 682 890 700 890 l 218 890 l 218 542 l 619 542 q 649 530 638 542 q 661 500 661 518 q 649 471 661 482 q 619 460 638 460 l 218 460 l 218 82 l 682 82 z "},"Ê":{"ha":789,"x_min":131,"x_max":724,"o":"m 682 82 q 712 69 700 82 q 724 40 724 57 q 712 11 724 22 q 682 0 700 0 l 172 0 q 142 12 154 0 q 131 42 131 24 l 131 931 q 142 960 131 949 q 172 972 154 972 l 682 972 q 712 960 700 972 q 724 931 724 949 q 712 901 724 913 q 682 890 700 890 l 218 890 l 218 542 l 619 542 q 649 530 638 542 q 661 500 661 518 q 649 471 661 482 q 619 460 638 460 l 218 460 l 218 82 l 682 82 m 600 1103 q 611 1079 611 1090 q 604 1065 611 1072 q 589 1058 597 1058 q 551 1076 574 1058 l 436 1160 l 329 1075 q 292 1057 304 1057 q 275 1063 282 1057 q 268 1078 268 1069 q 279 1101 268 1089 l 386 1215 q 407 1233 397 1228 q 432 1239 417 1239 l 447 1239 q 472 1233 463 1239 q 494 1215 482 1228 l 600 1103 z "},"Ế":{"ha":789,"x_min":131,"x_max":839,"o":"m 682 82 q 712 69 700 82 q 724 40 724 57 q 712 11 724 22 q 682 0 700 0 l 172 0 q 142 12 154 0 q 131 42 131 24 l 131 931 q 142 960 131 949 q 172 972 154 972 l 682 972 q 712 960 700 972 q 724 931 724 949 q 712 901 724 913 q 682 890 700 890 l 218 890 l 218 542 l 619 542 q 649 530 638 542 q 661 500 661 518 q 649 471 661 482 q 619 460 638 460 l 218 460 l 218 82 l 682 82 m 600 1103 q 611 1079 611 1090 q 604 1065 611 1072 q 589 1058 597 1058 q 551 1076 574 1058 l 436 1160 l 329 1075 q 292 1057 304 1057 q 275 1063 282 1057 q 268 1078 268 1069 q 279 1101 268 1089 l 386 1215 q 407 1233 397 1228 q 432 1239 417 1239 l 447 1239 q 472 1233 463 1239 q 494 1215 482 1228 l 600 1103 m 646 1139 q 626 1146 633 1139 q 619 1164 619 1153 q 633 1189 619 1175 l 757 1285 q 797 1300 775 1300 q 827 1288 815 1300 q 839 1258 839 1276 q 813 1215 839 1231 l 676 1147 q 646 1139 657 1139 z "},"Ệ":{"ha":789,"x_min":131,"x_max":724,"o":"m 682 82 q 712 69 700 82 q 724 40 724 57 q 712 11 724 22 q 682 0 700 0 l 172 0 q 142 12 154 0 q 131 42 131 24 l 131 931 q 142 960 131 949 q 172 972 154 972 l 682 972 q 712 960 700 972 q 724 931 724 949 q 712 901 724 913 q 682 890 700 890 l 218 890 l 218 542 l 619 542 q 649 530 638 542 q 661 500 661 518 q 649 471 661 482 q 619 460 638 460 l 218 460 l 218 82 l 682 82 m 433 -194 q 390 -180 406 -194 q 375 -139 375 -165 l 375 -124 q 391 -84 375 -99 q 433 -69 407 -69 q 490 -124 490 -69 l 490 -139 q 476 -180 490 -165 q 433 -194 461 -194 m 600 1103 q 611 1079 611 1090 q 604 1065 611 1072 q 589 1058 597 1058 q 551 1076 574 1058 l 436 1160 l 329 1075 q 292 1057 304 1057 q 275 1063 282 1057 q 268 1078 268 1069 q 279 1101 268 1089 l 386 1215 q 407 1233 397 1228 q 432 1239 417 1239 l 447 1239 q 472 1233 463 1239 q 494 1215 482 1228 l 600 1103 z "},"Ề":{"ha":789,"x_min":131,"x_max":724,"o":"m 682 82 q 712 69 700 82 q 724 40 724 57 q 712 11 724 22 q 682 0 700 0 l 172 0 q 142 12 154 0 q 131 42 131 24 l 131 931 q 142 960 131 949 q 172 972 154 972 l 682 972 q 712 960 700 972 q 724 931 724 949 q 712 901 724 913 q 682 890 700 890 l 218 890 l 218 542 l 619 542 q 649 530 638 542 q 661 500 661 518 q 649 471 661 482 q 619 460 638 460 l 218 460 l 218 82 l 682 82 m 600 1103 q 611 1079 611 1090 q 604 1065 611 1072 q 589 1058 597 1058 q 551 1076 574 1058 l 436 1160 l 329 1075 q 292 1057 304 1057 q 275 1063 282 1057 q 268 1078 268 1069 q 279 1101 268 1089 l 386 1215 q 407 1233 397 1228 q 432 1239 417 1239 l 447 1239 q 472 1233 463 1239 q 494 1215 482 1228 l 600 1103 m 611 1228 q 581 1236 600 1228 l 446 1304 q 418 1347 418 1319 q 430 1377 418 1365 q 460 1389 442 1389 q 500 1374 482 1389 l 624 1278 q 638 1253 638 1264 q 631 1235 638 1242 q 611 1228 624 1228 z "},"Ể":{"ha":789,"x_min":131,"x_max":724,"o":"m 682 82 q 712 69 700 82 q 724 40 724 57 q 712 11 724 22 q 682 0 700 0 l 172 0 q 142 12 154 0 q 131 42 131 24 l 131 931 q 142 960 131 949 q 172 972 154 972 l 682 972 q 712 960 700 972 q 724 931 724 949 q 712 901 724 913 q 682 890 700 890 l 218 890 l 218 542 l 619 542 q 649 530 638 542 q 661 500 661 518 q 649 471 661 482 q 619 460 638 460 l 218 460 l 218 82 l 682 82 m 600 1103 q 611 1079 611 1090 q 604 1065 611 1072 q 589 1058 597 1058 q 551 1076 574 1058 l 436 1160 l 329 1075 q 292 1057 304 1057 q 275 1063 282 1057 q 268 1078 268 1069 q 279 1101 268 1089 l 386 1215 q 407 1233 397 1228 q 432 1239 417 1239 l 447 1239 q 472 1233 463 1239 q 494 1215 482 1228 l 600 1103 m 335 1531 q 438 1574 381 1574 q 524 1542 497 1574 q 551 1471 551 1510 q 540 1430 551 1449 q 504 1388 528 1411 q 488 1350 488 1368 q 478 1333 486 1339 q 456 1328 469 1328 q 437 1335 444 1328 q 429 1351 429 1342 q 449 1407 429 1385 q 481 1443 472 1432 q 489 1469 489 1454 q 474 1499 489 1488 q 439 1511 460 1511 q 375 1486 408 1511 q 351 1475 364 1475 q 329 1486 340 1475 q 322 1506 322 1496 q 335 1531 322 1518 z "},"Ễ":{"ha":789,"x_min":131,"x_max":724,"o":"m 682 82 q 712 69 700 82 q 724 40 724 57 q 712 11 724 22 q 682 0 700 0 l 172 0 q 142 12 154 0 q 131 42 131 24 l 131 931 q 142 960 131 949 q 172 972 154 972 l 682 972 q 712 960 700 972 q 724 931 724 949 q 712 901 724 913 q 682 890 700 890 l 218 890 l 218 542 l 619 542 q 649 530 638 542 q 661 500 661 518 q 649 471 661 482 q 619 460 638 460 l 218 460 l 218 82 l 682 82 m 600 1103 q 611 1079 611 1090 q 604 1065 611 1072 q 589 1058 597 1058 q 551 1076 574 1058 l 436 1160 l 329 1075 q 292 1057 304 1057 q 275 1063 282 1057 q 268 1078 268 1069 q 279 1101 268 1089 l 386 1215 q 407 1233 397 1228 q 432 1239 417 1239 l 447 1239 q 472 1233 463 1239 q 494 1215 482 1228 l 600 1103 m 263 1247 q 238 1258 247 1247 q 229 1292 229 1269 q 231 1308 229 1303 q 274 1376 240 1351 q 351 1401 307 1401 q 403 1390 376 1401 q 465 1356 431 1378 q 513 1329 496 1338 q 544 1321 531 1321 q 576 1335 564 1321 q 590 1375 588 1350 q 597 1401 589 1390 q 621 1411 606 1411 q 647 1399 638 1411 q 656 1367 656 1388 l 654 1351 q 616 1279 646 1306 q 542 1253 586 1253 q 431 1297 503 1253 q 381 1324 399 1315 q 347 1332 363 1332 q 313 1319 328 1332 q 293 1278 299 1306 q 284 1255 293 1263 q 263 1247 275 1247 z "},"Ȅ":{"ha":789,"x_min":131,"x_max":724,"o":"m 682 82 q 712 69 700 82 q 724 40 724 57 q 712 11 724 22 q 682 0 700 0 l 172 0 q 142 12 154 0 q 131 42 131 24 l 131 931 q 142 960 131 949 q 172 972 154 972 l 682 972 q 712 960 700 972 q 724 931 724 949 q 712 901 724 913 q 682 890 700 890 l 218 890 l 218 542 l 619 542 q 649 530 638 542 q 661 500 661 518 q 649 471 661 482 q 619 460 638 460 l 218 460 l 218 82 l 682 82 m 374 1049 q 355 1053 364 1049 q 343 1058 346 1057 l 208 1125 q 181 1169 181 1140 q 192 1199 181 1186 q 222 1211 204 1211 q 263 1194 243 1211 l 386 1099 q 400 1074 400 1088 q 393 1056 400 1064 q 374 1049 386 1049 m 607 1049 q 576 1057 596 1049 l 440 1125 q 414 1168 414 1140 q 426 1198 414 1186 q 456 1210 438 1210 q 496 1194 478 1210 l 619 1099 q 633 1074 633 1085 q 626 1056 633 1063 q 607 1049 619 1049 z "},"Ë":{"ha":789,"x_min":131,"x_max":724,"o":"m 682 82 q 712 69 700 82 q 724 40 724 57 q 712 11 724 22 q 682 0 700 0 l 172 0 q 142 12 154 0 q 131 42 131 24 l 131 931 q 142 960 131 949 q 172 972 154 972 l 682 972 q 712 960 700 972 q 724 931 724 949 q 712 901 724 913 q 682 890 700 890 l 218 890 l 218 542 l 619 542 q 649 530 638 542 q 661 500 661 518 q 649 471 661 482 q 619 460 638 460 l 218 460 l 218 82 l 682 82 m 322 1076 q 281 1091 296 1076 q 265 1132 265 1106 l 265 1146 q 281 1187 265 1172 q 324 1201 297 1201 q 365 1187 350 1201 q 381 1146 381 1172 l 381 1132 q 365 1091 381 1106 q 322 1076 350 1076 m 561 1076 q 519 1091 535 1076 q 504 1132 504 1106 l 504 1146 q 519 1187 504 1172 q 563 1201 535 1201 q 604 1187 589 1201 q 619 1146 619 1172 l 619 1132 q 604 1091 619 1106 q 561 1076 589 1076 z "},"Ė":{"ha":789,"x_min":131,"x_max":724,"o":"m 682 82 q 712 69 700 82 q 724 40 724 57 q 712 11 724 22 q 682 0 700 0 l 172 0 q 142 12 154 0 q 131 42 131 24 l 131 931 q 142 960 131 949 q 172 972 154 972 l 682 972 q 712 960 700 972 q 724 931 724 949 q 712 901 724 913 q 682 890 700 890 l 218 890 l 218 542 l 619 542 q 649 530 638 542 q 661 500 661 518 q 649 471 661 482 q 619 460 638 460 l 218 460 l 218 82 l 682 82 m 442 1069 q 399 1084 414 1069 q 383 1125 383 1099 l 383 1139 q 399 1180 383 1165 q 443 1194 415 1194 q 499 1139 499 1194 l 499 1125 q 484 1084 499 1099 q 442 1069 469 1069 z "},"Ẹ":{"ha":789,"x_min":131,"x_max":724,"o":"m 682 82 q 712 69 700 82 q 724 40 724 57 q 712 11 724 22 q 682 0 700 0 l 172 0 q 142 12 154 0 q 131 42 131 24 l 131 931 q 142 960 131 949 q 172 972 154 972 l 682 972 q 712 960 700 972 q 724 931 724 949 q 712 901 724 913 q 682 890 700 890 l 218 890 l 218 542 l 619 542 q 649 530 638 542 q 661 500 661 518 q 649 471 661 482 q 619 460 638 460 l 218 460 l 218 82 l 682 82 m 433 -194 q 390 -180 406 -194 q 375 -139 375 -165 l 375 -124 q 391 -84 375 -99 q 433 -69 407 -69 q 490 -124 490 -69 l 490 -139 q 476 -180 490 -165 q 433 -194 461 -194 z "},"È":{"ha":789,"x_min":131,"x_max":724,"o":"m 682 82 q 712 69 700 82 q 724 40 724 57 q 712 11 724 22 q 682 0 700 0 l 172 0 q 142 12 154 0 q 131 42 131 24 l 131 931 q 142 960 131 949 q 172 972 154 972 l 682 972 q 712 960 700 972 q 724 931 724 949 q 712 901 724 913 q 682 890 700 890 l 218 890 l 218 542 l 619 542 q 649 530 638 542 q 661 500 661 518 q 649 471 661 482 q 619 460 638 460 l 218 460 l 218 82 l 682 82 m 442 1038 q 411 1046 431 1038 l 276 1114 q 249 1157 249 1129 q 260 1187 249 1175 q 290 1199 272 1199 q 331 1183 313 1199 l 454 1088 q 468 1063 468 1074 q 461 1044 468 1051 q 442 1038 454 1038 z "},"Ẻ":{"ha":789,"x_min":131,"x_max":724,"o":"m 682 82 q 712 69 700 82 q 724 40 724 57 q 712 11 724 22 q 682 0 700 0 l 172 0 q 142 12 154 0 q 131 42 131 24 l 131 931 q 142 960 131 949 q 172 972 154 972 l 682 972 q 712 960 700 972 q 724 931 724 949 q 712 901 724 913 q 682 890 700 890 l 218 890 l 218 542 l 619 542 q 649 530 638 542 q 661 500 661 518 q 649 471 661 482 q 619 460 638 460 l 218 460 l 218 82 l 682 82 m 335 1254 q 438 1297 381 1297 q 524 1265 497 1297 q 551 1194 551 1233 q 540 1153 551 1172 q 504 1111 528 1135 q 488 1074 488 1092 q 478 1057 486 1063 q 456 1051 469 1051 q 437 1058 444 1051 q 429 1075 429 1065 q 449 1131 429 1108 q 481 1167 472 1156 q 489 1193 489 1178 q 474 1223 489 1211 q 439 1235 460 1235 q 375 1210 408 1235 q 351 1199 364 1199 q 329 1210 340 1199 q 322 1229 322 1219 q 335 1254 322 1242 z "},"Ȇ":{"ha":789,"x_min":131,"x_max":724,"o":"m 682 82 q 712 69 700 82 q 724 40 724 57 q 712 11 724 22 q 682 0 700 0 l 172 0 q 142 12 154 0 q 131 42 131 24 l 131 931 q 142 960 131 949 q 172 972 154 972 l 682 972 q 712 960 700 972 q 724 931 724 949 q 712 901 724 913 q 682 890 700 890 l 218 890 l 218 542 l 619 542 q 649 530 638 542 q 661 500 661 518 q 649 471 661 482 q 619 460 638 460 l 218 460 l 218 82 l 682 82 m 440 1201 q 563 1162 511 1201 q 621 1065 614 1122 q 615 1039 624 1050 q 590 1028 606 1028 q 565 1036 575 1028 q 549 1061 556 1044 q 510 1113 539 1094 q 440 1132 481 1132 q 369 1113 399 1132 q 332 1061 340 1094 q 315 1036 325 1044 q 289 1028 306 1028 q 265 1038 274 1028 q 258 1064 256 1049 q 317 1162 265 1122 q 440 1201 368 1201 z "},"Ē":{"ha":789,"x_min":131,"x_max":724,"o":"m 682 82 q 712 69 700 82 q 724 40 724 57 q 712 11 724 22 q 682 0 700 0 l 172 0 q 142 12 154 0 q 131 42 131 24 l 131 931 q 142 960 131 949 q 172 972 154 972 l 682 972 q 712 960 700 972 q 724 931 724 949 q 712 901 724 913 q 682 890 700 890 l 218 890 l 218 542 l 619 542 q 649 530 638 542 q 661 500 661 518 q 649 471 661 482 q 619 460 638 460 l 218 460 l 218 82 l 682 82 m 269 1094 q 229 1129 229 1094 q 269 1165 229 1165 l 624 1165 q 664 1129 664 1165 q 624 1094 664 1094 l 269 1094 z "},"Ḗ":{"ha":789,"x_min":131,"x_max":724,"o":"m 682 82 q 712 69 700 82 q 724 40 724 57 q 712 11 724 22 q 682 0 700 0 l 172 0 q 142 12 154 0 q 131 42 131 24 l 131 931 q 142 960 131 949 q 172 972 154 972 l 682 972 q 712 960 700 972 q 724 931 724 949 q 712 901 724 913 q 682 890 700 890 l 218 890 l 218 542 l 619 542 q 649 530 638 542 q 661 500 661 518 q 649 471 661 482 q 619 460 638 460 l 218 460 l 218 82 l 682 82 m 269 1094 q 229 1129 229 1094 q 269 1165 229 1165 l 624 1165 q 664 1129 664 1165 q 624 1094 664 1094 l 269 1094 m 446 1250 q 426 1257 433 1250 q 419 1275 419 1264 q 433 1300 419 1286 l 557 1396 q 597 1411 575 1411 q 627 1399 615 1411 q 639 1369 639 1388 q 613 1326 639 1342 l 476 1258 q 446 1250 457 1250 z "},"Ḕ":{"ha":789,"x_min":131,"x_max":724,"o":"m 682 82 q 712 69 700 82 q 724 40 724 57 q 712 11 724 22 q 682 0 700 0 l 172 0 q 142 12 154 0 q 131 42 131 24 l 131 931 q 142 960 131 949 q 172 972 154 972 l 682 972 q 712 960 700 972 q 724 931 724 949 q 712 901 724 913 q 682 890 700 890 l 218 890 l 218 542 l 619 542 q 649 530 638 542 q 661 500 661 518 q 649 471 661 482 q 619 460 638 460 l 218 460 l 218 82 l 682 82 m 269 1094 q 229 1129 229 1094 q 269 1165 229 1165 l 624 1165 q 664 1129 664 1165 q 624 1094 664 1094 l 269 1094 m 442 1251 q 411 1260 431 1251 l 276 1328 q 249 1371 249 1343 q 260 1401 249 1389 q 290 1413 272 1413 q 331 1397 313 1413 l 454 1301 q 468 1276 468 1288 q 461 1258 468 1265 q 442 1251 454 1251 z "},"Ę":{"ha":804,"x_min":131,"x_max":729,"o":"m 700 -157 q 722 -165 714 -157 q 729 -187 729 -174 q 695 -242 729 -218 q 614 -265 661 -265 q 520 -228 560 -265 q 481 -132 481 -192 q 557 0 481 -54 l 172 0 q 142 12 154 0 q 131 42 131 24 l 131 931 q 142 960 131 949 q 172 972 154 972 l 682 972 q 712 960 700 972 q 724 931 724 949 q 712 903 724 914 q 682 892 700 892 l 218 892 l 218 542 l 619 542 q 649 530 638 542 q 661 500 661 518 q 649 472 661 483 q 619 460 638 460 l 218 460 l 218 82 l 682 82 q 712 70 700 82 q 724 40 724 58 q 676 -1 724 6 q 593 -40 631 -7 q 556 -115 556 -74 q 576 -173 556 -151 q 624 -194 596 -194 q 664 -178 654 -194 q 700 -157 679 -157 z "},"Ẽ":{"ha":789,"x_min":131,"x_max":724,"o":"m 682 82 q 712 69 700 82 q 724 40 724 57 q 712 11 724 22 q 682 0 700 0 l 172 0 q 142 12 154 0 q 131 42 131 24 l 131 931 q 142 960 131 949 q 172 972 154 972 l 682 972 q 712 960 700 972 q 724 931 724 949 q 712 901 724 913 q 682 890 700 890 l 218 890 l 218 542 l 619 542 q 649 530 638 542 q 661 500 661 518 q 649 471 661 482 q 619 460 638 460 l 218 460 l 218 82 l 682 82 m 263 1071 q 238 1082 247 1071 q 229 1115 229 1093 q 231 1132 229 1126 q 274 1200 240 1175 q 351 1225 307 1225 q 403 1213 376 1225 q 465 1179 431 1201 q 513 1153 496 1161 q 544 1144 531 1144 q 576 1159 564 1144 q 590 1199 588 1174 q 597 1224 589 1214 q 621 1235 606 1235 q 647 1223 638 1235 q 656 1190 656 1211 l 654 1175 q 616 1103 646 1129 q 542 1076 586 1076 q 431 1121 503 1076 q 381 1147 399 1139 q 347 1156 363 1156 q 313 1142 328 1156 q 293 1101 299 1129 q 284 1078 293 1086 q 263 1071 275 1071 z "},"F":{"ha":786,"x_min":131,"x_max":719,"o":"m 678 972 q 708 960 696 972 q 719 931 719 949 q 708 902 719 914 q 678 890 696 890 l 215 890 l 215 542 l 615 542 q 645 531 633 542 q 657 501 657 519 q 645 472 657 483 q 615 461 633 461 l 215 461 l 215 42 q 203 12 215 24 q 174 0 192 0 q 142 12 154 0 q 131 42 131 24 l 131 931 q 142 960 131 949 q 172 972 154 972 l 678 972 z "},"G":{"ha":965,"x_min":67,"x_max":882,"o":"m 840 490 q 870 478 858 490 q 882 449 882 467 l 882 114 q 861 76 882 90 q 722 10 799 33 q 567 -14 646 -14 q 311 51 425 -14 q 132 231 197 117 q 67 486 67 344 q 132 742 67 628 q 311 921 197 856 q 567 986 425 986 q 709 968 640 986 q 832 917 778 950 q 851 882 851 904 q 840 851 851 864 q 813 839 828 839 q 788 846 799 839 q 567 903 683 903 q 355 849 449 903 q 208 699 261 794 q 156 486 156 604 q 208 273 156 368 q 355 124 261 178 q 567 69 449 69 q 687 86 626 69 q 794 132 747 103 l 794 407 l 575 407 q 544 419 557 407 q 532 449 532 431 q 544 478 532 467 q 575 490 557 490 l 840 490 z "},"Ğ":{"ha":965,"x_min":67,"x_max":882,"o":"m 840 490 q 870 478 858 490 q 882 449 882 467 l 882 114 q 861 76 882 90 q 722 10 799 33 q 567 -14 646 -14 q 311 51 425 -14 q 132 231 197 117 q 67 486 67 344 q 132 742 67 628 q 311 921 197 856 q 567 986 425 986 q 709 968 640 986 q 832 917 778 950 q 851 882 851 904 q 840 851 851 864 q 813 839 828 839 q 788 846 799 839 q 567 903 683 903 q 355 849 449 903 q 208 699 261 794 q 156 486 156 604 q 208 273 156 368 q 355 124 261 178 q 567 69 449 69 q 687 86 626 69 q 794 132 747 103 l 794 407 l 575 407 q 544 419 557 407 q 532 449 532 431 q 544 478 532 467 q 575 490 557 490 l 840 490 m 528 1075 q 406 1112 456 1075 q 338 1215 357 1149 q 335 1231 335 1226 q 342 1250 335 1243 q 364 1257 350 1257 q 387 1251 379 1257 q 406 1226 394 1244 q 528 1146 442 1146 q 650 1226 615 1146 q 667 1249 657 1242 q 692 1256 676 1256 q 721 1232 721 1256 q 718 1215 721 1226 q 649 1112 699 1149 q 528 1075 600 1075 z "},"Ǧ":{"ha":965,"x_min":67,"x_max":882,"o":"m 840 490 q 870 478 858 490 q 882 449 882 467 l 882 114 q 861 76 882 90 q 722 10 799 33 q 567 -14 646 -14 q 311 51 425 -14 q 132 231 197 117 q 67 486 67 344 q 132 742 67 628 q 311 921 197 856 q 567 986 425 986 q 709 968 640 986 q 832 917 778 950 q 851 882 851 904 q 840 851 851 864 q 813 839 828 839 q 788 846 799 839 q 567 903 683 903 q 355 849 449 903 q 208 699 261 794 q 156 486 156 604 q 208 273 156 368 q 355 124 261 178 q 567 69 449 69 q 687 86 626 69 q 794 132 747 103 l 794 407 l 575 407 q 544 419 557 407 q 532 449 532 431 q 544 478 532 467 q 575 490 557 490 l 840 490 m 675 1229 q 692 1223 685 1229 q 699 1208 699 1217 q 688 1185 699 1197 l 581 1071 q 535 1047 565 1047 l 519 1047 q 472 1071 490 1047 l 367 1183 q 356 1207 356 1196 q 362 1222 356 1215 q 378 1228 368 1228 q 415 1211 394 1228 l 531 1125 l 638 1211 q 675 1229 660 1229 z "},"Ĝ":{"ha":965,"x_min":67,"x_max":882,"o":"m 840 490 q 870 478 858 490 q 882 449 882 467 l 882 114 q 861 76 882 90 q 722 10 799 33 q 567 -14 646 -14 q 311 51 425 -14 q 132 231 197 117 q 67 486 67 344 q 132 742 67 628 q 311 921 197 856 q 567 986 425 986 q 709 968 640 986 q 832 917 778 950 q 851 882 851 904 q 840 851 851 864 q 813 839 828 839 q 788 846 799 839 q 567 903 683 903 q 355 849 449 903 q 208 699 261 794 q 156 486 156 604 q 208 273 156 368 q 355 124 261 178 q 567 69 449 69 q 687 86 626 69 q 794 132 747 103 l 794 407 l 575 407 q 544 419 557 407 q 532 449 532 431 q 544 478 532 467 q 575 490 557 490 l 840 490 m 686 1103 q 697 1079 697 1090 q 690 1065 697 1072 q 675 1058 683 1058 q 638 1076 660 1058 l 522 1160 l 415 1075 q 378 1057 390 1057 q 361 1063 368 1057 q 354 1078 354 1069 q 365 1101 354 1089 l 472 1215 q 493 1233 483 1228 q 518 1239 503 1239 l 533 1239 q 558 1233 549 1239 q 581 1215 568 1228 l 686 1103 z "},"Ģ":{"ha":965,"x_min":67,"x_max":882,"o":"m 840 490 q 870 478 858 490 q 882 449 882 467 l 882 114 q 861 76 882 90 q 722 10 799 33 q 567 -14 646 -14 q 311 51 425 -14 q 132 231 197 117 q 67 486 67 344 q 132 742 67 628 q 311 921 197 856 q 567 986 425 986 q 709 968 640 986 q 832 917 778 950 q 851 882 851 904 q 840 851 851 864 q 813 839 828 839 q 788 846 799 839 q 567 903 683 903 q 355 849 449 903 q 208 699 261 794 q 156 486 156 604 q 208 273 156 368 q 355 124 261 178 q 567 69 449 69 q 687 86 626 69 q 794 132 747 103 l 794 407 l 575 407 q 544 419 557 407 q 532 449 532 431 q 544 478 532 467 q 575 490 557 490 l 840 490 m 626 -149 q 594 -223 626 -192 q 519 -254 561 -254 q 471 -226 471 -254 q 477 -208 471 -215 q 492 -201 483 -201 q 504 -203 496 -201 q 519 -206 513 -206 q 532 -204 528 -206 q 551 -192 543 -203 q 558 -161 558 -181 q 544 -143 558 -143 q 531 -149 539 -143 q 514 -156 524 -156 q 488 -144 497 -156 q 478 -117 478 -132 q 497 -79 478 -93 q 550 -65 517 -65 q 605 -87 583 -65 q 626 -149 626 -108 z "},"Ġ":{"ha":965,"x_min":67,"x_max":882,"o":"m 840 490 q 870 478 858 490 q 882 449 882 467 l 882 114 q 861 76 882 90 q 722 10 799 33 q 567 -14 646 -14 q 311 51 425 -14 q 132 231 197 117 q 67 486 67 344 q 132 742 67 628 q 311 921 197 856 q 567 986 425 986 q 709 968 640 986 q 832 917 778 950 q 851 882 851 904 q 840 851 851 864 q 813 839 828 839 q 788 846 799 839 q 567 903 683 903 q 355 849 449 903 q 208 699 261 794 q 156 486 156 604 q 208 273 156 368 q 355 124 261 178 q 567 69 449 69 q 687 86 626 69 q 794 132 747 103 l 794 407 l 575 407 q 544 419 557 407 q 532 449 532 431 q 544 478 532 467 q 575 490 557 490 l 840 490 m 528 1069 q 485 1084 500 1069 q 469 1125 469 1099 l 469 1139 q 485 1180 469 1165 q 529 1194 501 1194 q 585 1139 585 1194 l 585 1125 q 570 1084 585 1099 q 528 1069 556 1069 z "},"Ḡ":{"ha":965,"x_min":67,"x_max":882,"o":"m 840 490 q 870 478 858 490 q 882 449 882 467 l 882 114 q 861 76 882 90 q 722 10 799 33 q 567 -14 646 -14 q 311 51 425 -14 q 132 231 197 117 q 67 486 67 344 q 132 742 67 628 q 311 921 197 856 q 567 986 425 986 q 709 968 640 986 q 832 917 778 950 q 851 882 851 904 q 840 851 851 864 q 813 839 828 839 q 788 846 799 839 q 567 903 683 903 q 355 849 449 903 q 208 699 261 794 q 156 486 156 604 q 208 273 156 368 q 355 124 261 178 q 567 69 449 69 q 687 86 626 69 q 794 132 747 103 l 794 407 l 575 407 q 544 419 557 407 q 532 449 532 431 q 544 478 532 467 q 575 490 557 490 l 840 490 m 356 1094 q 315 1129 315 1094 q 356 1165 315 1165 l 710 1165 q 750 1129 750 1165 q 710 1094 750 1094 l 356 1094 z "},"H":{"ha":1000,"x_min":131,"x_max":869,"o":"m 826 972 q 858 960 846 972 q 869 929 869 949 l 869 43 q 856 12 868 24 q 825 0 843 0 q 794 13 807 0 q 782 43 782 25 l 782 457 l 218 457 l 218 43 q 204 13 217 25 q 174 0 192 0 q 142 12 154 0 q 131 43 131 24 l 131 929 q 143 960 131 949 q 175 972 156 972 q 206 960 193 972 q 218 929 218 947 l 218 538 l 782 538 l 782 929 q 795 960 782 947 q 826 972 808 972 z "},"Ħ":{"ha":1156,"x_min":118,"x_max":1038,"o":"m 999 756 q 1026 744 1015 756 q 1038 718 1038 733 q 1026 690 1038 701 q 999 679 1015 679 l 947 679 l 947 43 q 933 12 946 24 q 903 0 921 0 q 872 13 885 0 q 860 43 860 25 l 860 457 l 296 457 l 296 43 q 282 13 294 25 q 251 0 269 0 q 220 12 232 0 q 208 43 208 24 l 208 679 l 157 679 q 129 690 140 679 q 118 718 118 701 q 129 745 118 735 q 157 756 140 756 l 208 756 l 208 929 q 221 960 208 949 q 253 972 233 972 q 283 960 271 972 q 296 929 296 947 l 296 756 l 860 756 l 860 929 q 873 960 860 947 q 904 972 886 972 q 935 960 924 972 q 947 929 947 949 l 947 756 l 999 756 m 860 538 l 860 679 l 296 679 l 296 538 l 860 538 z "},"Ḫ":{"ha":1000,"x_min":131,"x_max":869,"o":"m 826 972 q 858 960 846 972 q 869 929 869 949 l 869 43 q 856 12 868 24 q 825 0 843 0 q 794 13 807 0 q 782 43 782 25 l 782 457 l 218 457 l 218 43 q 204 13 217 25 q 174 0 192 0 q 142 12 154 0 q 131 43 131 24 l 131 929 q 143 960 131 949 q 175 972 156 972 q 206 960 193 972 q 218 929 218 947 l 218 538 l 782 538 l 782 929 q 795 960 782 947 q 826 972 808 972 m 501 -210 q 378 -160 431 -210 q 319 -42 326 -111 q 326 -15 317 -26 q 350 -4 335 -4 q 376 -12 367 -4 q 393 -37 386 -21 q 431 -113 401 -86 q 501 -140 460 -140 q 571 -112 542 -140 q 610 -37 600 -85 q 626 -12 617 -21 q 651 -4 636 -4 q 676 -15 667 -4 q 682 -42 685 -26 q 624 -160 675 -111 q 501 -210 572 -210 z "},"Ĥ":{"ha":1000,"x_min":131,"x_max":869,"o":"m 826 972 q 858 960 846 972 q 869 929 869 949 l 869 43 q 856 12 868 24 q 825 0 843 0 q 794 13 807 0 q 782 43 782 25 l 782 457 l 218 457 l 218 43 q 204 13 217 25 q 174 0 192 0 q 142 12 154 0 q 131 43 131 24 l 131 929 q 143 960 131 949 q 175 972 156 972 q 206 960 193 972 q 218 929 218 947 l 218 538 l 782 538 l 782 929 q 795 960 782 947 q 826 972 808 972 m 658 1103 q 669 1079 669 1090 q 663 1065 669 1072 q 647 1058 656 1058 q 610 1076 632 1058 l 494 1160 l 388 1075 q 350 1057 363 1057 q 333 1063 340 1057 q 326 1078 326 1069 q 338 1101 326 1089 l 444 1215 q 465 1233 456 1228 q 490 1239 475 1239 l 506 1239 q 531 1233 521 1239 q 553 1215 540 1228 l 658 1103 z "},"Ḥ":{"ha":1000,"x_min":131,"x_max":869,"o":"m 826 972 q 858 960 846 972 q 869 929 869 949 l 869 43 q 856 12 868 24 q 825 0 843 0 q 794 13 807 0 q 782 43 782 25 l 782 457 l 218 457 l 218 43 q 204 13 217 25 q 174 0 192 0 q 142 12 154 0 q 131 43 131 24 l 131 929 q 143 960 131 949 q 175 972 156 972 q 206 960 193 972 q 218 929 218 947 l 218 538 l 782 538 l 782 929 q 795 960 782 947 q 826 972 808 972 m 500 -194 q 457 -180 472 -194 q 442 -139 442 -165 l 442 -124 q 458 -84 442 -99 q 500 -69 474 -69 q 557 -124 557 -69 l 557 -139 q 542 -180 557 -165 q 500 -194 528 -194 z "},"I":{"ha":347,"x_min":131,"x_max":218,"o":"m 218 43 q 204 13 217 25 q 174 0 192 0 q 142 12 154 0 q 131 43 131 24 l 131 929 q 143 960 131 949 q 175 972 156 972 q 206 960 193 972 q 218 929 218 947 l 218 43 z "},"Ĳ":{"ha":832,"x_min":131,"x_max":703,"o":"m 400 -14 q 244 34 314 -14 q 138 163 175 82 q 131 185 131 174 q 144 213 131 201 q 172 224 157 224 q 211 200 194 224 q 288 105 238 140 q 400 69 338 69 q 556 128 496 69 q 615 283 615 188 l 615 931 q 628 960 615 949 q 660 972 640 972 q 691 960 679 972 q 703 931 703 949 l 703 283 q 664 131 703 199 q 556 24 625 63 q 400 -14 488 -14 m 236 371 q 222 340 235 353 q 193 328 210 328 q 161 340 174 328 q 149 371 149 351 l 149 929 q 161 960 149 947 q 193 972 174 972 q 224 960 211 972 q 236 929 236 947 l 236 371 z "},"Í":{"ha":347,"x_min":131,"x_max":372,"o":"m 218 43 q 204 13 217 25 q 174 0 192 0 q 142 12 154 0 q 131 43 131 24 l 131 929 q 143 960 131 949 q 175 972 156 972 q 206 960 193 972 q 218 929 218 947 l 218 43 m 179 1036 q 160 1043 167 1036 q 153 1061 153 1050 q 167 1086 153 1072 l 290 1182 q 331 1197 308 1197 q 360 1185 349 1197 q 372 1156 372 1174 q 346 1113 372 1128 l 210 1044 q 179 1036 190 1036 z "},"Ĭ":{"ha":347,"x_min":-18,"x_max":368,"o":"m 218 43 q 204 13 217 25 q 174 0 192 0 q 142 12 154 0 q 131 43 131 24 l 131 929 q 143 960 131 949 q 175 972 156 972 q 206 960 193 972 q 218 929 218 947 l 218 43 m 175 1075 q 53 1112 103 1075 q -15 1215 4 1149 q -18 1231 -18 1226 q -10 1250 -18 1243 q 11 1257 -3 1257 q 34 1251 26 1257 q 53 1226 42 1244 q 175 1146 89 1146 q 297 1226 263 1146 q 314 1249 304 1242 q 339 1256 324 1256 q 368 1232 368 1256 q 365 1215 368 1226 q 297 1112 346 1149 q 175 1075 247 1075 z "},"Ǐ":{"ha":347,"x_min":3,"x_max":346,"o":"m 218 43 q 204 13 217 25 q 174 0 192 0 q 142 12 154 0 q 131 43 131 24 l 131 929 q 143 960 131 949 q 175 972 156 972 q 206 960 193 972 q 218 929 218 947 l 218 43 m 322 1229 q 339 1223 332 1229 q 346 1208 346 1217 q 335 1185 346 1197 l 228 1071 q 182 1047 213 1047 l 167 1047 q 119 1071 138 1047 l 14 1183 q 3 1207 3 1196 q 9 1222 3 1215 q 25 1228 15 1228 q 63 1211 42 1228 l 178 1125 l 285 1211 q 322 1229 307 1229 z "},"Î":{"ha":347,"x_min":1,"x_max":344,"o":"m 218 43 q 204 13 217 25 q 174 0 192 0 q 142 12 154 0 q 131 43 131 24 l 131 929 q 143 960 131 949 q 175 972 156 972 q 206 960 193 972 q 218 929 218 947 l 218 43 m 333 1103 q 344 1079 344 1090 q 338 1065 344 1072 q 322 1058 331 1058 q 285 1076 307 1058 l 169 1160 l 63 1075 q 25 1057 38 1057 q 8 1063 15 1057 q 1 1078 1 1069 q 13 1101 1 1089 l 119 1215 q 140 1233 131 1228 q 165 1239 150 1239 l 181 1239 q 206 1233 196 1239 q 228 1215 215 1228 l 333 1103 z "},"Ȉ":{"ha":347,"x_min":-86,"x_max":367,"o":"m 218 43 q 204 13 217 25 q 174 0 192 0 q 142 12 154 0 q 131 43 131 24 l 131 929 q 143 960 131 949 q 175 972 156 972 q 206 960 193 972 q 218 929 218 947 l 218 43 m 107 1049 q 88 1053 97 1049 q 76 1058 79 1057 l -58 1125 q -86 1169 -86 1140 q -74 1199 -86 1186 q -44 1211 -62 1211 q -4 1194 -24 1211 l 119 1099 q 133 1074 133 1088 q 126 1056 133 1064 q 107 1049 119 1049 m 340 1049 q 310 1057 329 1049 l 174 1125 q 147 1168 147 1140 q 159 1198 147 1186 q 189 1210 171 1210 q 229 1194 211 1210 l 353 1099 q 367 1074 367 1085 q 360 1056 367 1063 q 340 1049 353 1049 z "},"Ï":{"ha":347,"x_min":-1,"x_max":353,"o":"m 218 43 q 204 13 217 25 q 174 0 192 0 q 142 12 154 0 q 131 43 131 24 l 131 929 q 143 960 131 949 q 175 972 156 972 q 206 960 193 972 q 218 929 218 947 l 218 43 m 56 1076 q 14 1091 29 1076 q -1 1132 -1 1106 l -1 1146 q 15 1187 -1 1172 q 57 1201 31 1201 q 99 1187 83 1201 q 114 1146 114 1172 l 114 1132 q 99 1091 114 1106 q 56 1076 83 1076 m 294 1076 q 253 1091 268 1076 q 238 1132 238 1106 l 238 1146 q 253 1187 238 1172 q 296 1201 268 1201 q 338 1187 322 1201 q 353 1146 353 1172 l 353 1132 q 338 1091 353 1106 q 294 1076 322 1076 z "},"Ḯ":{"ha":347,"x_min":-1,"x_max":372,"o":"m 218 43 q 204 13 217 25 q 174 0 192 0 q 142 12 154 0 q 131 43 131 24 l 131 929 q 143 960 131 949 q 175 972 156 972 q 206 960 193 972 q 218 929 218 947 l 218 43 m 56 1076 q 14 1091 29 1076 q -1 1132 -1 1106 l -1 1146 q 15 1187 -1 1172 q 57 1201 31 1201 q 99 1187 83 1201 q 114 1146 114 1172 l 114 1132 q 99 1091 114 1106 q 56 1076 83 1076 m 294 1076 q 253 1091 268 1076 q 238 1132 238 1106 l 238 1146 q 253 1187 238 1172 q 296 1201 268 1201 q 338 1187 322 1201 q 353 1146 353 1172 l 353 1132 q 338 1091 353 1106 q 294 1076 322 1076 m 179 1272 q 160 1279 167 1272 q 153 1297 153 1286 q 167 1322 153 1308 l 290 1418 q 331 1433 308 1433 q 360 1422 349 1433 q 372 1392 372 1410 q 346 1349 372 1364 l 210 1281 q 179 1272 190 1272 z "},"İ":{"ha":347,"x_min":117,"x_max":232,"o":"m 218 43 q 204 13 217 25 q 174 0 192 0 q 142 12 154 0 q 131 43 131 24 l 131 929 q 143 960 131 949 q 175 972 156 972 q 206 960 193 972 q 218 929 218 947 l 218 43 m 175 1069 q 132 1084 147 1069 q 117 1125 117 1099 l 117 1139 q 133 1180 117 1165 q 176 1194 149 1194 q 232 1139 232 1194 l 232 1125 q 217 1084 232 1099 q 175 1069 203 1069 z "},"Ị":{"ha":347,"x_min":117,"x_max":232,"o":"m 218 43 q 204 13 217 25 q 174 0 192 0 q 142 12 154 0 q 131 43 131 24 l 131 929 q 143 960 131 949 q 175 972 156 972 q 206 960 193 972 q 218 929 218 947 l 218 43 m 175 -194 q 132 -180 147 -194 q 117 -139 117 -165 l 117 -124 q 133 -84 117 -99 q 175 -69 149 -69 q 232 -124 232 -69 l 232 -139 q 217 -180 232 -165 q 175 -194 203 -194 z "},"Ì":{"ha":347,"x_min":-18,"x_max":218,"o":"m 218 43 q 204 13 217 25 q 174 0 192 0 q 142 12 154 0 q 131 43 131 24 l 131 929 q 143 960 131 949 q 175 972 156 972 q 206 960 193 972 q 218 929 218 947 l 218 43 m 175 1038 q 144 1046 164 1038 l 10 1114 q -18 1157 -18 1129 q -6 1187 -18 1175 q 24 1199 6 1199 q 64 1183 46 1199 l 188 1088 q 201 1063 201 1074 q 194 1044 201 1051 q 175 1038 188 1038 z "},"Ỉ":{"ha":347,"x_min":56,"x_max":285,"o":"m 218 43 q 204 13 217 25 q 174 0 192 0 q 142 12 154 0 q 131 43 131 24 l 131 929 q 143 960 131 949 q 175 972 156 972 q 206 960 193 972 q 218 929 218 947 l 218 43 m 68 1254 q 171 1297 114 1297 q 258 1265 231 1297 q 285 1194 285 1233 q 273 1153 285 1172 q 238 1111 261 1135 q 221 1074 221 1092 q 211 1057 219 1063 q 189 1051 203 1051 q 170 1058 178 1051 q 163 1075 163 1065 q 182 1131 163 1108 q 214 1167 206 1156 q 222 1193 222 1178 q 208 1223 222 1211 q 172 1235 193 1235 q 108 1210 142 1235 q 85 1199 97 1199 q 63 1210 74 1199 q 56 1229 56 1219 q 68 1254 56 1242 z "},"Ȋ":{"ha":347,"x_min":-10,"x_max":356,"o":"m 218 43 q 204 13 217 25 q 174 0 192 0 q 142 12 154 0 q 131 43 131 24 l 131 929 q 143 960 131 949 q 175 972 156 972 q 206 960 193 972 q 218 929 218 947 l 218 43 m 174 1201 q 296 1162 244 1201 q 354 1065 347 1122 q 348 1039 357 1050 q 324 1028 339 1028 q 299 1036 308 1028 q 282 1061 289 1044 q 243 1113 272 1094 q 174 1132 214 1132 q 103 1113 132 1132 q 65 1061 74 1094 q 49 1036 58 1044 q 22 1028 39 1028 q -2 1038 7 1028 q -8 1064 -11 1049 q 50 1162 -1 1122 q 174 1201 101 1201 z "},"Ī":{"ha":347,"x_min":-37,"x_max":397,"o":"m 218 43 q 204 13 217 25 q 174 0 192 0 q 142 12 154 0 q 131 43 131 24 l 131 929 q 143 960 131 949 q 175 972 156 972 q 206 960 193 972 q 218 929 218 947 l 218 43 m 3 1094 q -37 1129 -37 1094 q 3 1165 -37 1165 l 357 1165 q 397 1129 397 1165 q 357 1094 397 1094 l 3 1094 z "},"Į":{"ha":326,"x_min":0,"x_max":0,"o":""},"Ĩ":{"ha":347,"x_min":-37,"x_max":389,"o":"m 218 43 q 204 13 217 25 q 174 0 192 0 q 142 12 154 0 q 131 43 131 24 l 131 929 q 143 960 131 949 q 175 972 156 972 q 206 960 193 972 q 218 929 218 947 l 218 43 m -4 1071 q -28 1082 -19 1071 q -37 1115 -37 1093 q -36 1132 -37 1126 q 7 1200 -26 1175 q 85 1225 40 1225 q 137 1213 110 1225 q 199 1179 164 1201 q 247 1153 229 1161 q 278 1144 264 1144 q 309 1159 297 1144 q 324 1199 321 1174 q 331 1224 322 1214 q 354 1235 339 1235 q 380 1223 371 1235 q 389 1190 389 1211 l 388 1175 q 349 1103 379 1129 q 275 1076 319 1076 q 164 1121 236 1076 q 114 1147 132 1139 q 81 1156 96 1156 q 47 1142 61 1156 q 26 1101 32 1129 q 17 1078 26 1086 q -4 1071 8 1071 z "},"J":{"ha":794,"x_min":92,"x_max":664,"o":"m 361 -14 q 206 34 275 -14 q 99 163 136 82 q 92 185 92 174 q 105 213 92 201 q 133 224 118 224 q 172 200 156 224 q 249 105 199 140 q 361 69 299 69 q 517 128 457 69 q 576 283 576 188 l 576 931 q 589 960 576 949 q 621 972 601 972 q 652 960 640 972 q 664 931 664 949 l 664 283 q 625 131 664 199 q 517 24 586 63 q 361 -14 449 -14 z "},"Ĵ":{"ha":794,"x_min":92,"x_max":790,"o":"m 361 -14 q 206 34 275 -14 q 99 163 136 82 q 92 185 92 174 q 105 213 92 201 q 133 224 118 224 q 172 200 156 224 q 249 105 199 140 q 361 69 299 69 q 517 128 457 69 q 576 283 576 188 l 576 931 q 589 960 576 949 q 621 972 601 972 q 652 960 640 972 q 664 931 664 949 l 664 283 q 625 131 664 199 q 517 24 586 63 q 361 -14 449 -14 m 779 1103 q 790 1079 790 1090 q 783 1065 790 1072 q 768 1058 776 1058 q 731 1076 753 1058 l 615 1160 l 508 1075 q 471 1057 483 1057 q 454 1063 461 1057 q 447 1078 447 1069 q 458 1101 447 1089 l 565 1215 q 586 1233 576 1228 q 611 1239 596 1239 l 626 1239 q 651 1233 642 1239 q 674 1215 661 1228 l 779 1103 z "},"K":{"ha":938,"x_min":131,"x_max":872,"o":"m 863 68 q 872 39 872 54 q 858 6 872 18 q 825 -6 843 -6 q 794 10 807 -6 l 407 497 l 218 319 l 218 43 q 204 12 217 24 q 174 0 192 0 q 142 12 154 0 q 131 43 131 24 l 131 929 q 143 960 131 949 q 175 972 156 972 q 206 960 194 972 q 218 929 218 949 l 218 425 l 779 956 q 810 969 792 969 q 838 957 826 969 q 850 929 850 944 q 838 900 850 913 l 474 560 l 863 68 z "},"Ķ":{"ha":938,"x_min":131,"x_max":872,"o":"m 863 68 q 872 39 872 54 q 858 6 872 18 q 825 -6 843 -6 q 794 10 807 -6 l 407 497 l 218 319 l 218 43 q 204 12 217 24 q 174 0 192 0 q 142 12 154 0 q 131 43 131 24 l 131 929 q 143 960 131 949 q 175 972 156 972 q 206 960 194 972 q 218 929 218 949 l 218 425 l 779 956 q 810 969 792 969 q 838 957 826 969 q 850 929 850 944 q 838 900 850 913 l 474 560 l 863 68 m 508 -149 q 476 -223 508 -192 q 401 -254 443 -254 q 353 -226 353 -254 q 359 -208 353 -215 q 374 -201 365 -201 q 386 -203 378 -201 q 401 -206 394 -206 q 414 -204 410 -206 q 433 -192 425 -203 q 440 -161 440 -181 q 426 -143 440 -143 q 413 -149 421 -143 q 396 -156 406 -156 q 369 -144 379 -156 q 360 -117 360 -132 q 379 -79 360 -93 q 432 -65 399 -65 q 487 -87 465 -65 q 508 -149 508 -108 z "},"L":{"ha":739,"x_min":131,"x_max":710,"o":"m 668 82 q 698 71 686 82 q 710 42 710 60 q 698 12 710 24 q 668 0 686 0 l 172 0 q 142 12 154 0 q 131 42 131 24 l 131 931 q 143 960 131 949 q 175 972 156 972 q 206 960 193 972 q 218 931 218 949 l 218 82 l 668 82 z "},"Ǉ":{"ha":1533,"x_min":131,"x_max":1403,"o":"m 668 82 q 698 71 686 82 q 710 42 710 60 q 698 12 710 24 q 668 0 686 0 l 172 0 q 142 12 154 0 q 131 42 131 24 l 131 931 q 143 960 131 949 q 175 972 156 972 q 206 960 193 972 q 218 931 218 949 l 218 82 l 668 82 m 1100 -14 q 944 34 1014 -14 q 838 163 875 82 q 831 185 831 174 q 844 213 831 201 q 872 224 857 224 q 911 200 894 224 q 988 105 938 140 q 1100 69 1038 69 q 1256 128 1196 69 q 1315 283 1315 188 l 1315 931 q 1328 960 1315 949 q 1360 972 1340 972 q 1391 960 1379 972 q 1403 931 1403 949 l 1403 283 q 1364 131 1403 199 q 1256 24 1325 63 q 1100 -14 1188 -14 z "},"Ĺ":{"ha":739,"x_min":131,"x_max":710,"o":"m 668 82 q 698 71 686 82 q 710 42 710 60 q 698 12 710 24 q 668 0 686 0 l 172 0 q 142 12 154 0 q 131 42 131 24 l 131 931 q 143 960 131 949 q 175 972 156 972 q 206 960 193 972 q 218 931 218 949 l 218 82 l 668 82 m 165 1036 q 146 1043 153 1036 q 139 1061 139 1050 q 153 1086 139 1072 l 276 1182 q 317 1197 294 1197 q 347 1185 335 1197 q 358 1156 358 1174 q 332 1113 358 1128 l 196 1044 q 165 1036 176 1036 z "},"Ľ":{"ha":740,"x_min":131,"x_max":711,"o":"m 668 83 q 698 72 686 83 q 710 42 710 60 q 698 12 710 24 q 668 0 686 0 l 172 0 q 142 12 154 0 q 131 42 131 24 l 131 931 q 142 960 131 949 q 172 972 154 972 q 202 960 190 972 q 214 931 214 949 l 214 92 q 222 83 214 83 l 668 83 m 711 885 q 691 806 711 846 q 640 741 671 767 q 581 715 610 715 q 555 723 565 715 q 544 746 544 731 q 551 765 544 760 q 573 775 558 771 q 594 783 588 779 q 624 812 614 793 q 635 853 635 831 q 626 878 635 868 q 604 888 618 888 q 567 875 582 888 q 550 908 550 889 q 575 952 550 933 q 629 971 600 971 q 688 948 665 971 q 711 885 711 925 z "},"Ļ":{"ha":739,"x_min":131,"x_max":710,"o":"m 668 82 q 698 71 686 82 q 710 42 710 60 q 698 12 710 24 q 668 0 686 0 l 172 0 q 142 12 154 0 q 131 42 131 24 l 131 931 q 143 960 131 949 q 175 972 156 972 q 206 960 193 972 q 218 931 218 949 l 218 82 l 668 82 m 478 -149 q 445 -223 478 -192 q 371 -254 413 -254 q 322 -226 322 -254 q 328 -208 322 -215 q 343 -201 335 -201 q 356 -203 347 -201 q 371 -206 364 -206 q 383 -204 379 -206 q 402 -192 394 -203 q 410 -161 410 -181 q 396 -143 410 -143 q 383 -149 390 -143 q 365 -156 375 -156 q 339 -144 349 -156 q 329 -117 329 -132 q 349 -79 329 -93 q 401 -65 368 -65 q 456 -87 435 -65 q 478 -149 478 -108 z "},"Ŀ":{"ha":747,"x_min":131,"x_max":710,"o":"m 668 82 q 698 71 686 82 q 710 42 710 60 q 698 12 710 24 q 668 0 686 0 l 172 0 q 142 12 154 0 q 131 42 131 24 l 131 931 q 143 960 131 949 q 175 972 156 972 q 206 960 193 972 q 218 931 218 949 l 218 82 l 668 82 m 626 381 q 588 395 603 381 q 574 433 574 410 l 574 464 q 588 502 574 488 q 626 517 603 517 l 636 517 q 674 502 660 517 q 689 464 689 488 l 689 433 q 674 395 689 410 q 636 381 660 381 l 626 381 z "},"Ḷ":{"ha":739,"x_min":131,"x_max":710,"o":"m 668 82 q 698 71 686 82 q 710 42 710 60 q 698 12 710 24 q 668 0 686 0 l 172 0 q 142 12 154 0 q 131 42 131 24 l 131 931 q 143 960 131 949 q 175 972 156 972 q 206 960 193 972 q 218 931 218 949 l 218 82 l 668 82 m 396 -194 q 353 -180 368 -194 q 338 -139 338 -165 l 338 -124 q 353 -84 338 -99 q 396 -69 369 -69 q 453 -124 453 -69 l 453 -139 q 438 -180 453 -165 q 396 -194 424 -194 z "},"ǈ":{"ha":1074,"x_min":131,"x_max":965,"o":"m 668 82 q 698 71 686 82 q 710 42 710 60 q 698 12 710 24 q 668 0 686 0 l 172 0 q 142 12 154 0 q 131 42 131 24 l 131 931 q 143 960 131 949 q 175 972 156 972 q 206 960 193 972 q 218 931 218 949 l 218 82 l 668 82 m 750 -275 q 722 -264 733 -275 q 711 -236 711 -253 l 711 -231 q 721 -205 711 -215 q 747 -192 731 -194 q 833 -147 799 -182 q 867 -51 867 -111 l 867 665 q 878 695 867 683 q 908 707 890 707 q 938 695 926 707 q 950 665 950 683 l 950 -64 q 920 -176 950 -128 q 844 -249 890 -224 q 750 -275 797 -275 m 908 817 q 865 830 881 817 q 850 868 850 843 l 850 882 q 866 920 850 907 q 910 933 882 933 q 965 882 965 933 l 965 868 q 951 830 965 843 q 908 817 936 817 z "},"Ḻ":{"ha":739,"x_min":131,"x_max":710,"o":"m 668 82 q 698 71 686 82 q 710 42 710 60 q 698 12 710 24 q 668 0 686 0 l 172 0 q 142 12 154 0 q 131 42 131 24 l 131 931 q 143 960 131 949 q 175 972 156 972 q 206 960 193 972 q 218 931 218 949 l 218 82 l 668 82 m 258 -175 q 219 -140 219 -175 q 258 -106 219 -106 l 550 -106 q 589 -140 589 -106 q 550 -175 589 -175 l 258 -175 z "},"Ł":{"ha":804,"x_min":64,"x_max":775,"o":"m 733 83 q 763 72 751 83 q 775 42 775 60 q 763 12 775 24 q 733 0 751 0 l 238 0 q 208 12 219 0 q 196 42 196 24 l 196 494 l 118 460 q 101 457 113 457 q 74 468 83 457 q 64 494 64 479 q 88 529 64 518 l 196 576 l 196 931 q 208 960 196 949 q 238 972 219 972 q 267 960 256 972 q 279 931 279 949 l 279 614 l 399 667 q 418 671 410 671 q 444 658 435 671 q 454 632 454 646 q 429 597 454 608 l 279 531 l 279 83 l 733 83 z "},"M":{"ha":1149,"x_min":131,"x_max":1018,"o":"m 978 972 q 1006 960 994 972 q 1018 931 1018 949 l 1018 42 q 1006 12 1018 24 q 975 0 993 0 q 943 12 956 0 q 931 42 931 24 l 931 806 l 604 311 q 572 294 590 293 l 569 294 q 539 311 553 294 l 213 808 l 213 42 q 201 12 213 24 q 171 0 189 0 q 142 12 153 0 q 131 42 131 24 l 131 931 q 142 960 131 947 q 172 972 154 972 q 193 967 182 972 q 210 954 204 963 l 574 408 l 940 954 q 978 972 956 975 z "},"Ṃ":{"ha":1149,"x_min":131,"x_max":1018,"o":"m 978 972 q 1006 960 994 972 q 1018 931 1018 949 l 1018 42 q 1006 12 1018 24 q 975 0 993 0 q 943 12 956 0 q 931 42 931 24 l 931 806 l 604 311 q 572 294 590 293 l 569 294 q 539 311 553 294 l 213 808 l 213 42 q 201 12 213 24 q 171 0 189 0 q 142 12 153 0 q 131 42 131 24 l 131 931 q 142 960 131 947 q 172 972 154 972 q 193 967 182 972 q 210 954 204 963 l 574 408 l 940 954 q 978 972 956 975 m 575 -194 q 532 -180 547 -194 q 517 -139 517 -165 l 517 -124 q 533 -84 517 -99 q 575 -69 549 -69 q 632 -124 632 -69 l 632 -139 q 617 -180 632 -165 q 575 -194 603 -194 z "},"N":{"ha":1011,"x_min":131,"x_max":881,"o":"m 842 972 q 870 961 860 972 q 881 933 881 950 l 881 44 q 868 12 881 24 q 838 0 856 0 q 819 4 828 0 q 804 14 810 8 l 208 817 l 208 38 q 197 11 208 22 q 169 0 185 0 q 142 11 153 0 q 131 38 131 22 l 131 931 q 142 961 131 950 q 171 972 154 972 q 204 957 193 972 l 803 150 l 803 933 q 814 961 803 950 q 842 972 825 972 z "},"Ǌ":{"ha":1806,"x_min":131,"x_max":1675,"o":"m 842 972 q 870 961 860 972 q 881 933 881 950 l 881 44 q 868 12 881 24 q 838 0 856 0 q 819 4 828 0 q 804 14 810 8 l 208 817 l 208 38 q 197 11 208 22 q 169 0 185 0 q 142 11 153 0 q 131 38 131 22 l 131 931 q 142 961 131 950 q 171 972 154 972 q 204 957 193 972 l 803 150 l 803 933 q 814 961 803 950 q 842 972 825 972 m 1372 -14 q 1217 34 1286 -14 q 1110 163 1147 82 q 1103 185 1103 174 q 1116 213 1103 201 q 1144 224 1129 224 q 1183 200 1167 224 q 1260 105 1210 140 q 1372 69 1310 69 q 1528 128 1468 69 q 1588 283 1588 188 l 1588 931 q 1600 960 1588 949 q 1632 972 1613 972 q 1663 960 1651 972 q 1675 931 1675 949 l 1675 283 q 1636 131 1675 199 q 1528 24 1597 63 q 1372 -14 1460 -14 z "},"Ń":{"ha":1011,"x_min":131,"x_max":881,"o":"m 842 972 q 870 961 860 972 q 881 933 881 950 l 881 44 q 868 12 881 24 q 838 0 856 0 q 819 4 828 0 q 804 14 810 8 l 208 817 l 208 38 q 197 11 208 22 q 169 0 185 0 q 142 11 153 0 q 131 38 131 22 l 131 931 q 142 961 131 950 q 171 972 154 972 q 204 957 193 972 l 803 150 l 803 933 q 814 961 803 950 q 842 972 825 972 m 510 1036 q 490 1043 497 1036 q 483 1061 483 1050 q 497 1086 483 1072 l 621 1182 q 661 1197 639 1197 q 691 1185 679 1197 q 703 1156 703 1174 q 676 1113 703 1128 l 540 1044 q 510 1036 521 1036 z "},"Ň":{"ha":1011,"x_min":131,"x_max":881,"o":"m 842 972 q 870 961 860 972 q 881 933 881 950 l 881 44 q 868 12 881 24 q 838 0 856 0 q 819 4 828 0 q 804 14 810 8 l 208 817 l 208 38 q 197 11 208 22 q 169 0 185 0 q 142 11 153 0 q 131 38 131 22 l 131 931 q 142 961 131 950 q 171 972 154 972 q 204 957 193 972 l 803 150 l 803 933 q 814 961 803 950 q 842 972 825 972 m 653 1229 q 669 1223 663 1229 q 676 1208 676 1217 q 665 1185 676 1197 l 558 1071 q 513 1047 543 1047 l 497 1047 q 450 1071 468 1047 l 344 1183 q 333 1207 333 1196 q 340 1222 333 1215 q 356 1228 346 1228 q 393 1211 372 1228 l 508 1125 l 615 1211 q 653 1229 638 1229 z "},"Ņ":{"ha":1011,"x_min":131,"x_max":881,"o":"m 842 972 q 870 961 860 972 q 881 933 881 950 l 881 44 q 868 12 881 24 q 838 0 856 0 q 819 4 828 0 q 804 14 810 8 l 208 817 l 208 38 q 197 11 208 22 q 169 0 185 0 q 142 11 153 0 q 131 38 131 22 l 131 931 q 142 961 131 950 q 171 972 154 972 q 204 957 193 972 l 803 150 l 803 933 q 814 961 803 950 q 842 972 825 972 m 588 -149 q 555 -223 588 -192 q 481 -254 522 -254 q 432 -226 432 -254 q 438 -208 432 -215 q 453 -201 444 -201 q 465 -203 457 -201 q 481 -206 474 -206 q 493 -204 489 -206 q 512 -192 504 -203 q 519 -161 519 -181 q 506 -143 519 -143 q 492 -149 500 -143 q 475 -156 485 -156 q 449 -144 458 -156 q 439 -117 439 -132 q 458 -79 439 -93 q 511 -65 478 -65 q 566 -87 544 -65 q 588 -149 588 -108 z "},"Ṅ":{"ha":1011,"x_min":131,"x_max":881,"o":"m 842 972 q 870 961 860 972 q 881 933 881 950 l 881 44 q 868 12 881 24 q 838 0 856 0 q 819 4 828 0 q 804 14 810 8 l 208 817 l 208 38 q 197 11 208 22 q 169 0 185 0 q 142 11 153 0 q 131 38 131 22 l 131 931 q 142 961 131 950 q 171 972 154 972 q 204 957 193 972 l 803 150 l 803 933 q 814 961 803 950 q 842 972 825 972 m 506 1069 q 463 1084 478 1069 q 447 1125 447 1099 l 447 1139 q 463 1180 447 1165 q 507 1194 479 1194 q 563 1139 563 1194 l 563 1125 q 548 1084 563 1099 q 506 1069 533 1069 z "},"Ṇ":{"ha":1011,"x_min":131,"x_max":881,"o":"m 842 972 q 870 961 860 972 q 881 933 881 950 l 881 44 q 868 12 881 24 q 838 0 856 0 q 819 4 828 0 q 804 14 810 8 l 208 817 l 208 38 q 197 11 208 22 q 169 0 185 0 q 142 11 153 0 q 131 38 131 22 l 131 931 q 142 961 131 950 q 171 972 154 972 q 204 957 193 972 l 803 150 l 803 933 q 814 961 803 950 q 842 972 825 972 m 506 -194 q 463 -180 478 -194 q 447 -139 447 -165 l 447 -124 q 463 -84 447 -99 q 506 -69 479 -69 q 563 -124 563 -69 l 563 -139 q 548 -180 563 -165 q 506 -194 533 -194 z "},"Ŋ":{"ha":1039,"x_min":131,"x_max":908,"o":"m 867 968 q 897 956 885 968 q 908 926 908 944 l 908 -51 q 849 -217 908 -156 q 664 -278 790 -278 q 632 -267 644 -278 q 619 -239 619 -257 q 631 -210 619 -221 q 661 -199 643 -199 q 790 -161 756 -197 q 825 -53 824 -125 l 826 25 l 214 814 l 214 42 q 202 12 214 24 q 172 0 190 0 q 142 12 154 0 q 131 42 131 24 l 131 931 q 143 960 131 949 q 174 972 156 972 q 193 967 183 972 q 207 954 203 961 l 825 158 l 825 926 q 837 956 825 944 q 867 968 849 968 z "},"Ɲ":{"ha":1011,"x_min":-28,"x_max":881,"o":"m 842 972 q 870 961 860 972 q 881 933 881 950 l 881 44 q 868 12 881 24 q 838 0 856 0 q 819 4 828 0 q 804 14 810 8 l 210 815 l 210 -64 q 149 -215 210 -167 q 15 -275 89 -262 q -15 -265 -3 -276 q -28 -236 -28 -253 q 10 -192 -28 -199 q 96 -146 61 -181 q 131 -51 131 -111 l 131 931 q 142 961 131 950 q 171 972 154 972 q 204 957 193 972 l 801 153 l 801 933 q 813 961 801 950 q 842 972 825 972 z "},"ǋ":{"ha":1346,"x_min":131,"x_max":1238,"o":"m 842 972 q 870 961 860 972 q 881 933 881 950 l 881 44 q 868 12 881 24 q 838 0 856 0 q 819 4 828 0 q 804 14 810 8 l 208 817 l 208 38 q 197 11 208 22 q 169 0 185 0 q 142 11 153 0 q 131 38 131 22 l 131 931 q 142 961 131 950 q 171 972 154 972 q 204 957 193 972 l 803 150 l 803 933 q 814 961 803 950 q 842 972 825 972 m 1022 -275 q 994 -264 1006 -275 q 983 -236 983 -253 l 983 -231 q 993 -205 983 -215 q 1019 -192 1003 -194 q 1105 -147 1071 -182 q 1139 -51 1139 -111 l 1139 665 q 1151 695 1139 683 q 1181 707 1163 707 q 1210 695 1199 707 q 1222 665 1222 683 l 1222 -64 q 1192 -176 1222 -128 q 1116 -249 1163 -224 q 1022 -275 1069 -275 m 1181 817 q 1138 830 1153 817 q 1122 868 1122 843 l 1122 882 q 1138 920 1122 907 q 1182 933 1154 933 q 1238 882 1238 933 l 1238 868 q 1223 830 1238 843 q 1181 817 1208 817 z "},"Ṉ":{"ha":1011,"x_min":131,"x_max":881,"o":"m 842 972 q 870 961 860 972 q 881 933 881 950 l 881 44 q 868 12 881 24 q 838 0 856 0 q 819 4 828 0 q 804 14 810 8 l 208 817 l 208 38 q 197 11 208 22 q 169 0 185 0 q 142 11 153 0 q 131 38 131 22 l 131 931 q 142 961 131 950 q 171 972 154 972 q 204 957 193 972 l 803 150 l 803 933 q 814 961 803 950 q 842 972 825 972 m 368 -175 q 329 -140 329 -175 q 368 -106 329 -106 l 660 -106 q 699 -140 699 -106 q 660 -175 699 -175 l 368 -175 z "},"Ñ":{"ha":1011,"x_min":131,"x_max":881,"o":"m 842 972 q 870 961 860 972 q 881 933 881 950 l 881 44 q 868 12 881 24 q 838 0 856 0 q 819 4 828 0 q 804 14 810 8 l 208 817 l 208 38 q 197 11 208 22 q 169 0 185 0 q 142 11 153 0 q 131 38 131 22 l 131 931 q 142 961 131 950 q 171 972 154 972 q 204 957 193 972 l 803 150 l 803 933 q 814 961 803 950 q 842 972 825 972 m 326 1071 q 302 1082 311 1071 q 293 1115 293 1093 q 294 1132 293 1126 q 338 1200 304 1175 q 415 1225 371 1225 q 467 1213 440 1225 q 529 1179 494 1201 q 577 1153 560 1161 q 608 1144 594 1144 q 640 1159 628 1144 q 654 1199 651 1174 q 661 1224 653 1214 q 685 1235 669 1235 q 710 1223 701 1235 q 719 1190 719 1211 l 718 1175 q 680 1103 710 1129 q 606 1076 650 1076 q 494 1121 567 1076 q 444 1147 463 1139 q 411 1156 426 1156 q 377 1142 392 1156 q 357 1101 363 1129 q 348 1078 357 1086 q 326 1071 339 1071 z "},"O":{"ha":1064,"x_min":67,"x_max":997,"o":"m 997 486 q 938 229 997 343 q 772 51 878 115 q 532 -14 667 -14 q 292 51 397 -14 q 126 229 186 115 q 67 486 67 343 q 126 744 67 631 q 292 922 186 858 q 532 986 397 986 q 772 922 667 986 q 938 744 878 858 q 997 486 997 631 m 908 486 q 860 702 908 607 q 727 850 813 797 q 532 903 642 903 q 337 850 422 903 q 203 702 251 797 q 156 486 156 607 q 203 270 156 365 q 337 122 251 175 q 532 69 422 69 q 727 122 642 69 q 860 270 813 175 q 908 486 908 365 z "},"Ó":{"ha":1064,"x_min":67,"x_max":997,"o":"m 997 486 q 938 229 997 343 q 772 51 878 115 q 532 -14 667 -14 q 292 51 397 -14 q 126 229 186 115 q 67 486 67 343 q 126 744 67 631 q 292 922 186 858 q 532 986 397 986 q 772 922 667 986 q 938 744 878 858 q 997 486 997 631 m 908 486 q 860 702 908 607 q 727 850 813 797 q 532 903 642 903 q 337 850 422 903 q 203 702 251 797 q 156 486 156 607 q 203 270 156 365 q 337 122 251 175 q 532 69 422 69 q 727 122 642 69 q 860 270 813 175 q 908 486 908 365 m 536 1036 q 517 1043 524 1036 q 510 1061 510 1050 q 524 1086 510 1072 l 647 1182 q 688 1197 665 1197 q 717 1185 706 1197 q 729 1156 729 1174 q 703 1113 729 1128 l 567 1044 q 536 1036 547 1036 z "},"Ŏ":{"ha":1064,"x_min":67,"x_max":997,"o":"m 997 486 q 938 229 997 343 q 772 51 878 115 q 532 -14 667 -14 q 292 51 397 -14 q 126 229 186 115 q 67 486 67 343 q 126 744 67 631 q 292 922 186 858 q 532 986 397 986 q 772 922 667 986 q 938 744 878 858 q 997 486 997 631 m 908 486 q 860 702 908 607 q 727 850 813 797 q 532 903 642 903 q 337 850 422 903 q 203 702 251 797 q 156 486 156 607 q 203 270 156 365 q 337 122 251 175 q 532 69 422 69 q 727 122 642 69 q 860 270 813 175 q 908 486 908 365 m 532 1075 q 410 1112 460 1075 q 342 1215 361 1149 q 339 1231 339 1226 q 347 1250 339 1243 q 368 1257 354 1257 q 391 1251 383 1257 q 410 1226 399 1244 q 532 1146 446 1146 q 654 1226 619 1146 q 671 1249 661 1242 q 696 1256 681 1256 q 725 1232 725 1256 q 722 1215 725 1226 q 653 1112 703 1149 q 532 1075 604 1075 z "},"Ǒ":{"ha":1064,"x_min":67,"x_max":997,"o":"m 997 486 q 938 229 997 343 q 772 51 878 115 q 532 -14 667 -14 q 292 51 397 -14 q 126 229 186 115 q 67 486 67 343 q 126 744 67 631 q 292 922 186 858 q 532 986 397 986 q 772 922 667 986 q 938 744 878 858 q 997 486 997 631 m 908 486 q 860 702 908 607 q 727 850 813 797 q 532 903 642 903 q 337 850 422 903 q 203 702 251 797 q 156 486 156 607 q 203 270 156 365 q 337 122 251 175 q 532 69 422 69 q 727 122 642 69 q 860 270 813 175 q 908 486 908 365 m 679 1229 q 696 1223 689 1229 q 703 1208 703 1217 q 692 1185 703 1197 l 585 1071 q 539 1047 569 1047 l 524 1047 q 476 1071 494 1047 l 371 1183 q 360 1207 360 1196 q 366 1222 360 1215 q 382 1228 372 1228 q 419 1211 399 1228 l 535 1125 l 642 1211 q 679 1229 664 1229 z "},"Ô":{"ha":1064,"x_min":67,"x_max":997,"o":"m 997 486 q 938 229 997 343 q 772 51 878 115 q 532 -14 667 -14 q 292 51 397 -14 q 126 229 186 115 q 67 486 67 343 q 126 744 67 631 q 292 922 186 858 q 532 986 397 986 q 772 922 667 986 q 938 744 878 858 q 997 486 997 631 m 908 486 q 860 702 908 607 q 727 850 813 797 q 532 903 642 903 q 337 850 422 903 q 203 702 251 797 q 156 486 156 607 q 203 270 156 365 q 337 122 251 175 q 532 69 422 69 q 727 122 642 69 q 860 270 813 175 q 908 486 908 365 m 690 1103 q 701 1079 701 1090 q 694 1065 701 1072 q 679 1058 688 1058 q 642 1076 664 1058 l 526 1160 l 419 1075 q 382 1057 394 1057 q 365 1063 372 1057 q 358 1078 358 1069 q 369 1101 358 1089 l 476 1215 q 497 1233 488 1228 q 522 1239 507 1239 l 538 1239 q 563 1233 553 1239 q 585 1215 572 1228 l 690 1103 z "},"Ố":{"ha":1064,"x_min":67,"x_max":997,"o":"m 997 486 q 938 229 997 343 q 772 51 878 115 q 532 -14 667 -14 q 292 51 397 -14 q 126 229 186 115 q 67 486 67 343 q 126 744 67 631 q 292 922 186 858 q 532 986 397 986 q 772 922 667 986 q 938 744 878 858 q 997 486 997 631 m 908 486 q 860 702 908 607 q 727 850 813 797 q 532 903 642 903 q 337 850 422 903 q 203 702 251 797 q 156 486 156 607 q 203 270 156 365 q 337 122 251 175 q 532 69 422 69 q 727 122 642 69 q 860 270 813 175 q 908 486 908 365 m 690 1103 q 701 1079 701 1090 q 694 1065 701 1072 q 679 1058 688 1058 q 642 1076 664 1058 l 526 1160 l 419 1075 q 382 1057 394 1057 q 365 1063 372 1057 q 358 1078 358 1069 q 369 1101 358 1089 l 476 1215 q 497 1233 488 1228 q 522 1239 507 1239 l 538 1239 q 563 1233 553 1239 q 585 1215 572 1228 l 690 1103 m 724 1146 q 704 1153 711 1146 q 697 1171 697 1160 q 711 1196 697 1182 l 835 1292 q 875 1307 853 1307 q 905 1295 893 1307 q 917 1265 917 1283 q 890 1222 917 1238 l 754 1154 q 724 1146 735 1146 z "},"Ộ":{"ha":1064,"x_min":67,"x_max":997,"o":"m 997 486 q 938 229 997 343 q 772 51 878 115 q 532 -14 667 -14 q 292 51 397 -14 q 126 229 186 115 q 67 486 67 343 q 126 744 67 631 q 292 922 186 858 q 532 986 397 986 q 772 922 667 986 q 938 744 878 858 q 997 486 997 631 m 908 486 q 860 702 908 607 q 727 850 813 797 q 532 903 642 903 q 337 850 422 903 q 203 702 251 797 q 156 486 156 607 q 203 270 156 365 q 337 122 251 175 q 532 69 422 69 q 727 122 642 69 q 860 270 813 175 q 908 486 908 365 m 532 -194 q 489 -180 504 -194 q 474 -139 474 -165 l 474 -124 q 490 -84 474 -99 q 532 -69 506 -69 q 589 -124 589 -69 l 589 -139 q 574 -180 589 -165 q 532 -194 560 -194 m 690 1103 q 701 1079 701 1090 q 694 1065 701 1072 q 679 1058 688 1058 q 642 1076 664 1058 l 526 1160 l 419 1075 q 382 1057 394 1057 q 365 1063 372 1057 q 358 1078 358 1069 q 369 1101 358 1089 l 476 1215 q 497 1233 488 1228 q 522 1239 507 1239 l 538 1239 q 563 1233 553 1239 q 585 1215 572 1228 l 690 1103 z "},"Ồ":{"ha":1064,"x_min":67,"x_max":997,"o":"m 997 486 q 938 229 997 343 q 772 51 878 115 q 532 -14 667 -14 q 292 51 397 -14 q 126 229 186 115 q 67 486 67 343 q 126 744 67 631 q 292 922 186 858 q 532 986 397 986 q 772 922 667 986 q 938 744 878 858 q 997 486 997 631 m 908 486 q 860 702 908 607 q 727 850 813 797 q 532 903 642 903 q 337 850 422 903 q 203 702 251 797 q 156 486 156 607 q 203 270 156 365 q 337 122 251 175 q 532 69 422 69 q 727 122 642 69 q 860 270 813 175 q 908 486 908 365 m 690 1103 q 701 1079 701 1090 q 694 1065 701 1072 q 679 1058 688 1058 q 642 1076 664 1058 l 526 1160 l 419 1075 q 382 1057 394 1057 q 365 1063 372 1057 q 358 1078 358 1069 q 369 1101 358 1089 l 476 1215 q 497 1233 488 1228 q 522 1239 507 1239 l 538 1239 q 563 1233 553 1239 q 585 1215 572 1228 l 690 1103 m 708 1221 q 678 1229 697 1221 l 543 1297 q 515 1340 515 1313 q 527 1370 515 1358 q 557 1382 539 1382 q 597 1367 579 1382 l 721 1271 q 735 1246 735 1257 q 728 1228 735 1235 q 708 1221 721 1221 z "},"Ổ":{"ha":1064,"x_min":67,"x_max":997,"o":"m 997 486 q 938 229 997 343 q 772 51 878 115 q 532 -14 667 -14 q 292 51 397 -14 q 126 229 186 115 q 67 486 67 343 q 126 744 67 631 q 292 922 186 858 q 532 986 397 986 q 772 922 667 986 q 938 744 878 858 q 997 486 997 631 m 908 486 q 860 702 908 607 q 727 850 813 797 q 532 903 642 903 q 337 850 422 903 q 203 702 251 797 q 156 486 156 607 q 203 270 156 365 q 337 122 251 175 q 532 69 422 69 q 727 122 642 69 q 860 270 813 175 q 908 486 908 365 m 686 1115 q 696 1092 696 1104 q 689 1078 696 1085 q 674 1071 682 1071 q 656 1075 663 1071 q 636 1090 649 1079 l 526 1178 l 421 1089 q 410 1081 418 1088 q 397 1072 403 1075 q 385 1069 392 1069 q 368 1076 375 1069 q 361 1092 361 1083 q 372 1114 361 1103 l 474 1225 q 519 1249 489 1249 l 542 1249 q 568 1244 558 1249 q 586 1225 578 1239 l 686 1115 m 617 1356 q 721 1399 664 1399 q 806 1367 779 1399 q 833 1296 833 1335 q 822 1256 833 1274 q 788 1213 811 1238 q 769 1175 771 1194 q 760 1157 768 1164 q 740 1150 751 1150 q 719 1158 728 1150 q 711 1176 711 1165 q 732 1232 711 1210 q 749 1251 738 1238 q 767 1274 761 1264 q 772 1294 772 1285 q 757 1324 772 1313 q 721 1336 742 1336 q 658 1311 692 1336 q 633 1300 644 1300 q 611 1311 622 1300 q 604 1331 604 1321 q 617 1356 604 1343 z "},"Ỗ":{"ha":1064,"x_min":67,"x_max":997,"o":"m 997 486 q 938 229 997 343 q 772 51 878 115 q 532 -14 667 -14 q 292 51 397 -14 q 126 229 186 115 q 67 486 67 343 q 126 744 67 631 q 292 922 186 858 q 532 986 397 986 q 772 922 667 986 q 938 744 878 858 q 997 486 997 631 m 908 486 q 860 702 908 607 q 727 850 813 797 q 532 903 642 903 q 337 850 422 903 q 203 702 251 797 q 156 486 156 607 q 203 270 156 365 q 337 122 251 175 q 532 69 422 69 q 727 122 642 69 q 860 270 813 175 q 908 486 908 365 m 690 1103 q 701 1079 701 1090 q 694 1065 701 1072 q 679 1058 688 1058 q 642 1076 664 1058 l 526 1160 l 419 1075 q 382 1057 394 1057 q 365 1063 372 1057 q 358 1078 358 1069 q 369 1101 358 1089 l 476 1215 q 497 1233 488 1228 q 522 1239 507 1239 l 538 1239 q 563 1233 553 1239 q 585 1215 572 1228 l 690 1103 m 356 1246 q 331 1257 340 1246 q 322 1290 322 1268 q 324 1307 322 1301 q 367 1375 333 1350 q 444 1400 400 1400 q 497 1388 469 1400 q 558 1354 524 1376 q 606 1328 589 1336 q 638 1319 624 1319 q 669 1334 657 1319 q 683 1374 681 1349 q 690 1399 682 1389 q 714 1410 699 1410 q 740 1398 731 1410 q 749 1365 749 1386 l 747 1350 q 709 1278 739 1304 q 635 1251 679 1251 q 524 1296 596 1251 q 474 1322 492 1314 q 440 1331 456 1331 q 406 1317 421 1331 q 386 1276 392 1304 q 377 1253 386 1261 q 356 1246 368 1246 z "},"Ȍ":{"ha":1064,"x_min":67,"x_max":997,"o":"m 997 486 q 938 229 997 343 q 772 51 878 115 q 532 -14 667 -14 q 292 51 397 -14 q 126 229 186 115 q 67 486 67 343 q 126 744 67 631 q 292 922 186 858 q 532 986 397 986 q 772 922 667 986 q 938 744 878 858 q 997 486 997 631 m 908 486 q 860 702 908 607 q 727 850 813 797 q 532 903 642 903 q 337 850 422 903 q 203 702 251 797 q 156 486 156 607 q 203 270 156 365 q 337 122 251 175 q 532 69 422 69 q 727 122 642 69 q 860 270 813 175 q 908 486 908 365 m 464 1049 q 445 1053 454 1049 q 433 1058 436 1057 l 299 1125 q 271 1169 271 1140 q 283 1199 271 1186 q 313 1211 294 1211 q 353 1194 333 1211 l 476 1099 q 490 1074 490 1088 q 483 1056 490 1064 q 464 1049 476 1049 m 697 1049 q 667 1057 686 1049 l 531 1125 q 504 1168 504 1140 q 516 1198 504 1186 q 546 1210 528 1210 q 586 1194 568 1210 l 710 1099 q 724 1074 724 1085 q 717 1056 724 1063 q 697 1049 710 1049 z "},"Ö":{"ha":1064,"x_min":67,"x_max":997,"o":"m 997 486 q 938 229 997 343 q 772 51 878 115 q 532 -14 667 -14 q 292 51 397 -14 q 126 229 186 115 q 67 486 67 343 q 126 744 67 631 q 292 922 186 858 q 532 986 397 986 q 772 922 667 986 q 938 744 878 858 q 997 486 997 631 m 908 486 q 860 702 908 607 q 727 850 813 797 q 532 903 642 903 q 337 850 422 903 q 203 702 251 797 q 156 486 156 607 q 203 270 156 365 q 337 122 251 175 q 532 69 422 69 q 727 122 642 69 q 860 270 813 175 q 908 486 908 365 m 413 1076 q 371 1091 386 1076 q 356 1132 356 1106 l 356 1146 q 372 1187 356 1172 q 414 1201 388 1201 q 456 1187 440 1201 q 471 1146 471 1172 l 471 1132 q 456 1091 471 1106 q 413 1076 440 1076 m 651 1076 q 610 1091 625 1076 q 594 1132 594 1106 l 594 1146 q 610 1187 594 1172 q 653 1201 625 1201 q 694 1187 679 1201 q 710 1146 710 1172 l 710 1132 q 694 1091 710 1106 q 651 1076 679 1076 z "},"Ȫ":{"ha":1064,"x_min":67,"x_max":997,"o":"m 997 486 q 938 229 997 343 q 772 51 878 115 q 532 -14 667 -14 q 292 51 397 -14 q 126 229 186 115 q 67 486 67 343 q 126 744 67 631 q 292 922 186 858 q 532 986 397 986 q 772 922 667 986 q 938 744 878 858 q 997 486 997 631 m 908 486 q 860 702 908 607 q 727 850 813 797 q 532 903 642 903 q 337 850 422 903 q 203 702 251 797 q 156 486 156 607 q 203 270 156 365 q 337 122 251 175 q 532 69 422 69 q 727 122 642 69 q 860 270 813 175 q 908 486 908 365 m 413 1076 q 371 1091 386 1076 q 356 1132 356 1106 l 356 1146 q 372 1187 356 1172 q 414 1201 388 1201 q 456 1187 440 1201 q 471 1146 471 1172 l 471 1132 q 456 1091 471 1106 q 413 1076 440 1076 m 651 1076 q 610 1091 625 1076 q 594 1132 594 1106 l 594 1146 q 610 1187 594 1172 q 653 1201 625 1201 q 694 1187 679 1201 q 710 1146 710 1172 l 710 1132 q 694 1091 710 1106 q 651 1076 679 1076 m 360 1331 q 319 1365 319 1331 q 360 1401 319 1401 l 714 1401 q 754 1365 754 1401 q 714 1331 754 1331 l 360 1331 z "},"Ȱ":{"ha":1064,"x_min":67,"x_max":997,"o":"m 997 486 q 938 229 997 343 q 772 51 878 115 q 532 -14 667 -14 q 292 51 397 -14 q 126 229 186 115 q 67 486 67 343 q 126 744 67 631 q 292 922 186 858 q 532 986 397 986 q 772 922 667 986 q 938 744 878 858 q 997 486 997 631 m 908 486 q 860 702 908 607 q 727 850 813 797 q 532 903 642 903 q 337 850 422 903 q 203 702 251 797 q 156 486 156 607 q 203 270 156 365 q 337 122 251 175 q 532 69 422 69 q 727 122 642 69 q 860 270 813 175 q 908 486 908 365 m 532 1069 q 489 1084 504 1069 q 474 1125 474 1099 l 474 1139 q 490 1180 474 1165 q 533 1194 506 1194 q 589 1139 589 1194 l 589 1125 q 574 1084 589 1099 q 532 1069 560 1069 m 360 1331 q 319 1365 319 1331 q 360 1401 319 1401 l 714 1401 q 754 1365 754 1401 q 714 1331 754 1331 l 360 1331 z "},"Ọ":{"ha":1064,"x_min":67,"x_max":997,"o":"m 997 486 q 938 229 997 343 q 772 51 878 115 q 532 -14 667 -14 q 292 51 397 -14 q 126 229 186 115 q 67 486 67 343 q 126 744 67 631 q 292 922 186 858 q 532 986 397 986 q 772 922 667 986 q 938 744 878 858 q 997 486 997 631 m 908 486 q 860 702 908 607 q 727 850 813 797 q 532 903 642 903 q 337 850 422 903 q 203 702 251 797 q 156 486 156 607 q 203 270 156 365 q 337 122 251 175 q 532 69 422 69 q 727 122 642 69 q 860 270 813 175 q 908 486 908 365 m 532 -194 q 489 -180 504 -194 q 474 -139 474 -165 l 474 -124 q 490 -84 474 -99 q 532 -69 506 -69 q 589 -124 589 -69 l 589 -139 q 574 -180 589 -165 q 532 -194 560 -194 z "},"Ò":{"ha":1064,"x_min":67,"x_max":997,"o":"m 997 486 q 938 229 997 343 q 772 51 878 115 q 532 -14 667 -14 q 292 51 397 -14 q 126 229 186 115 q 67 486 67 343 q 126 744 67 631 q 292 922 186 858 q 532 986 397 986 q 772 922 667 986 q 938 744 878 858 q 997 486 997 631 m 908 486 q 860 702 908 607 q 727 850 813 797 q 532 903 642 903 q 337 850 422 903 q 203 702 251 797 q 156 486 156 607 q 203 270 156 365 q 337 122 251 175 q 532 69 422 69 q 727 122 642 69 q 860 270 813 175 q 908 486 908 365 m 532 1038 q 501 1046 521 1038 l 367 1114 q 339 1157 339 1129 q 351 1187 339 1175 q 381 1199 363 1199 q 421 1183 403 1199 l 544 1088 q 558 1063 558 1074 q 551 1044 558 1051 q 532 1038 544 1038 z "},"Ỏ":{"ha":1064,"x_min":67,"x_max":997,"o":"m 997 486 q 938 229 997 343 q 772 51 878 115 q 532 -14 667 -14 q 292 51 397 -14 q 126 229 186 115 q 67 486 67 343 q 126 744 67 631 q 292 922 186 858 q 532 986 397 986 q 772 922 667 986 q 938 744 878 858 q 997 486 997 631 m 908 486 q 860 702 908 607 q 727 850 813 797 q 532 903 642 903 q 337 850 422 903 q 203 702 251 797 q 156 486 156 607 q 203 270 156 365 q 337 122 251 175 q 532 69 422 69 q 727 122 642 69 q 860 270 813 175 q 908 486 908 365 m 425 1254 q 528 1297 471 1297 q 615 1265 588 1297 q 642 1194 642 1233 q 630 1153 642 1172 q 594 1111 618 1135 q 578 1074 578 1092 q 568 1057 576 1063 q 546 1051 560 1051 q 527 1058 535 1051 q 519 1075 519 1065 q 539 1131 519 1108 q 571 1167 563 1156 q 579 1193 579 1178 q 565 1223 579 1211 q 529 1235 550 1235 q 465 1210 499 1235 q 442 1199 454 1199 q 419 1210 431 1199 q 413 1229 413 1219 q 425 1254 413 1242 z "},"Ơ":{"ha":1064,"x_min":67,"x_max":997,"o":"m 764 926 q 935 749 872 864 q 997 486 997 633 q 938 229 997 343 q 772 51 878 115 q 532 -14 667 -14 q 292 51 397 -14 q 126 229 186 115 q 67 486 67 343 q 126 744 67 631 q 292 922 186 858 q 532 986 397 986 q 654 971 593 986 q 744 999 715 974 q 772 1078 772 1024 q 781 1113 772 1099 q 808 1128 790 1128 q 844 1078 844 1128 q 824 988 844 1026 q 764 926 803 949 m 532 69 q 727 122 642 69 q 860 270 813 175 q 908 486 908 365 q 860 702 908 607 q 727 850 813 797 q 532 903 642 903 q 337 850 422 903 q 203 702 251 797 q 156 486 156 607 q 203 270 156 365 q 337 122 251 175 q 532 69 422 69 z "},"Ớ":{"ha":1064,"x_min":67,"x_max":997,"o":"m 764 926 q 935 749 872 864 q 997 486 997 633 q 938 229 997 343 q 772 51 878 115 q 532 -14 667 -14 q 292 51 397 -14 q 126 229 186 115 q 67 486 67 343 q 126 744 67 631 q 292 922 186 858 q 532 986 397 986 q 654 971 593 986 q 744 999 715 974 q 772 1078 772 1024 q 781 1113 772 1099 q 808 1128 790 1128 q 844 1078 844 1128 q 824 988 844 1026 q 764 926 803 949 m 532 69 q 727 122 642 69 q 860 270 813 175 q 908 486 908 365 q 860 702 908 607 q 727 850 813 797 q 532 903 642 903 q 337 850 422 903 q 203 702 251 797 q 156 486 156 607 q 203 270 156 365 q 337 122 251 175 q 532 69 422 69 m 536 1036 q 517 1043 524 1036 q 510 1061 510 1050 q 524 1086 510 1072 l 647 1182 q 688 1197 665 1197 q 717 1185 706 1197 q 729 1156 729 1174 q 703 1113 729 1128 l 567 1044 q 536 1036 547 1036 z "},"Ợ":{"ha":1064,"x_min":67,"x_max":997,"o":"m 764 926 q 935 749 872 864 q 997 486 997 633 q 938 229 997 343 q 772 51 878 115 q 532 -14 667 -14 q 292 51 397 -14 q 126 229 186 115 q 67 486 67 343 q 126 744 67 631 q 292 922 186 858 q 532 986 397 986 q 654 971 593 986 q 744 999 715 974 q 772 1078 772 1024 q 781 1113 772 1099 q 808 1128 790 1128 q 844 1078 844 1128 q 824 988 844 1026 q 764 926 803 949 m 532 69 q 727 122 642 69 q 860 270 813 175 q 908 486 908 365 q 860 702 908 607 q 727 850 813 797 q 532 903 642 903 q 337 850 422 903 q 203 702 251 797 q 156 486 156 607 q 203 270 156 365 q 337 122 251 175 q 532 69 422 69 m 532 -194 q 489 -180 504 -194 q 474 -139 474 -165 l 474 -124 q 490 -84 474 -99 q 532 -69 506 -69 q 589 -124 589 -69 l 589 -139 q 574 -180 589 -165 q 532 -194 560 -194 z "},"Ờ":{"ha":1064,"x_min":67,"x_max":997,"o":"m 764 926 q 935 749 872 864 q 997 486 997 633 q 938 229 997 343 q 772 51 878 115 q 532 -14 667 -14 q 292 51 397 -14 q 126 229 186 115 q 67 486 67 343 q 126 744 67 631 q 292 922 186 858 q 532 986 397 986 q 654 971 593 986 q 744 999 715 974 q 772 1078 772 1024 q 781 1113 772 1099 q 808 1128 790 1128 q 844 1078 844 1128 q 824 988 844 1026 q 764 926 803 949 m 532 69 q 727 122 642 69 q 860 270 813 175 q 908 486 908 365 q 860 702 908 607 q 727 850 813 797 q 532 903 642 903 q 337 850 422 903 q 203 702 251 797 q 156 486 156 607 q 203 270 156 365 q 337 122 251 175 q 532 69 422 69 m 532 1038 q 501 1046 521 1038 l 367 1114 q 339 1157 339 1129 q 351 1187 339 1175 q 381 1199 363 1199 q 421 1183 403 1199 l 544 1088 q 558 1063 558 1074 q 551 1044 558 1051 q 532 1038 544 1038 z "},"Ở":{"ha":1064,"x_min":67,"x_max":997,"o":"m 764 926 q 935 749 872 864 q 997 486 997 633 q 938 229 997 343 q 772 51 878 115 q 532 -14 667 -14 q 292 51 397 -14 q 126 229 186 115 q 67 486 67 343 q 126 744 67 631 q 292 922 186 858 q 532 986 397 986 q 654 971 593 986 q 744 999 715 974 q 772 1078 772 1024 q 781 1113 772 1099 q 808 1128 790 1128 q 844 1078 844 1128 q 824 988 844 1026 q 764 926 803 949 m 532 69 q 727 122 642 69 q 860 270 813 175 q 908 486 908 365 q 860 702 908 607 q 727 850 813 797 q 532 903 642 903 q 337 850 422 903 q 203 702 251 797 q 156 486 156 607 q 203 270 156 365 q 337 122 251 175 q 532 69 422 69 m 425 1254 q 528 1297 471 1297 q 615 1265 588 1297 q 642 1194 642 1233 q 630 1153 642 1172 q 594 1111 618 1135 q 578 1074 578 1092 q 568 1057 576 1063 q 546 1051 560 1051 q 527 1058 535 1051 q 519 1075 519 1065 q 539 1131 519 1108 q 571 1167 563 1156 q 579 1193 579 1178 q 565 1223 579 1211 q 529 1235 550 1235 q 465 1210 499 1235 q 442 1199 454 1199 q 419 1210 431 1199 q 413 1229 413 1219 q 425 1254 413 1242 z "},"Ỡ":{"ha":1064,"x_min":67,"x_max":997,"o":"m 764 926 q 935 749 872 864 q 997 486 997 633 q 938 229 997 343 q 772 51 878 115 q 532 -14 667 -14 q 292 51 397 -14 q 126 229 186 115 q 67 486 67 343 q 126 744 67 631 q 292 922 186 858 q 532 986 397 986 q 654 971 593 986 q 744 999 715 974 q 772 1078 772 1024 q 781 1113 772 1099 q 808 1128 790 1128 q 844 1078 844 1128 q 824 988 844 1026 q 764 926 803 949 m 532 69 q 727 122 642 69 q 860 270 813 175 q 908 486 908 365 q 860 702 908 607 q 727 850 813 797 q 532 903 642 903 q 337 850 422 903 q 203 702 251 797 q 156 486 156 607 q 203 270 156 365 q 337 122 251 175 q 532 69 422 69 m 347 1076 q 323 1088 332 1076 q 314 1121 314 1099 q 315 1138 314 1132 q 358 1206 325 1181 q 436 1231 392 1231 q 488 1219 461 1231 q 550 1185 515 1207 q 598 1158 581 1167 q 629 1150 615 1150 q 660 1165 649 1150 q 675 1204 672 1179 q 682 1230 674 1219 q 706 1240 690 1240 q 731 1228 722 1240 q 740 1196 740 1217 l 739 1181 q 701 1108 731 1135 q 626 1082 671 1082 q 515 1126 588 1082 q 465 1153 483 1144 q 432 1161 447 1161 q 398 1148 413 1161 q 378 1107 383 1135 q 369 1084 378 1092 q 347 1076 360 1076 z "},"Ő":{"ha":1064,"x_min":67,"x_max":997,"o":"m 997 486 q 938 229 997 343 q 772 51 878 115 q 532 -14 667 -14 q 292 51 397 -14 q 126 229 186 115 q 67 486 67 343 q 126 744 67 631 q 292 922 186 858 q 532 986 397 986 q 772 922 667 986 q 938 744 878 858 q 997 486 997 631 m 908 486 q 860 702 908 607 q 727 850 813 797 q 532 903 642 903 q 337 850 422 903 q 203 702 251 797 q 156 486 156 607 q 203 270 156 365 q 337 122 251 175 q 532 69 422 69 q 727 122 642 69 q 860 270 813 175 q 908 486 908 365 m 393 1033 q 378 1040 383 1033 q 372 1054 372 1046 q 382 1081 372 1064 l 461 1199 q 504 1226 475 1226 q 538 1215 524 1226 q 551 1183 551 1203 q 538 1154 551 1168 l 442 1057 q 393 1033 415 1033 m 611 1033 q 596 1040 601 1033 q 590 1054 590 1046 q 600 1081 590 1065 l 679 1200 q 722 1225 693 1225 q 754 1215 740 1225 q 768 1185 768 1204 q 756 1154 768 1167 l 660 1057 q 611 1033 633 1033 z "},"Ȏ":{"ha":1064,"x_min":67,"x_max":997,"o":"m 997 486 q 938 229 997 343 q 772 51 878 115 q 532 -14 667 -14 q 292 51 397 -14 q 126 229 186 115 q 67 486 67 343 q 126 744 67 631 q 292 922 186 858 q 532 986 397 986 q 772 922 667 986 q 938 744 878 858 q 997 486 997 631 m 908 486 q 860 702 908 607 q 727 850 813 797 q 532 903 642 903 q 337 850 422 903 q 203 702 251 797 q 156 486 156 607 q 203 270 156 365 q 337 122 251 175 q 532 69 422 69 q 727 122 642 69 q 860 270 813 175 q 908 486 908 365 m 531 1201 q 653 1162 601 1201 q 711 1065 704 1122 q 705 1039 714 1050 q 681 1028 696 1028 q 656 1036 665 1028 q 639 1061 646 1044 q 600 1113 629 1094 q 531 1132 571 1132 q 460 1113 489 1132 q 422 1061 431 1094 q 406 1036 415 1044 q 379 1028 396 1028 q 355 1038 364 1028 q 349 1064 346 1049 q 407 1162 356 1122 q 531 1201 458 1201 z "},"Ō":{"ha":1064,"x_min":67,"x_max":997,"o":"m 997 486 q 938 229 997 343 q 772 51 878 115 q 532 -14 667 -14 q 292 51 397 -14 q 126 229 186 115 q 67 486 67 343 q 126 744 67 631 q 292 922 186 858 q 532 986 397 986 q 772 922 667 986 q 938 744 878 858 q 997 486 997 631 m 908 486 q 860 702 908 607 q 727 850 813 797 q 532 903 642 903 q 337 850 422 903 q 203 702 251 797 q 156 486 156 607 q 203 270 156 365 q 337 122 251 175 q 532 69 422 69 q 727 122 642 69 q 860 270 813 175 q 908 486 908 365 m 360 1094 q 319 1129 319 1094 q 360 1165 319 1165 l 714 1165 q 754 1129 754 1165 q 714 1094 754 1094 l 360 1094 z "},"Ṓ":{"ha":1064,"x_min":67,"x_max":997,"o":"m 997 486 q 938 229 997 343 q 772 51 878 115 q 532 -14 667 -14 q 292 51 397 -14 q 126 229 186 115 q 67 486 67 343 q 126 744 67 631 q 292 922 186 858 q 532 986 397 986 q 772 922 667 986 q 938 744 878 858 q 997 486 997 631 m 908 486 q 860 702 908 607 q 727 850 813 797 q 532 903 642 903 q 337 850 422 903 q 203 702 251 797 q 156 486 156 607 q 203 270 156 365 q 337 122 251 175 q 532 69 422 69 q 727 122 642 69 q 860 270 813 175 q 908 486 908 365 m 360 1094 q 319 1129 319 1094 q 360 1165 319 1165 l 714 1165 q 754 1129 754 1165 q 714 1094 754 1094 l 360 1094 m 536 1250 q 517 1257 524 1250 q 510 1275 510 1264 q 524 1300 510 1286 l 647 1396 q 688 1411 665 1411 q 717 1399 706 1411 q 729 1369 729 1388 q 703 1326 729 1342 l 567 1258 q 536 1250 547 1250 z "},"Ṑ":{"ha":1064,"x_min":67,"x_max":997,"o":"m 997 486 q 938 229 997 343 q 772 51 878 115 q 532 -14 667 -14 q 292 51 397 -14 q 126 229 186 115 q 67 486 67 343 q 126 744 67 631 q 292 922 186 858 q 532 986 397 986 q 772 922 667 986 q 938 744 878 858 q 997 486 997 631 m 908 486 q 860 702 908 607 q 727 850 813 797 q 532 903 642 903 q 337 850 422 903 q 203 702 251 797 q 156 486 156 607 q 203 270 156 365 q 337 122 251 175 q 532 69 422 69 q 727 122 642 69 q 860 270 813 175 q 908 486 908 365 m 360 1094 q 319 1129 319 1094 q 360 1165 319 1165 l 714 1165 q 754 1129 754 1165 q 714 1094 754 1094 l 360 1094 m 532 1251 q 501 1260 521 1251 l 367 1328 q 339 1371 339 1343 q 351 1401 339 1389 q 381 1413 363 1413 q 421 1397 403 1413 l 544 1301 q 558 1276 558 1288 q 551 1258 558 1265 q 532 1251 544 1251 z "},"Ǫ":{"ha":1064,"x_min":67,"x_max":997,"o":"m 615 -7 q 553 -52 578 -22 q 529 -115 529 -82 q 549 -173 529 -151 q 597 -194 569 -194 q 619 -192 611 -194 q 633 -182 628 -190 q 674 -157 654 -157 q 696 -165 688 -157 q 704 -187 704 -174 q 670 -242 704 -218 q 589 -265 636 -265 q 495 -228 535 -265 q 456 -132 456 -192 q 506 -14 456 -61 q 278 59 378 -7 q 122 236 178 125 q 67 486 67 347 q 126 744 67 631 q 292 922 186 858 q 532 986 397 986 q 772 922 667 986 q 938 744 878 858 q 997 486 997 631 q 949 253 997 358 q 815 79 901 147 q 615 -7 728 11 m 156 486 q 203 270 156 365 q 337 122 251 175 q 532 69 422 69 q 727 122 642 69 q 860 270 813 175 q 908 486 908 365 q 860 702 908 607 q 727 850 813 797 q 532 903 642 903 q 337 850 422 903 q 203 702 251 797 q 156 486 156 607 z "},"Ø":{"ha":1008,"x_min":67,"x_max":997,"o":"m 857 856 q 960 692 924 788 q 997 486 997 597 q 938 229 997 343 q 772 51 878 115 q 532 -14 667 -14 q 366 15 443 -14 q 229 97 289 43 l 142 -8 q 101 -32 124 -32 q 77 -21 88 -32 q 67 4 67 -10 q 76 29 67 18 l 176 151 q 95 302 124 217 q 67 486 67 388 q 126 744 67 631 q 292 922 186 858 q 532 986 397 986 q 800 904 686 986 l 871 990 q 887 1005 879 1001 q 907 1008 894 1008 q 932 999 921 1008 q 943 975 943 989 q 932 947 943 960 l 857 856 m 156 486 q 233 219 156 329 l 744 838 q 532 903 653 903 q 337 850 422 903 q 203 702 251 797 q 156 486 156 607 m 532 69 q 727 122 642 69 q 860 270 813 175 q 908 486 908 365 q 881 656 908 578 q 801 789 853 733 l 283 163 q 395 94 332 118 q 532 69 458 69 z "},"Ǿ":{"ha":1008,"x_min":67,"x_max":997,"o":"m 857 856 q 960 692 924 788 q 997 486 997 597 q 938 229 997 343 q 772 51 878 115 q 532 -14 667 -14 q 366 15 443 -14 q 229 97 289 43 l 142 -8 q 101 -32 124 -32 q 77 -21 88 -32 q 67 4 67 -10 q 76 29 67 18 l 176 151 q 95 302 124 217 q 67 486 67 388 q 126 744 67 631 q 292 922 186 858 q 532 986 397 986 q 800 904 686 986 l 871 990 q 887 1005 879 1001 q 907 1008 894 1008 q 932 999 921 1008 q 943 975 943 989 q 932 947 943 960 l 857 856 m 156 486 q 233 219 156 329 l 744 838 q 532 903 653 903 q 337 850 422 903 q 203 702 251 797 q 156 486 156 607 m 532 69 q 727 122 642 69 q 860 270 813 175 q 908 486 908 365 q 881 656 908 578 q 801 789 853 733 l 283 163 q 395 94 332 118 q 532 69 458 69 m 508 1036 q 489 1043 496 1036 q 482 1061 482 1050 q 496 1086 482 1072 l 619 1182 q 660 1197 638 1197 q 690 1185 678 1197 q 701 1156 701 1174 q 675 1113 701 1128 l 539 1044 q 508 1036 519 1036 z "},"Õ":{"ha":1064,"x_min":67,"x_max":997,"o":"m 997 486 q 938 229 997 343 q 772 51 878 115 q 532 -14 667 -14 q 292 51 397 -14 q 126 229 186 115 q 67 486 67 343 q 126 744 67 631 q 292 922 186 858 q 532 986 397 986 q 772 922 667 986 q 938 744 878 858 q 997 486 997 631 m 908 486 q 860 702 908 607 q 727 850 813 797 q 532 903 642 903 q 337 850 422 903 q 203 702 251 797 q 156 486 156 607 q 203 270 156 365 q 337 122 251 175 q 532 69 422 69 q 727 122 642 69 q 860 270 813 175 q 908 486 908 365 m 353 1071 q 328 1082 338 1071 q 319 1115 319 1093 q 321 1132 319 1126 q 364 1200 331 1175 q 442 1225 397 1225 q 494 1213 467 1225 q 556 1179 521 1201 q 603 1153 586 1161 q 635 1144 621 1144 q 666 1159 654 1144 q 681 1199 678 1174 q 688 1224 679 1214 q 711 1235 696 1235 q 737 1223 728 1235 q 746 1190 746 1211 l 744 1175 q 706 1103 736 1129 q 632 1076 676 1076 q 521 1121 593 1076 q 471 1147 489 1139 q 438 1156 453 1156 q 403 1142 418 1156 q 383 1101 389 1129 q 374 1078 383 1086 q 353 1071 365 1071 z "},"Ṍ":{"ha":1064,"x_min":67,"x_max":997,"o":"m 997 486 q 938 229 997 343 q 772 51 878 115 q 532 -14 667 -14 q 292 51 397 -14 q 126 229 186 115 q 67 486 67 343 q 126 744 67 631 q 292 922 186 858 q 532 986 397 986 q 772 922 667 986 q 938 744 878 858 q 997 486 997 631 m 908 486 q 860 702 908 607 q 727 850 813 797 q 532 903 642 903 q 337 850 422 903 q 203 702 251 797 q 156 486 156 607 q 203 270 156 365 q 337 122 251 175 q 532 69 422 69 q 727 122 642 69 q 860 270 813 175 q 908 486 908 365 m 353 1071 q 328 1082 338 1071 q 319 1115 319 1093 q 321 1132 319 1126 q 364 1200 331 1175 q 442 1225 397 1225 q 494 1213 467 1225 q 556 1179 521 1201 q 603 1153 586 1161 q 635 1144 621 1144 q 666 1159 654 1144 q 681 1199 678 1174 q 688 1224 679 1214 q 711 1235 696 1235 q 737 1223 728 1235 q 746 1190 746 1211 l 744 1175 q 706 1103 736 1129 q 632 1076 676 1076 q 521 1121 593 1076 q 471 1147 489 1139 q 438 1156 453 1156 q 403 1142 418 1156 q 383 1101 389 1129 q 374 1078 383 1086 q 353 1071 365 1071 m 536 1303 q 517 1310 524 1303 q 510 1328 510 1317 q 524 1353 510 1339 l 647 1449 q 688 1464 665 1464 q 717 1452 706 1464 q 729 1422 729 1440 q 703 1379 729 1394 l 567 1311 q 536 1303 547 1303 z "},"Ṏ":{"ha":1064,"x_min":67,"x_max":997,"o":"m 997 486 q 938 229 997 343 q 772 51 878 115 q 532 -14 667 -14 q 292 51 397 -14 q 126 229 186 115 q 67 486 67 343 q 126 744 67 631 q 292 922 186 858 q 532 986 397 986 q 772 922 667 986 q 938 744 878 858 q 997 486 997 631 m 908 486 q 860 702 908 607 q 727 850 813 797 q 532 903 642 903 q 337 850 422 903 q 203 702 251 797 q 156 486 156 607 q 203 270 156 365 q 337 122 251 175 q 532 69 422 69 q 727 122 642 69 q 860 270 813 175 q 908 486 908 365 m 353 1071 q 328 1082 338 1071 q 319 1115 319 1093 q 321 1132 319 1126 q 364 1200 331 1175 q 442 1225 397 1225 q 494 1213 467 1225 q 556 1179 521 1201 q 603 1153 586 1161 q 635 1144 621 1144 q 666 1159 654 1144 q 681 1199 678 1174 q 688 1224 679 1214 q 711 1235 696 1235 q 737 1223 728 1235 q 746 1190 746 1211 l 744 1175 q 706 1103 736 1129 q 632 1076 676 1076 q 521 1121 593 1076 q 471 1147 489 1139 q 438 1156 453 1156 q 403 1142 418 1156 q 383 1101 389 1129 q 374 1078 383 1086 q 353 1071 365 1071 m 413 1343 q 371 1358 386 1343 q 356 1399 356 1372 l 356 1413 q 372 1453 356 1439 q 414 1468 388 1468 q 456 1453 440 1468 q 471 1413 471 1439 l 471 1399 q 456 1358 471 1372 q 413 1343 440 1343 m 651 1343 q 610 1358 625 1343 q 594 1399 594 1372 l 594 1413 q 610 1453 594 1439 q 653 1468 625 1468 q 694 1453 679 1468 q 710 1413 710 1439 l 710 1399 q 694 1358 710 1372 q 651 1343 679 1343 z "},"Ȭ":{"ha":1064,"x_min":67,"x_max":997,"o":"m 997 486 q 938 229 997 343 q 772 51 878 115 q 532 -14 667 -14 q 292 51 397 -14 q 126 229 186 115 q 67 486 67 343 q 126 744 67 631 q 292 922 186 858 q 532 986 397 986 q 772 922 667 986 q 938 744 878 858 q 997 486 997 631 m 908 486 q 860 702 908 607 q 727 850 813 797 q 532 903 642 903 q 337 850 422 903 q 203 702 251 797 q 156 486 156 607 q 203 270 156 365 q 337 122 251 175 q 532 69 422 69 q 727 122 642 69 q 860 270 813 175 q 908 486 908 365 m 353 1071 q 328 1082 338 1071 q 319 1115 319 1093 q 321 1132 319 1126 q 364 1200 331 1175 q 442 1225 397 1225 q 494 1213 467 1225 q 556 1179 521 1201 q 603 1153 586 1161 q 635 1144 621 1144 q 666 1159 654 1144 q 681 1199 678 1174 q 688 1224 679 1214 q 711 1235 696 1235 q 737 1223 728 1235 q 746 1190 746 1211 l 744 1175 q 706 1103 736 1129 q 632 1076 676 1076 q 521 1121 593 1076 q 471 1147 489 1139 q 438 1156 453 1156 q 403 1142 418 1156 q 383 1101 389 1129 q 374 1078 383 1086 q 353 1071 365 1071 m 360 1361 q 319 1396 319 1361 q 360 1432 319 1432 l 714 1432 q 754 1396 754 1432 q 714 1361 754 1361 l 360 1361 z "},"Œ":{"ha":1375,"x_min":67,"x_max":1310,"o":"m 1268 83 q 1298 72 1286 83 q 1310 42 1310 60 q 1298 12 1310 24 q 1268 0 1286 0 l 472 0 q 248 65 339 0 q 112 239 157 129 q 67 486 67 349 q 112 730 67 619 q 248 906 157 840 q 472 972 339 972 l 1268 972 q 1298 960 1286 972 q 1310 931 1310 949 q 1298 901 1310 913 q 1268 889 1286 889 l 814 889 l 814 543 l 1206 543 q 1235 531 1224 543 q 1247 500 1247 518 q 1235 471 1247 482 q 1206 460 1224 460 l 814 460 l 814 83 l 1268 83 m 150 486 q 233 195 150 307 q 483 83 315 83 l 729 83 l 729 889 l 483 889 q 296 835 371 889 q 185 689 221 781 q 150 486 150 597 z "},"P":{"ha":828,"x_min":131,"x_max":768,"o":"m 501 972 q 639 937 578 972 q 734 838 700 901 q 768 696 768 775 q 734 551 768 617 q 639 449 700 486 q 501 411 578 411 l 214 411 l 214 42 q 202 12 214 24 q 172 0 190 0 q 142 12 154 0 q 131 42 131 24 l 131 931 q 142 960 131 949 q 172 972 154 972 l 501 972 m 501 492 q 632 550 582 492 q 682 696 682 608 q 632 836 682 782 q 501 890 582 890 l 214 890 l 214 492 l 501 492 z "},"Þ":{"ha":817,"x_min":131,"x_max":756,"o":"m 490 824 q 627 788 567 824 q 722 688 688 751 q 756 546 756 625 q 722 402 756 467 q 627 300 688 338 q 490 263 567 263 l 214 263 l 214 42 q 202 12 214 24 q 172 0 190 0 q 142 12 154 0 q 131 42 131 24 l 131 986 q 142 1016 131 1004 q 172 1028 154 1028 q 202 1016 190 1028 q 214 986 214 1004 l 214 824 l 490 824 m 490 346 q 621 403 571 346 q 671 546 671 460 q 621 686 671 632 q 490 740 571 740 l 214 740 l 214 346 l 490 346 z "},"Q":{"ha":1076,"x_min":67,"x_max":1101,"o":"m 1064 -78 q 1090 -89 1079 -78 q 1101 -115 1101 -100 q 1060 -175 1101 -146 q 959 -223 1019 -204 q 847 -242 899 -242 q 715 -224 768 -242 q 597 -175 661 -207 q 510 -135 546 -147 q 425 -122 474 -122 q 392 -126 407 -122 q 357 -140 378 -131 q 313 -154 326 -154 q 284 -142 296 -154 q 272 -112 272 -129 q 296 -76 272 -85 l 478 -11 q 264 69 357 1 q 119 244 171 136 q 67 486 67 353 q 126 744 67 631 q 292 922 186 858 q 532 986 397 986 q 772 922 667 986 q 938 744 878 858 q 997 486 997 631 q 952 260 997 363 q 826 89 907 157 q 639 -3 746 21 l 493 -51 q 566 -69 533 -56 q 649 -106 599 -82 q 750 -149 706 -135 q 850 -164 794 -164 q 931 -151 897 -164 q 997 -119 965 -139 q 1024 -99 1010 -112 q 1044 -84 1033 -90 q 1064 -78 1054 -78 m 156 486 q 203 270 156 365 q 337 122 251 175 q 532 69 422 69 q 727 122 642 69 q 860 270 813 175 q 908 486 908 365 q 860 702 908 607 q 727 850 813 797 q 532 903 642 903 q 337 850 422 903 q 203 702 251 797 q 156 486 156 607 z "},"R":{"ha":931,"x_min":131,"x_max":861,"o":"m 840 75 q 861 40 861 61 q 856 22 861 33 q 840 7 850 13 q 819 1 831 1 q 796 7 806 1 q 733 79 757 29 q 710 239 710 129 q 656 376 710 336 q 526 415 601 415 l 218 415 l 218 42 q 207 12 218 24 q 178 0 196 0 q 144 12 158 0 q 131 42 131 24 l 131 931 q 142 960 131 949 q 172 972 154 972 l 547 972 q 689 938 626 972 q 787 844 751 904 q 822 710 822 785 q 776 553 822 621 q 654 461 729 486 q 754 381 715 438 q 794 244 793 325 q 806 124 796 158 q 840 75 817 89 m 551 492 q 642 524 600 496 q 708 599 683 551 q 733 707 733 646 q 680 838 733 786 q 540 890 626 890 l 218 890 l 218 492 l 551 492 z "},"Ŕ":{"ha":931,"x_min":131,"x_max":861,"o":"m 840 75 q 861 40 861 61 q 856 22 861 33 q 840 7 850 13 q 819 1 831 1 q 796 7 806 1 q 733 79 757 29 q 710 239 710 129 q 656 376 710 336 q 526 415 601 415 l 218 415 l 218 42 q 207 12 218 24 q 178 0 196 0 q 144 12 158 0 q 131 42 131 24 l 131 931 q 142 960 131 949 q 172 972 154 972 l 547 972 q 689 938 626 972 q 787 844 751 904 q 822 710 822 785 q 776 553 822 621 q 654 461 729 486 q 754 381 715 438 q 794 244 793 325 q 806 124 796 158 q 840 75 817 89 m 551 492 q 642 524 600 496 q 708 599 683 551 q 733 707 733 646 q 680 838 733 786 q 540 890 626 890 l 218 890 l 218 492 l 551 492 m 464 1036 q 444 1043 451 1036 q 438 1061 438 1050 q 451 1086 438 1072 l 575 1182 q 615 1197 593 1197 q 645 1185 633 1197 q 657 1156 657 1174 q 631 1113 657 1128 l 494 1044 q 464 1036 475 1036 z "},"Ř":{"ha":931,"x_min":131,"x_max":861,"o":"m 840 75 q 861 40 861 61 q 856 22 861 33 q 840 7 850 13 q 819 1 831 1 q 796 7 806 1 q 733 79 757 29 q 710 239 710 129 q 656 376 710 336 q 526 415 601 415 l 218 415 l 218 42 q 207 12 218 24 q 178 0 196 0 q 144 12 158 0 q 131 42 131 24 l 131 931 q 142 960 131 949 q 172 972 154 972 l 547 972 q 689 938 626 972 q 787 844 751 904 q 822 710 822 785 q 776 553 822 621 q 654 461 729 486 q 754 381 715 438 q 794 244 793 325 q 806 124 796 158 q 840 75 817 89 m 551 492 q 642 524 600 496 q 708 599 683 551 q 733 707 733 646 q 680 838 733 786 q 540 890 626 890 l 218 890 l 218 492 l 551 492 m 607 1229 q 624 1223 617 1229 q 631 1208 631 1217 q 619 1185 631 1197 l 513 1071 q 467 1047 497 1047 l 451 1047 q 404 1071 422 1047 l 299 1183 q 288 1207 288 1196 q 294 1222 288 1215 q 310 1228 300 1228 q 347 1211 326 1228 l 463 1125 l 569 1211 q 607 1229 592 1229 z "},"Ŗ":{"ha":931,"x_min":131,"x_max":861,"o":"m 840 75 q 861 40 861 61 q 856 22 861 33 q 840 7 850 13 q 819 1 831 1 q 796 7 806 1 q 733 79 757 29 q 710 239 710 129 q 656 376 710 336 q 526 415 601 415 l 218 415 l 218 42 q 207 12 218 24 q 178 0 196 0 q 144 12 158 0 q 131 42 131 24 l 131 931 q 142 960 131 949 q 172 972 154 972 l 547 972 q 689 938 626 972 q 787 844 751 904 q 822 710 822 785 q 776 553 822 621 q 654 461 729 486 q 754 381 715 438 q 794 244 793 325 q 806 124 796 158 q 840 75 817 89 m 551 492 q 642 524 600 496 q 708 599 683 551 q 733 707 733 646 q 680 838 733 786 q 540 890 626 890 l 218 890 l 218 492 l 551 492 m 542 -149 q 509 -223 542 -192 q 435 -254 476 -254 q 386 -226 386 -254 q 392 -208 386 -215 q 407 -201 399 -201 q 419 -203 411 -201 q 435 -206 428 -206 q 447 -204 443 -206 q 466 -192 458 -203 q 474 -161 474 -181 q 460 -143 474 -143 q 447 -149 454 -143 q 429 -156 439 -156 q 403 -144 413 -156 q 393 -117 393 -132 q 413 -79 393 -93 q 465 -65 432 -65 q 520 -87 499 -65 q 542 -149 542 -108 z "},"Ȑ":{"ha":931,"x_min":131,"x_max":861,"o":"m 840 75 q 861 40 861 61 q 856 22 861 33 q 840 7 850 13 q 819 1 831 1 q 796 7 806 1 q 733 79 757 29 q 710 239 710 129 q 656 376 710 336 q 526 415 601 415 l 218 415 l 218 42 q 207 12 218 24 q 178 0 196 0 q 144 12 158 0 q 131 42 131 24 l 131 931 q 142 960 131 949 q 172 972 154 972 l 547 972 q 689 938 626 972 q 787 844 751 904 q 822 710 822 785 q 776 553 822 621 q 654 461 729 486 q 754 381 715 438 q 794 244 793 325 q 806 124 796 158 q 840 75 817 89 m 551 492 q 642 524 600 496 q 708 599 683 551 q 733 707 733 646 q 680 838 733 786 q 540 890 626 890 l 218 890 l 218 492 l 551 492 m 392 1049 q 373 1053 382 1049 q 361 1058 364 1057 l 226 1125 q 199 1169 199 1140 q 210 1199 199 1186 q 240 1211 222 1211 q 281 1194 261 1211 l 404 1099 q 418 1074 418 1088 q 411 1056 418 1064 q 392 1049 404 1049 m 625 1049 q 594 1057 614 1049 l 458 1125 q 432 1168 432 1140 q 444 1198 432 1186 q 474 1210 456 1210 q 514 1194 496 1210 l 638 1099 q 651 1074 651 1085 q 644 1056 651 1063 q 625 1049 638 1049 z "},"Ṛ":{"ha":931,"x_min":131,"x_max":861,"o":"m 840 75 q 861 40 861 61 q 856 22 861 33 q 840 7 850 13 q 819 1 831 1 q 796 7 806 1 q 733 79 757 29 q 710 239 710 129 q 656 376 710 336 q 526 415 601 415 l 218 415 l 218 42 q 207 12 218 24 q 178 0 196 0 q 144 12 158 0 q 131 42 131 24 l 131 931 q 142 960 131 949 q 172 972 154 972 l 547 972 q 689 938 626 972 q 787 844 751 904 q 822 710 822 785 q 776 553 822 621 q 654 461 729 486 q 754 381 715 438 q 794 244 793 325 q 806 124 796 158 q 840 75 817 89 m 551 492 q 642 524 600 496 q 708 599 683 551 q 733 707 733 646 q 680 838 733 786 q 540 890 626 890 l 218 890 l 218 492 l 551 492 m 460 -194 q 417 -180 432 -194 q 401 -139 401 -165 l 401 -124 q 417 -84 401 -99 q 460 -69 433 -69 q 517 -124 517 -69 l 517 -139 q 502 -180 517 -165 q 460 -194 488 -194 z "},"Ȓ":{"ha":931,"x_min":131,"x_max":861,"o":"m 840 75 q 861 40 861 61 q 856 22 861 33 q 840 7 850 13 q 819 1 831 1 q 796 7 806 1 q 733 79 757 29 q 710 239 710 129 q 656 376 710 336 q 526 415 601 415 l 218 415 l 218 42 q 207 12 218 24 q 178 0 196 0 q 144 12 158 0 q 131 42 131 24 l 131 931 q 142 960 131 949 q 172 972 154 972 l 547 972 q 689 938 626 972 q 787 844 751 904 q 822 710 822 785 q 776 553 822 621 q 654 461 729 486 q 754 381 715 438 q 794 244 793 325 q 806 124 796 158 q 840 75 817 89 m 551 492 q 642 524 600 496 q 708 599 683 551 q 733 707 733 646 q 680 838 733 786 q 540 890 626 890 l 218 890 l 218 492 l 551 492 m 458 1201 q 581 1162 529 1201 q 639 1065 632 1122 q 633 1039 642 1050 q 608 1028 624 1028 q 583 1036 593 1028 q 567 1061 574 1044 q 528 1113 557 1094 q 458 1132 499 1132 q 388 1113 417 1132 q 350 1061 358 1094 q 333 1036 343 1044 q 307 1028 324 1028 q 283 1038 292 1028 q 276 1064 274 1049 q 335 1162 283 1122 q 458 1201 386 1201 z "},"Ṟ":{"ha":931,"x_min":131,"x_max":861,"o":"m 840 75 q 861 40 861 61 q 856 22 861 33 q 840 7 850 13 q 819 1 831 1 q 796 7 806 1 q 733 79 757 29 q 710 239 710 129 q 656 376 710 336 q 526 415 601 415 l 218 415 l 218 42 q 207 12 218 24 q 178 0 196 0 q 144 12 158 0 q 131 42 131 24 l 131 931 q 142 960 131 949 q 172 972 154 972 l 547 972 q 689 938 626 972 q 787 844 751 904 q 822 710 822 785 q 776 553 822 621 q 654 461 729 486 q 754 381 715 438 q 794 244 793 325 q 806 124 796 158 q 840 75 817 89 m 551 492 q 642 524 600 496 q 708 599 683 551 q 733 707 733 646 q 680 838 733 786 q 540 890 626 890 l 218 890 l 218 492 l 551 492 m 322 -175 q 283 -140 283 -175 q 322 -106 283 -106 l 614 -106 q 653 -140 653 -106 q 614 -175 653 -175 l 322 -175 z "},"S":{"ha":781,"x_min":50,"x_max":714,"o":"m 393 -14 q 216 19 293 -14 q 67 124 139 53 q 50 157 50 138 q 63 188 50 174 q 93 201 76 201 q 124 188 110 201 q 394 68 232 68 q 560 115 494 68 q 626 239 626 163 q 594 338 626 299 q 508 403 561 378 q 374 454 456 428 q 224 513 285 481 q 126 598 164 544 q 89 733 89 651 q 128 864 89 807 q 240 953 168 921 q 404 986 311 986 q 563 958 489 986 q 682 876 638 929 q 703 836 703 853 q 689 808 703 821 q 658 794 675 794 q 635 804 644 794 q 535 876 597 849 q 404 904 472 904 q 239 859 303 904 q 175 736 175 814 q 236 613 175 656 q 411 533 297 569 q 572 474 510 504 q 674 387 635 443 q 714 239 714 331 q 673 110 714 168 q 559 19 632 53 q 393 -14 486 -14 z "},"Ś":{"ha":781,"x_min":50,"x_max":714,"o":"m 393 -14 q 216 19 293 -14 q 67 124 139 53 q 50 157 50 138 q 63 188 50 174 q 93 201 76 201 q 124 188 110 201 q 394 68 232 68 q 560 115 494 68 q 626 239 626 163 q 594 338 626 299 q 508 403 561 378 q 374 454 456 428 q 224 513 285 481 q 126 598 164 544 q 89 733 89 651 q 128 864 89 807 q 240 953 168 921 q 404 986 311 986 q 563 958 489 986 q 682 876 638 929 q 703 836 703 853 q 689 808 703 821 q 658 794 675 794 q 635 804 644 794 q 535 876 597 849 q 404 904 472 904 q 239 859 303 904 q 175 736 175 814 q 236 613 175 656 q 411 533 297 569 q 572 474 510 504 q 674 387 635 443 q 714 239 714 331 q 673 110 714 168 q 559 19 632 53 q 393 -14 486 -14 m 394 1036 q 375 1043 382 1036 q 368 1061 368 1050 q 382 1086 368 1072 l 506 1182 q 546 1197 524 1197 q 576 1185 564 1197 q 588 1156 588 1174 q 561 1113 588 1128 l 425 1044 q 394 1036 406 1036 z "},"Ṥ":{"ha":781,"x_min":50,"x_max":714,"o":"m 393 -14 q 216 19 293 -14 q 67 124 139 53 q 50 157 50 138 q 63 188 50 174 q 93 201 76 201 q 124 188 110 201 q 394 68 232 68 q 560 115 494 68 q 626 239 626 163 q 594 338 626 299 q 508 403 561 378 q 374 454 456 428 q 224 513 285 481 q 126 598 164 544 q 89 733 89 651 q 128 864 89 807 q 240 953 168 921 q 404 986 311 986 q 563 958 489 986 q 682 876 638 929 q 703 836 703 853 q 689 808 703 821 q 658 794 675 794 q 635 804 644 794 q 535 876 597 849 q 404 904 472 904 q 239 859 303 904 q 175 736 175 814 q 236 613 175 656 q 411 533 297 569 q 572 474 510 504 q 674 387 635 443 q 714 239 714 331 q 673 110 714 168 q 559 19 632 53 q 393 -14 486 -14 m 394 1036 q 375 1043 382 1036 q 368 1061 368 1050 q 382 1086 368 1072 l 506 1182 q 546 1197 524 1197 q 576 1185 564 1197 q 588 1156 588 1174 q 561 1113 588 1128 l 425 1044 q 394 1036 406 1036 m 453 1288 q 410 1302 425 1288 q 394 1343 394 1317 l 394 1357 q 410 1398 394 1383 q 454 1413 426 1413 q 510 1357 510 1413 l 510 1343 q 495 1302 510 1317 q 453 1288 481 1288 z "},"Š":{"ha":781,"x_min":50,"x_max":714,"o":"m 393 -14 q 216 19 293 -14 q 67 124 139 53 q 50 157 50 138 q 63 188 50 174 q 93 201 76 201 q 124 188 110 201 q 394 68 232 68 q 560 115 494 68 q 626 239 626 163 q 594 338 626 299 q 508 403 561 378 q 374 454 456 428 q 224 513 285 481 q 126 598 164 544 q 89 733 89 651 q 128 864 89 807 q 240 953 168 921 q 404 986 311 986 q 563 958 489 986 q 682 876 638 929 q 703 836 703 853 q 689 808 703 821 q 658 794 675 794 q 635 804 644 794 q 535 876 597 849 q 404 904 472 904 q 239 859 303 904 q 175 736 175 814 q 236 613 175 656 q 411 533 297 569 q 572 474 510 504 q 674 387 635 443 q 714 239 714 331 q 673 110 714 168 q 559 19 632 53 q 393 -14 486 -14 m 538 1229 q 554 1223 547 1229 q 561 1208 561 1217 q 550 1185 561 1197 l 443 1071 q 397 1047 428 1047 l 382 1047 q 335 1071 353 1047 l 229 1183 q 218 1207 218 1196 q 224 1222 218 1215 q 240 1228 231 1228 q 278 1211 257 1228 l 393 1125 l 500 1211 q 538 1229 522 1229 z "},"Ṧ":{"ha":781,"x_min":50,"x_max":714,"o":"m 393 -14 q 216 19 293 -14 q 67 124 139 53 q 50 157 50 138 q 63 188 50 174 q 93 201 76 201 q 124 188 110 201 q 394 68 232 68 q 560 115 494 68 q 626 239 626 163 q 594 338 626 299 q 508 403 561 378 q 374 454 456 428 q 224 513 285 481 q 126 598 164 544 q 89 733 89 651 q 128 864 89 807 q 240 953 168 921 q 404 986 311 986 q 563 958 489 986 q 682 876 638 929 q 703 836 703 853 q 689 808 703 821 q 658 794 675 794 q 635 804 644 794 q 535 876 597 849 q 404 904 472 904 q 239 859 303 904 q 175 736 175 814 q 236 613 175 656 q 411 533 297 569 q 572 474 510 504 q 674 387 635 443 q 714 239 714 331 q 673 110 714 168 q 559 19 632 53 q 393 -14 486 -14 m 538 1229 q 554 1223 547 1229 q 561 1208 561 1217 q 550 1185 561 1197 l 443 1071 q 397 1047 428 1047 l 382 1047 q 335 1071 353 1047 l 229 1183 q 218 1207 218 1196 q 224 1222 218 1215 q 240 1228 231 1228 q 278 1211 257 1228 l 393 1125 l 500 1211 q 538 1229 522 1229 m 390 1315 q 347 1330 363 1315 q 332 1371 332 1344 l 332 1385 q 348 1426 332 1411 q 392 1440 364 1440 q 447 1385 447 1440 l 447 1371 q 433 1330 447 1344 q 390 1315 418 1315 z "},"Ş":{"ha":781,"x_min":50,"x_max":714,"o":"m 714 239 q 675 113 714 169 q 566 22 636 56 q 407 -14 496 -12 l 333 -172 q 297 -200 322 -200 q 260 -186 281 -200 q 239 -156 239 -172 q 249 -131 239 -140 l 343 -12 q 195 29 261 -4 q 67 124 129 63 q 50 157 50 138 q 63 188 50 174 q 93 201 76 201 q 124 188 110 201 q 394 68 232 68 q 560 115 494 68 q 626 239 626 163 q 594 338 626 299 q 508 403 561 378 q 374 454 456 428 q 224 513 285 481 q 126 598 164 544 q 89 733 89 651 q 128 864 89 807 q 240 953 168 921 q 404 986 311 986 q 563 958 489 986 q 682 876 638 929 q 703 836 703 853 q 689 808 703 821 q 658 794 675 794 q 635 804 644 794 q 535 876 597 849 q 404 904 472 904 q 239 859 303 904 q 175 736 175 814 q 236 613 175 656 q 411 533 297 569 q 572 474 510 504 q 674 387 635 443 q 714 239 714 331 z "},"Ŝ":{"ha":781,"x_min":50,"x_max":714,"o":"m 393 -14 q 216 19 293 -14 q 67 124 139 53 q 50 157 50 138 q 63 188 50 174 q 93 201 76 201 q 124 188 110 201 q 394 68 232 68 q 560 115 494 68 q 626 239 626 163 q 594 338 626 299 q 508 403 561 378 q 374 454 456 428 q 224 513 285 481 q 126 598 164 544 q 89 733 89 651 q 128 864 89 807 q 240 953 168 921 q 404 986 311 986 q 563 958 489 986 q 682 876 638 929 q 703 836 703 853 q 689 808 703 821 q 658 794 675 794 q 635 804 644 794 q 535 876 597 849 q 404 904 472 904 q 239 859 303 904 q 175 736 175 814 q 236 613 175 656 q 411 533 297 569 q 572 474 510 504 q 674 387 635 443 q 714 239 714 331 q 673 110 714 168 q 559 19 632 53 q 393 -14 486 -14 m 549 1103 q 560 1079 560 1090 q 553 1065 560 1072 q 538 1058 546 1058 q 500 1076 522 1058 l 385 1160 l 278 1075 q 240 1057 253 1057 q 224 1063 231 1057 q 217 1078 217 1069 q 228 1101 217 1089 l 335 1215 q 356 1233 346 1228 q 381 1239 365 1239 l 396 1239 q 421 1233 411 1239 q 443 1215 431 1228 l 549 1103 z "},"Ș":{"ha":781,"x_min":50,"x_max":714,"o":"m 393 -14 q 216 19 293 -14 q 67 124 139 53 q 50 157 50 138 q 63 188 50 174 q 93 201 76 201 q 124 188 110 201 q 394 68 232 68 q 560 115 494 68 q 626 239 626 163 q 594 338 626 299 q 508 403 561 378 q 374 454 456 428 q 224 513 285 481 q 126 598 164 544 q 89 733 89 651 q 128 864 89 807 q 240 953 168 921 q 404 986 311 986 q 563 958 489 986 q 682 876 638 929 q 703 836 703 853 q 689 808 703 821 q 658 794 675 794 q 635 804 644 794 q 535 876 597 849 q 404 904 472 904 q 239 859 303 904 q 175 736 175 814 q 236 613 175 656 q 411 533 297 569 q 572 474 510 504 q 674 387 635 443 q 714 239 714 331 q 673 110 714 168 q 559 19 632 53 q 393 -14 486 -14 m 472 -149 q 440 -223 472 -192 q 365 -254 407 -254 q 317 -226 317 -254 q 323 -208 317 -215 q 338 -201 329 -201 q 350 -203 342 -201 q 365 -206 358 -206 q 378 -204 374 -206 q 397 -192 389 -203 q 404 -161 404 -181 q 390 -143 404 -143 q 377 -149 385 -143 q 360 -156 369 -156 q 333 -144 343 -156 q 324 -117 324 -132 q 343 -79 324 -93 q 396 -65 363 -65 q 451 -87 429 -65 q 472 -149 472 -108 z "},"Ṡ":{"ha":781,"x_min":50,"x_max":714,"o":"m 393 -14 q 216 19 293 -14 q 67 124 139 53 q 50 157 50 138 q 63 188 50 174 q 93 201 76 201 q 124 188 110 201 q 394 68 232 68 q 560 115 494 68 q 626 239 626 163 q 594 338 626 299 q 508 403 561 378 q 374 454 456 428 q 224 513 285 481 q 126 598 164 544 q 89 733 89 651 q 128 864 89 807 q 240 953 168 921 q 404 986 311 986 q 563 958 489 986 q 682 876 638 929 q 703 836 703 853 q 689 808 703 821 q 658 794 675 794 q 635 804 644 794 q 535 876 597 849 q 404 904 472 904 q 239 859 303 904 q 175 736 175 814 q 236 613 175 656 q 411 533 297 569 q 572 474 510 504 q 674 387 635 443 q 714 239 714 331 q 673 110 714 168 q 559 19 632 53 q 393 -14 486 -14 m 390 1069 q 347 1084 363 1069 q 332 1125 332 1099 l 332 1139 q 348 1180 332 1165 q 392 1194 364 1194 q 447 1139 447 1194 l 447 1125 q 433 1084 447 1099 q 390 1069 418 1069 z "},"Ṣ":{"ha":781,"x_min":50,"x_max":714,"o":"m 393 -14 q 216 19 293 -14 q 67 124 139 53 q 50 157 50 138 q 63 188 50 174 q 93 201 76 201 q 124 188 110 201 q 394 68 232 68 q 560 115 494 68 q 626 239 626 163 q 594 338 626 299 q 508 403 561 378 q 374 454 456 428 q 224 513 285 481 q 126 598 164 544 q 89 733 89 651 q 128 864 89 807 q 240 953 168 921 q 404 986 311 986 q 563 958 489 986 q 682 876 638 929 q 703 836 703 853 q 689 808 703 821 q 658 794 675 794 q 635 804 644 794 q 535 876 597 849 q 404 904 472 904 q 239 859 303 904 q 175 736 175 814 q 236 613 175 656 q 411 533 297 569 q 572 474 510 504 q 674 387 635 443 q 714 239 714 331 q 673 110 714 168 q 559 19 632 53 q 393 -14 486 -14 m 390 -194 q 347 -180 363 -194 q 332 -139 332 -165 l 332 -124 q 348 -84 332 -99 q 390 -69 364 -69 q 447 -124 447 -69 l 447 -139 q 433 -180 447 -165 q 390 -194 418 -194 z "},"Ṩ":{"ha":781,"x_min":50,"x_max":714,"o":"m 393 -14 q 216 19 293 -14 q 67 124 139 53 q 50 157 50 138 q 63 188 50 174 q 93 201 76 201 q 124 188 110 201 q 394 68 232 68 q 560 115 494 68 q 626 239 626 163 q 594 338 626 299 q 508 403 561 378 q 374 454 456 428 q 224 513 285 481 q 126 598 164 544 q 89 733 89 651 q 128 864 89 807 q 240 953 168 921 q 404 986 311 986 q 563 958 489 986 q 682 876 638 929 q 703 836 703 853 q 689 808 703 821 q 658 794 675 794 q 635 804 644 794 q 535 876 597 849 q 404 904 472 904 q 239 859 303 904 q 175 736 175 814 q 236 613 175 656 q 411 533 297 569 q 572 474 510 504 q 674 387 635 443 q 714 239 714 331 q 673 110 714 168 q 559 19 632 53 q 393 -14 486 -14 m 390 -194 q 347 -180 363 -194 q 332 -139 332 -165 l 332 -124 q 348 -84 332 -99 q 390 -69 364 -69 q 447 -124 447 -69 l 447 -139 q 433 -180 447 -165 q 390 -194 418 -194 m 390 1069 q 347 1084 363 1069 q 332 1125 332 1099 l 332 1139 q 348 1180 332 1165 q 392 1194 364 1194 q 447 1139 447 1194 l 447 1125 q 433 1084 447 1099 q 390 1069 418 1069 z "},"ẞ":{"ha":981,"x_min":131,"x_max":913,"o":"m 706 514 q 813 450 772 479 q 883 369 854 421 q 913 236 913 317 q 877 112 913 169 q 778 20 842 54 q 636 -14 715 -14 q 399 104 490 -14 q 386 140 386 124 q 399 171 386 157 q 429 185 413 185 q 461 169 447 185 q 541 97 494 124 q 635 69 588 69 q 769 115 715 69 q 824 232 824 160 q 799 319 822 283 q 742 378 775 356 q 651 432 710 400 q 557 493 593 465 q 496 565 521 521 q 471 671 471 608 q 540 823 471 764 q 726 899 610 882 q 546 933 649 933 q 300 847 379 933 q 219 625 221 761 l 217 46 q 205 15 217 26 q 174 4 193 4 q 142 15 154 4 q 131 46 131 26 l 133 613 q 175 808 133 718 q 310 953 217 897 q 546 1008 403 1008 q 694 989 622 1008 q 813 939 765 969 q 842 913 833 925 q 851 886 851 901 q 839 861 851 868 q 797 849 826 854 q 622 791 683 833 q 561 685 561 749 q 581 611 561 642 q 628 560 600 581 q 706 514 657 540 z "},"Ə":{"ha":1054,"x_min":67,"x_max":988,"o":"m 525 986 q 757 919 651 986 q 925 737 863 851 q 988 486 988 622 q 926 235 988 350 q 758 53 864 121 q 526 -14 651 -14 q 303 48 407 -14 q 135 217 199 110 q 67 453 71 324 l 67 479 q 80 510 67 499 q 113 522 93 522 l 897 522 q 837 720 889 633 q 703 855 785 807 q 525 903 621 903 q 341 867 419 903 q 199 753 263 831 q 167 739 182 739 q 143 747 156 739 q 125 781 125 761 q 138 810 125 797 q 307 943 213 900 q 525 986 401 986 m 526 69 q 701 117 619 69 q 834 248 782 164 q 896 439 886 332 l 154 439 q 215 253 163 338 q 349 119 267 168 q 526 69 432 69 z "},"T":{"ha":839,"x_min":47,"x_max":792,"o":"m 750 972 q 780 961 768 972 q 792 932 792 950 q 780 903 792 914 q 750 893 768 893 l 463 893 l 463 42 q 450 12 463 24 q 419 0 438 0 q 388 12 400 0 q 376 42 376 24 l 376 893 l 89 893 q 59 904 71 893 q 47 933 47 915 q 59 961 47 950 q 89 972 71 972 l 750 972 z "},"Ŧ":{"ha":839,"x_min":47,"x_max":792,"o":"m 750 972 q 780 961 768 972 q 792 932 792 950 q 780 903 792 914 q 750 893 768 893 l 463 893 l 463 497 l 538 497 q 568 487 557 497 q 579 458 579 476 q 568 430 579 440 q 538 419 557 419 l 463 419 l 463 42 q 450 12 463 24 q 419 0 438 0 q 388 12 400 0 q 376 42 376 24 l 376 419 l 310 419 q 279 431 290 419 q 268 460 268 442 q 280 487 268 476 q 310 497 292 497 l 376 497 l 376 893 l 89 893 q 59 904 71 893 q 47 933 47 915 q 59 961 47 950 q 89 972 71 972 l 750 972 z "},"Ť":{"ha":839,"x_min":47,"x_max":792,"o":"m 750 972 q 780 961 768 972 q 792 932 792 950 q 780 903 792 914 q 750 893 768 893 l 463 893 l 463 42 q 450 12 463 24 q 419 0 438 0 q 388 12 400 0 q 376 42 376 24 l 376 893 l 89 893 q 59 904 71 893 q 47 933 47 915 q 59 961 47 950 q 89 972 71 972 l 750 972 m 567 1229 q 583 1223 576 1229 q 590 1208 590 1217 q 579 1185 590 1197 l 472 1071 q 426 1047 457 1047 l 411 1047 q 364 1071 382 1047 l 258 1183 q 247 1207 247 1196 q 253 1222 247 1215 q 269 1228 260 1228 q 307 1211 286 1228 l 422 1125 l 529 1211 q 567 1229 551 1229 z "},"Ţ":{"ha":839,"x_min":47,"x_max":792,"o":"m 750 972 q 780 961 768 972 q 792 932 792 950 q 780 903 792 914 q 750 893 768 893 l 463 893 l 463 42 q 446 8 463 22 l 363 -172 q 326 -200 351 -200 q 289 -186 310 -200 q 268 -156 268 -172 q 278 -131 268 -140 l 390 10 q 376 42 376 24 l 376 893 l 89 893 q 59 904 71 893 q 47 933 47 915 q 59 961 47 950 q 89 972 71 972 l 750 972 z "},"Ț":{"ha":839,"x_min":47,"x_max":792,"o":"m 750 972 q 780 961 768 972 q 792 932 792 950 q 780 903 792 914 q 750 893 768 893 l 463 893 l 463 42 q 450 12 463 24 q 419 0 438 0 q 388 12 400 0 q 376 42 376 24 l 376 893 l 89 893 q 59 904 71 893 q 47 933 47 915 q 59 961 47 950 q 89 972 71 972 l 750 972 m 501 -149 q 469 -223 501 -192 q 394 -254 436 -254 q 346 -226 346 -254 q 352 -208 346 -215 q 367 -201 358 -201 q 379 -203 371 -201 q 394 -206 388 -206 q 407 -204 403 -206 q 426 -192 418 -203 q 433 -161 433 -181 q 419 -143 433 -143 q 406 -149 414 -143 q 389 -156 399 -156 q 363 -144 372 -156 q 353 -117 353 -132 q 372 -79 353 -93 q 425 -65 392 -65 q 480 -87 458 -65 q 501 -149 501 -108 z "},"Ṭ":{"ha":839,"x_min":47,"x_max":792,"o":"m 750 972 q 780 961 768 972 q 792 932 792 950 q 780 903 792 914 q 750 893 768 893 l 463 893 l 463 42 q 450 12 463 24 q 419 0 438 0 q 388 12 400 0 q 376 42 376 24 l 376 893 l 89 893 q 59 904 71 893 q 47 933 47 915 q 59 961 47 950 q 89 972 71 972 l 750 972 m 419 -194 q 376 -180 392 -194 q 361 -139 361 -165 l 361 -124 q 377 -84 361 -99 q 419 -69 393 -69 q 476 -124 476 -69 l 476 -139 q 462 -180 476 -165 q 419 -194 447 -194 z "},"Ṯ":{"ha":839,"x_min":47,"x_max":792,"o":"m 750 972 q 780 961 768 972 q 792 932 792 950 q 780 903 792 914 q 750 893 768 893 l 463 893 l 463 42 q 450 12 463 24 q 419 0 438 0 q 388 12 400 0 q 376 42 376 24 l 376 893 l 89 893 q 59 904 71 893 q 47 933 47 915 q 59 961 47 950 q 89 972 71 972 l 750 972 m 282 -175 q 243 -140 243 -175 q 282 -106 243 -106 l 574 -106 q 613 -140 613 -106 q 574 -175 613 -175 l 282 -175 z "},"U":{"ha":990,"x_min":131,"x_max":860,"o":"m 818 972 q 848 960 836 972 q 860 931 860 949 l 860 356 q 811 169 860 254 q 679 36 763 85 q 496 -12 596 -12 q 311 36 394 -12 q 179 169 228 85 q 131 356 131 254 l 131 931 q 142 960 131 949 q 175 972 154 972 q 204 960 192 972 q 217 931 217 949 l 217 356 q 254 213 217 278 q 356 109 292 147 q 496 71 421 71 q 637 109 572 71 q 740 213 701 147 q 778 356 778 278 l 778 931 q 789 960 778 949 q 818 972 800 972 z "},"Ú":{"ha":990,"x_min":131,"x_max":860,"o":"m 818 972 q 848 960 836 972 q 860 931 860 949 l 860 356 q 811 169 860 254 q 679 36 763 85 q 496 -12 596 -12 q 311 36 394 -12 q 179 169 228 85 q 131 356 131 254 l 131 931 q 142 960 131 949 q 175 972 154 972 q 204 960 192 972 q 217 931 217 949 l 217 356 q 254 213 217 278 q 356 109 292 147 q 496 71 421 71 q 637 109 572 71 q 740 213 701 147 q 778 356 778 278 l 778 931 q 789 960 778 949 q 818 972 800 972 m 500 1036 q 481 1043 488 1036 q 474 1061 474 1050 q 488 1086 474 1072 l 611 1182 q 651 1197 629 1197 q 681 1185 669 1197 q 693 1156 693 1174 q 667 1113 693 1128 l 531 1044 q 500 1036 511 1036 z "},"Ŭ":{"ha":990,"x_min":131,"x_max":860,"o":"m 818 972 q 848 960 836 972 q 860 931 860 949 l 860 356 q 811 169 860 254 q 679 36 763 85 q 496 -12 596 -12 q 311 36 394 -12 q 179 169 228 85 q 131 356 131 254 l 131 931 q 142 960 131 949 q 175 972 154 972 q 204 960 192 972 q 217 931 217 949 l 217 356 q 254 213 217 278 q 356 109 292 147 q 496 71 421 71 q 637 109 572 71 q 740 213 701 147 q 778 356 778 278 l 778 931 q 789 960 778 949 q 818 972 800 972 m 496 1075 q 374 1112 424 1075 q 306 1215 325 1149 q 303 1231 303 1226 q 310 1250 303 1243 q 332 1257 318 1257 q 355 1251 347 1257 q 374 1226 363 1244 q 496 1146 410 1146 q 618 1226 583 1146 q 635 1249 625 1242 q 660 1256 644 1256 q 689 1232 689 1256 q 686 1215 689 1226 q 617 1112 667 1149 q 496 1075 568 1075 z "},"Ǔ":{"ha":990,"x_min":131,"x_max":860,"o":"m 818 972 q 848 960 836 972 q 860 931 860 949 l 860 356 q 811 169 860 254 q 679 36 763 85 q 496 -12 596 -12 q 311 36 394 -12 q 179 169 228 85 q 131 356 131 254 l 131 931 q 142 960 131 949 q 175 972 154 972 q 204 960 192 972 q 217 931 217 949 l 217 356 q 254 213 217 278 q 356 109 292 147 q 496 71 421 71 q 637 109 572 71 q 740 213 701 147 q 778 356 778 278 l 778 931 q 789 960 778 949 q 818 972 800 972 m 643 1229 q 660 1223 653 1229 q 667 1208 667 1217 q 656 1185 667 1197 l 549 1071 q 503 1047 533 1047 l 488 1047 q 440 1071 458 1047 l 335 1183 q 324 1207 324 1196 q 330 1222 324 1215 q 346 1228 336 1228 q 383 1211 363 1228 l 499 1125 l 606 1211 q 643 1229 628 1229 z "},"Û":{"ha":990,"x_min":131,"x_max":860,"o":"m 818 972 q 848 960 836 972 q 860 931 860 949 l 860 356 q 811 169 860 254 q 679 36 763 85 q 496 -12 596 -12 q 311 36 394 -12 q 179 169 228 85 q 131 356 131 254 l 131 931 q 142 960 131 949 q 175 972 154 972 q 204 960 192 972 q 217 931 217 949 l 217 356 q 254 213 217 278 q 356 109 292 147 q 496 71 421 71 q 637 109 572 71 q 740 213 701 147 q 778 356 778 278 l 778 931 q 789 960 778 949 q 818 972 800 972 m 654 1103 q 665 1079 665 1090 q 658 1065 665 1072 q 643 1058 651 1058 q 606 1076 628 1058 l 490 1160 l 383 1075 q 346 1057 358 1057 q 329 1063 336 1057 q 322 1078 322 1069 q 333 1101 322 1089 l 440 1215 q 461 1233 451 1228 q 486 1239 471 1239 l 501 1239 q 526 1233 517 1239 q 549 1215 536 1228 l 654 1103 z "},"Ȕ":{"ha":990,"x_min":131,"x_max":860,"o":"m 818 972 q 848 960 836 972 q 860 931 860 949 l 860 356 q 811 169 860 254 q 679 36 763 85 q 496 -12 596 -12 q 311 36 394 -12 q 179 169 228 85 q 131 356 131 254 l 131 931 q 142 960 131 949 q 175 972 154 972 q 204 960 192 972 q 217 931 217 949 l 217 356 q 254 213 217 278 q 356 109 292 147 q 496 71 421 71 q 637 109 572 71 q 740 213 701 147 q 778 356 778 278 l 778 931 q 789 960 778 949 q 818 972 800 972 m 428 1049 q 409 1053 418 1049 q 397 1058 400 1057 l 263 1125 q 235 1169 235 1140 q 247 1199 235 1186 q 276 1211 258 1211 q 317 1194 297 1211 l 440 1099 q 454 1074 454 1088 q 447 1056 454 1064 q 428 1049 440 1049 m 661 1049 q 631 1057 650 1049 l 494 1125 q 468 1168 468 1140 q 480 1198 468 1186 q 510 1210 492 1210 q 550 1194 532 1210 l 674 1099 q 688 1074 688 1085 q 681 1056 688 1063 q 661 1049 674 1049 z "},"Ü":{"ha":990,"x_min":131,"x_max":860,"o":"m 818 972 q 848 960 836 972 q 860 931 860 949 l 860 356 q 811 169 860 254 q 679 36 763 85 q 496 -12 596 -12 q 311 36 394 -12 q 179 169 228 85 q 131 356 131 254 l 131 931 q 142 960 131 949 q 175 972 154 972 q 204 960 192 972 q 217 931 217 949 l 217 356 q 254 213 217 278 q 356 109 292 147 q 496 71 421 71 q 637 109 572 71 q 740 213 701 147 q 778 356 778 278 l 778 931 q 789 960 778 949 q 818 972 800 972 m 376 1076 q 335 1091 350 1076 q 319 1132 319 1106 l 319 1146 q 335 1187 319 1172 q 378 1201 351 1201 q 419 1187 404 1201 q 435 1146 435 1172 l 435 1132 q 419 1091 435 1106 q 376 1076 404 1076 m 615 1076 q 574 1091 589 1076 q 558 1132 558 1106 l 558 1146 q 574 1187 558 1172 q 617 1201 589 1201 q 658 1187 643 1201 q 674 1146 674 1172 l 674 1132 q 658 1091 674 1106 q 615 1076 643 1076 z "},"Ụ":{"ha":990,"x_min":131,"x_max":860,"o":"m 818 972 q 848 960 836 972 q 860 931 860 949 l 860 356 q 811 169 860 254 q 679 36 763 85 q 496 -12 596 -12 q 311 36 394 -12 q 179 169 228 85 q 131 356 131 254 l 131 931 q 142 960 131 949 q 175 972 154 972 q 204 960 192 972 q 217 931 217 949 l 217 356 q 254 213 217 278 q 356 109 292 147 q 496 71 421 71 q 637 109 572 71 q 740 213 701 147 q 778 356 778 278 l 778 931 q 789 960 778 949 q 818 972 800 972 m 496 -194 q 453 -180 468 -194 q 438 -139 438 -165 l 438 -124 q 453 -84 438 -99 q 496 -69 469 -69 q 553 -124 553 -69 l 553 -139 q 538 -180 553 -165 q 496 -194 524 -194 z "},"Ù":{"ha":990,"x_min":131,"x_max":860,"o":"m 818 972 q 848 960 836 972 q 860 931 860 949 l 860 356 q 811 169 860 254 q 679 36 763 85 q 496 -12 596 -12 q 311 36 394 -12 q 179 169 228 85 q 131 356 131 254 l 131 931 q 142 960 131 949 q 175 972 154 972 q 204 960 192 972 q 217 931 217 949 l 217 356 q 254 213 217 278 q 356 109 292 147 q 496 71 421 71 q 637 109 572 71 q 740 213 701 147 q 778 356 778 278 l 778 931 q 789 960 778 949 q 818 972 800 972 m 496 1038 q 465 1046 485 1038 l 331 1114 q 303 1157 303 1129 q 315 1187 303 1175 q 344 1199 326 1199 q 385 1183 367 1199 l 508 1088 q 522 1063 522 1074 q 515 1044 522 1051 q 496 1038 508 1038 z "},"Ủ":{"ha":990,"x_min":131,"x_max":860,"o":"m 818 972 q 848 960 836 972 q 860 931 860 949 l 860 356 q 811 169 860 254 q 679 36 763 85 q 496 -12 596 -12 q 311 36 394 -12 q 179 169 228 85 q 131 356 131 254 l 131 931 q 142 960 131 949 q 175 972 154 972 q 204 960 192 972 q 217 931 217 949 l 217 356 q 254 213 217 278 q 356 109 292 147 q 496 71 421 71 q 637 109 572 71 q 740 213 701 147 q 778 356 778 278 l 778 931 q 789 960 778 949 q 818 972 800 972 m 389 1254 q 492 1297 435 1297 q 578 1265 551 1297 q 606 1194 606 1233 q 594 1153 606 1172 q 558 1111 582 1135 q 542 1074 542 1092 q 532 1057 540 1063 q 510 1051 524 1051 q 491 1058 499 1051 q 483 1075 483 1065 q 503 1131 483 1108 q 535 1167 526 1156 q 543 1193 543 1178 q 528 1223 543 1211 q 493 1235 514 1235 q 429 1210 463 1235 q 406 1199 418 1199 q 383 1210 394 1199 q 376 1229 376 1219 q 389 1254 376 1242 z "},"Ư":{"ha":990,"x_min":131,"x_max":1017,"o":"m 1017 1079 q 976 960 1017 1007 q 860 901 935 913 l 860 356 q 811 169 860 254 q 679 36 763 85 q 496 -12 596 -12 q 311 36 394 -12 q 179 169 228 85 q 131 356 131 254 l 131 931 q 142 960 131 949 q 175 972 154 972 q 204 960 192 972 q 217 931 217 949 l 217 356 q 254 213 217 278 q 356 109 292 147 q 496 71 421 71 q 637 109 572 71 q 740 213 701 147 q 778 356 778 278 l 778 931 q 788 958 778 947 q 814 972 799 969 q 913 997 881 972 q 944 1079 944 1022 q 953 1115 944 1100 q 981 1129 963 1129 q 1017 1079 1017 1129 z "},"Ứ":{"ha":990,"x_min":131,"x_max":1017,"o":"m 1017 1079 q 976 960 1017 1007 q 860 901 935 913 l 860 356 q 811 169 860 254 q 679 36 763 85 q 496 -12 596 -12 q 311 36 394 -12 q 179 169 228 85 q 131 356 131 254 l 131 931 q 142 960 131 949 q 175 972 154 972 q 204 960 192 972 q 217 931 217 949 l 217 356 q 254 213 217 278 q 356 109 292 147 q 496 71 421 71 q 637 109 572 71 q 740 213 701 147 q 778 356 778 278 l 778 931 q 788 958 778 947 q 814 972 799 969 q 913 997 881 972 q 944 1079 944 1022 q 953 1115 944 1100 q 981 1129 963 1129 q 1017 1079 1017 1129 m 503 1036 q 483 1043 490 1036 q 476 1061 476 1050 q 490 1086 476 1072 l 614 1182 q 654 1197 632 1197 q 684 1185 672 1197 q 696 1156 696 1174 q 669 1113 696 1128 l 533 1044 q 503 1036 514 1036 z "},"Ự":{"ha":990,"x_min":131,"x_max":1017,"o":"m 1017 1079 q 976 960 1017 1007 q 860 901 935 913 l 860 356 q 811 169 860 254 q 679 36 763 85 q 496 -12 596 -12 q 311 36 394 -12 q 179 169 228 85 q 131 356 131 254 l 131 931 q 142 960 131 949 q 175 972 154 972 q 204 960 192 972 q 217 931 217 949 l 217 356 q 254 213 217 278 q 356 109 292 147 q 496 71 421 71 q 637 109 572 71 q 740 213 701 147 q 778 356 778 278 l 778 931 q 788 958 778 947 q 814 972 799 969 q 913 997 881 972 q 944 1079 944 1022 q 953 1115 944 1100 q 981 1129 963 1129 q 1017 1079 1017 1129 m 499 -194 q 456 -180 471 -194 q 440 -139 440 -165 l 440 -124 q 456 -84 440 -99 q 499 -69 472 -69 q 556 -124 556 -69 l 556 -139 q 541 -180 556 -165 q 499 -194 526 -194 z "},"Ừ":{"ha":990,"x_min":131,"x_max":1017,"o":"m 1017 1079 q 976 960 1017 1007 q 860 901 935 913 l 860 356 q 811 169 860 254 q 679 36 763 85 q 496 -12 596 -12 q 311 36 394 -12 q 179 169 228 85 q 131 356 131 254 l 131 931 q 142 960 131 949 q 175 972 154 972 q 204 960 192 972 q 217 931 217 949 l 217 356 q 254 213 217 278 q 356 109 292 147 q 496 71 421 71 q 637 109 572 71 q 740 213 701 147 q 778 356 778 278 l 778 931 q 788 958 778 947 q 814 972 799 969 q 913 997 881 972 q 944 1079 944 1022 q 953 1115 944 1100 q 981 1129 963 1129 q 1017 1079 1017 1129 m 499 1038 q 468 1046 488 1038 l 333 1114 q 306 1157 306 1129 q 317 1187 306 1175 q 347 1199 329 1199 q 388 1183 369 1199 l 511 1088 q 525 1063 525 1074 q 518 1044 525 1051 q 499 1038 511 1038 z "},"Ử":{"ha":990,"x_min":131,"x_max":1017,"o":"m 1017 1079 q 976 960 1017 1007 q 860 901 935 913 l 860 356 q 811 169 860 254 q 679 36 763 85 q 496 -12 596 -12 q 311 36 394 -12 q 179 169 228 85 q 131 356 131 254 l 131 931 q 142 960 131 949 q 175 972 154 972 q 204 960 192 972 q 217 931 217 949 l 217 356 q 254 213 217 278 q 356 109 292 147 q 496 71 421 71 q 637 109 572 71 q 740 213 701 147 q 778 356 778 278 l 778 931 q 788 958 778 947 q 814 972 799 969 q 913 997 881 972 q 944 1079 944 1022 q 953 1115 944 1100 q 981 1129 963 1129 q 1017 1079 1017 1129 m 392 1254 q 494 1297 438 1297 q 581 1265 554 1297 q 608 1194 608 1233 q 597 1153 608 1172 q 561 1111 585 1135 q 544 1074 544 1092 q 535 1057 543 1063 q 513 1051 526 1051 q 494 1058 501 1051 q 486 1075 486 1065 q 506 1131 486 1108 q 538 1167 529 1156 q 546 1193 546 1178 q 531 1223 546 1211 q 496 1235 517 1235 q 432 1210 465 1235 q 408 1199 421 1199 q 386 1210 397 1199 q 379 1229 379 1219 q 392 1254 379 1242 z "},"Ữ":{"ha":990,"x_min":131,"x_max":1017,"o":"m 1017 1079 q 976 960 1017 1007 q 860 901 935 913 l 860 356 q 811 169 860 254 q 679 36 763 85 q 496 -12 596 -12 q 311 36 394 -12 q 179 169 228 85 q 131 356 131 254 l 131 931 q 142 960 131 949 q 175 972 154 972 q 204 960 192 972 q 217 931 217 949 l 217 356 q 254 213 217 278 q 356 109 292 147 q 496 71 421 71 q 637 109 572 71 q 740 213 701 147 q 778 356 778 278 l 778 931 q 788 958 778 947 q 814 972 799 969 q 913 997 881 972 q 944 1079 944 1022 q 953 1115 944 1100 q 981 1129 963 1129 q 1017 1079 1017 1129 m 319 1071 q 295 1082 304 1071 q 286 1115 286 1093 q 288 1132 286 1126 q 331 1200 297 1175 q 408 1225 364 1225 q 460 1213 433 1225 q 522 1179 488 1201 q 570 1153 553 1161 q 601 1144 588 1144 q 633 1159 621 1144 q 647 1199 644 1174 q 654 1224 646 1214 q 678 1235 663 1235 q 703 1223 694 1235 q 713 1190 713 1211 l 711 1175 q 673 1103 703 1129 q 599 1076 643 1076 q 488 1121 560 1076 q 438 1147 456 1139 q 404 1156 419 1156 q 370 1142 385 1156 q 350 1101 356 1129 q 341 1078 350 1086 q 319 1071 332 1071 z "},"Ű":{"ha":990,"x_min":131,"x_max":860,"o":"m 818 972 q 848 960 836 972 q 860 931 860 949 l 860 356 q 811 169 860 254 q 679 36 763 85 q 496 -12 596 -12 q 311 36 394 -12 q 179 169 228 85 q 131 356 131 254 l 131 931 q 142 960 131 949 q 175 972 154 972 q 204 960 192 972 q 217 931 217 949 l 217 356 q 254 213 217 278 q 356 109 292 147 q 496 71 421 71 q 637 109 572 71 q 740 213 701 147 q 778 356 778 278 l 778 931 q 789 960 778 949 q 818 972 800 972 m 357 1033 q 342 1040 347 1033 q 336 1054 336 1046 q 346 1081 336 1064 l 425 1199 q 468 1226 439 1226 q 501 1215 488 1226 q 515 1183 515 1203 q 501 1154 515 1168 l 406 1057 q 357 1033 379 1033 m 575 1033 q 560 1040 565 1033 q 554 1054 554 1046 q 564 1081 554 1065 l 643 1200 q 686 1225 657 1225 q 718 1215 704 1225 q 732 1185 732 1204 q 719 1154 732 1167 l 624 1057 q 575 1033 597 1033 z "},"Ȗ":{"ha":990,"x_min":131,"x_max":860,"o":"m 818 972 q 848 960 836 972 q 860 931 860 949 l 860 356 q 811 169 860 254 q 679 36 763 85 q 496 -12 596 -12 q 311 36 394 -12 q 179 169 228 85 q 131 356 131 254 l 131 931 q 142 960 131 949 q 175 972 154 972 q 204 960 192 972 q 217 931 217 949 l 217 356 q 254 213 217 278 q 356 109 292 147 q 496 71 421 71 q 637 109 572 71 q 740 213 701 147 q 778 356 778 278 l 778 931 q 789 960 778 949 q 818 972 800 972 m 494 1201 q 617 1162 565 1201 q 675 1065 668 1122 q 669 1039 678 1050 q 644 1028 660 1028 q 619 1036 629 1028 q 603 1061 610 1044 q 564 1113 593 1094 q 494 1132 535 1132 q 424 1113 453 1132 q 386 1061 394 1094 q 369 1036 379 1044 q 343 1028 360 1028 q 319 1038 328 1028 q 313 1064 310 1049 q 371 1162 319 1122 q 494 1201 422 1201 z "},"Ū":{"ha":990,"x_min":131,"x_max":860,"o":"m 818 972 q 848 960 836 972 q 860 931 860 949 l 860 356 q 811 169 860 254 q 679 36 763 85 q 496 -12 596 -12 q 311 36 394 -12 q 179 169 228 85 q 131 356 131 254 l 131 931 q 142 960 131 949 q 175 972 154 972 q 204 960 192 972 q 217 931 217 949 l 217 356 q 254 213 217 278 q 356 109 292 147 q 496 71 421 71 q 637 109 572 71 q 740 213 701 147 q 778 356 778 278 l 778 931 q 789 960 778 949 q 818 972 800 972 m 324 1094 q 283 1129 283 1094 q 324 1165 283 1165 l 678 1165 q 718 1129 718 1165 q 678 1094 718 1094 l 324 1094 z "},"Ṻ":{"ha":990,"x_min":131,"x_max":860,"o":"m 818 972 q 848 960 836 972 q 860 931 860 949 l 860 356 q 811 169 860 254 q 679 36 763 85 q 496 -12 596 -12 q 311 36 394 -12 q 179 169 228 85 q 131 356 131 254 l 131 931 q 142 960 131 949 q 175 972 154 972 q 204 960 192 972 q 217 931 217 949 l 217 356 q 254 213 217 278 q 356 109 292 147 q 496 71 421 71 q 637 109 572 71 q 740 213 701 147 q 778 356 778 278 l 778 931 q 789 960 778 949 q 818 972 800 972 m 324 1094 q 283 1129 283 1094 q 324 1165 283 1165 l 678 1165 q 718 1129 718 1165 q 678 1094 718 1094 l 324 1094 m 376 1290 q 335 1305 350 1290 q 319 1346 319 1319 l 319 1360 q 335 1401 319 1386 q 378 1415 351 1415 q 419 1401 404 1415 q 435 1360 435 1386 l 435 1346 q 419 1305 435 1319 q 376 1290 404 1290 m 615 1290 q 574 1305 589 1290 q 558 1346 558 1319 l 558 1360 q 574 1401 558 1386 q 617 1415 589 1415 q 658 1401 643 1415 q 674 1360 674 1386 l 674 1346 q 658 1305 674 1319 q 615 1290 643 1290 z "},"Ų":{"ha":990,"x_min":131,"x_max":860,"o":"m 818 972 q 848 960 836 972 q 860 931 860 949 l 860 356 q 812 167 860 254 q 679 38 764 81 q 577 -30 614 3 q 540 -115 540 -62 q 560 -173 540 -151 q 608 -194 581 -194 q 649 -179 639 -194 q 685 -157 663 -157 q 707 -165 699 -157 q 715 -187 715 -174 q 681 -242 715 -218 q 600 -265 647 -265 q 506 -228 546 -265 q 467 -132 467 -192 q 517 -12 467 -62 l 496 -12 q 311 36 394 -12 q 179 169 228 85 q 131 356 131 254 l 131 931 q 142 960 131 949 q 175 972 154 972 q 205 960 193 972 q 217 931 217 949 l 217 356 q 254 213 217 278 q 356 109 292 147 q 496 71 421 71 q 638 108 574 71 q 740 211 703 146 q 778 356 778 276 l 778 931 q 790 960 778 949 q 818 972 801 972 z "},"Ů":{"ha":990,"x_min":131,"x_max":860,"o":"m 818 972 q 848 960 836 972 q 860 931 860 949 l 860 356 q 811 169 860 254 q 679 36 763 85 q 496 -12 596 -12 q 311 36 394 -12 q 179 169 228 85 q 131 356 131 254 l 131 931 q 142 960 131 949 q 175 972 154 972 q 204 960 192 972 q 217 931 217 949 l 217 356 q 254 213 217 278 q 356 109 292 147 q 496 71 421 71 q 637 109 572 71 q 740 213 701 147 q 778 356 778 278 l 778 931 q 789 960 778 949 q 818 972 800 972 m 496 1032 q 397 1072 439 1032 q 354 1167 354 1113 q 397 1264 354 1224 q 496 1304 439 1304 q 595 1264 553 1304 q 638 1167 638 1224 q 595 1072 638 1113 q 496 1032 553 1032 m 496 1089 q 553 1112 529 1089 q 576 1167 576 1135 q 553 1223 576 1200 q 496 1246 529 1246 q 440 1223 463 1246 q 417 1167 417 1200 q 440 1112 417 1135 q 496 1089 463 1089 z "},"Ũ":{"ha":990,"x_min":131,"x_max":860,"o":"m 818 972 q 848 960 836 972 q 860 931 860 949 l 860 356 q 811 169 860 254 q 679 36 763 85 q 496 -12 596 -12 q 311 36 394 -12 q 179 169 228 85 q 131 356 131 254 l 131 931 q 142 960 131 949 q 175 972 154 972 q 204 960 192 972 q 217 931 217 949 l 217 356 q 254 213 217 278 q 356 109 292 147 q 496 71 421 71 q 637 109 572 71 q 740 213 701 147 q 778 356 778 278 l 778 931 q 789 960 778 949 q 818 972 800 972 m 317 1071 q 292 1082 301 1071 q 283 1115 283 1093 q 285 1132 283 1126 q 328 1200 294 1175 q 406 1225 361 1225 q 458 1213 431 1225 q 519 1179 485 1201 q 567 1153 550 1161 q 599 1144 585 1144 q 630 1159 618 1144 q 644 1199 642 1174 q 651 1224 643 1214 q 675 1235 660 1235 q 701 1223 692 1235 q 710 1190 710 1211 l 708 1175 q 670 1103 700 1129 q 596 1076 640 1076 q 485 1121 557 1076 q 435 1147 453 1139 q 401 1156 417 1156 q 367 1142 382 1156 q 347 1101 353 1129 q 338 1078 347 1086 q 317 1071 329 1071 z "},"Ṹ":{"ha":990,"x_min":131,"x_max":860,"o":"m 818 972 q 848 960 836 972 q 860 931 860 949 l 860 356 q 811 169 860 254 q 679 36 763 85 q 496 -12 596 -12 q 311 36 394 -12 q 179 169 228 85 q 131 356 131 254 l 131 931 q 142 960 131 949 q 175 972 154 972 q 204 960 192 972 q 217 931 217 949 l 217 356 q 254 213 217 278 q 356 109 292 147 q 496 71 421 71 q 637 109 572 71 q 740 213 701 147 q 778 356 778 278 l 778 931 q 789 960 778 949 q 818 972 800 972 m 317 1071 q 292 1082 301 1071 q 283 1115 283 1093 q 285 1132 283 1126 q 328 1200 294 1175 q 406 1225 361 1225 q 458 1213 431 1225 q 519 1179 485 1201 q 567 1153 550 1161 q 599 1144 585 1144 q 630 1159 618 1144 q 644 1199 642 1174 q 651 1224 643 1214 q 675 1235 660 1235 q 701 1223 692 1235 q 710 1190 710 1211 l 708 1175 q 670 1103 700 1129 q 596 1076 640 1076 q 485 1121 557 1076 q 435 1147 453 1139 q 401 1156 417 1156 q 367 1142 382 1156 q 347 1101 353 1129 q 338 1078 347 1086 q 317 1071 329 1071 m 500 1303 q 481 1310 488 1303 q 474 1328 474 1317 q 488 1353 474 1339 l 611 1449 q 651 1464 629 1464 q 681 1452 669 1464 q 693 1422 693 1440 q 667 1379 693 1394 l 531 1311 q 500 1303 511 1303 z "},"V":{"ha":924,"x_min":49,"x_max":876,"o":"m 833 974 q 864 962 851 974 q 876 935 876 950 q 872 914 876 925 l 501 28 q 485 8 496 15 q 461 0 474 0 q 438 7 449 0 q 422 26 428 14 l 53 911 q 49 933 49 919 q 61 963 49 951 q 89 974 74 974 q 131 943 118 974 l 465 143 l 794 946 q 812 966 801 958 q 833 974 822 974 z "},"W":{"ha":1342,"x_min":42,"x_max":1300,"o":"m 1256 975 q 1288 964 1275 975 q 1300 933 1300 953 l 1297 915 l 990 26 q 976 7 986 14 q 953 0 965 0 q 911 26 921 0 l 671 619 l 431 26 q 389 0 418 0 q 366 7 376 0 q 353 26 356 14 l 46 915 q 42 932 42 924 q 56 963 42 951 q 88 975 71 975 q 113 968 101 975 q 128 949 124 961 l 400 154 l 633 736 q 672 763 646 764 q 697 756 686 764 q 713 736 707 749 l 944 154 l 1214 949 q 1256 975 1225 975 z "},"Ẃ":{"ha":1342,"x_min":42,"x_max":1300,"o":"m 1256 975 q 1288 964 1275 975 q 1300 933 1300 953 l 1297 915 l 990 26 q 976 7 986 14 q 953 0 965 0 q 911 26 921 0 l 671 619 l 431 26 q 389 0 418 0 q 366 7 376 0 q 353 26 356 14 l 46 915 q 42 932 42 924 q 56 963 42 951 q 88 975 71 975 q 113 968 101 975 q 128 949 124 961 l 400 154 l 633 736 q 672 763 646 764 q 697 756 686 764 q 713 736 707 749 l 944 154 l 1214 949 q 1256 975 1225 975 m 675 1036 q 656 1043 663 1036 q 649 1061 649 1050 q 663 1086 649 1072 l 786 1182 q 826 1197 804 1197 q 856 1185 844 1197 q 868 1156 868 1174 q 842 1113 868 1128 l 706 1044 q 675 1036 686 1036 z "},"Ŵ":{"ha":1342,"x_min":42,"x_max":1300,"o":"m 1256 975 q 1288 964 1275 975 q 1300 933 1300 953 l 1297 915 l 990 26 q 976 7 986 14 q 953 0 965 0 q 911 26 921 0 l 671 619 l 431 26 q 389 0 418 0 q 366 7 376 0 q 353 26 356 14 l 46 915 q 42 932 42 924 q 56 963 42 951 q 88 975 71 975 q 113 968 101 975 q 128 949 124 961 l 400 154 l 633 736 q 672 763 646 764 q 697 756 686 764 q 713 736 707 749 l 944 154 l 1214 949 q 1256 975 1225 975 m 829 1103 q 840 1079 840 1090 q 833 1065 840 1072 q 818 1058 826 1058 q 781 1076 803 1058 l 665 1160 l 558 1075 q 521 1057 533 1057 q 504 1063 511 1057 q 497 1078 497 1069 q 508 1101 497 1089 l 615 1215 q 636 1233 626 1228 q 661 1239 646 1239 l 676 1239 q 701 1233 692 1239 q 724 1215 711 1228 l 829 1103 z "},"Ẅ":{"ha":1342,"x_min":42,"x_max":1300,"o":"m 1256 975 q 1288 964 1275 975 q 1300 933 1300 953 l 1297 915 l 990 26 q 976 7 986 14 q 953 0 965 0 q 911 26 921 0 l 671 619 l 431 26 q 389 0 418 0 q 366 7 376 0 q 353 26 356 14 l 46 915 q 42 932 42 924 q 56 963 42 951 q 88 975 71 975 q 113 968 101 975 q 128 949 124 961 l 400 154 l 633 736 q 672 763 646 764 q 697 756 686 764 q 713 736 707 749 l 944 154 l 1214 949 q 1256 975 1225 975 m 551 1076 q 510 1091 525 1076 q 494 1132 494 1106 l 494 1146 q 510 1187 494 1172 q 553 1201 526 1201 q 594 1187 579 1201 q 610 1146 610 1172 l 610 1132 q 594 1091 610 1106 q 551 1076 579 1076 m 790 1076 q 749 1091 764 1076 q 733 1132 733 1106 l 733 1146 q 749 1187 733 1172 q 792 1201 764 1201 q 833 1187 818 1201 q 849 1146 849 1172 l 849 1132 q 833 1091 849 1106 q 790 1076 818 1076 z "},"Ẁ":{"ha":1342,"x_min":42,"x_max":1300,"o":"m 1256 975 q 1288 964 1275 975 q 1300 933 1300 953 l 1297 915 l 990 26 q 976 7 986 14 q 953 0 965 0 q 911 26 921 0 l 671 619 l 431 26 q 389 0 418 0 q 366 7 376 0 q 353 26 356 14 l 46 915 q 42 932 42 924 q 56 963 42 951 q 88 975 71 975 q 113 968 101 975 q 128 949 124 961 l 400 154 l 633 736 q 672 763 646 764 q 697 756 686 764 q 713 736 707 749 l 944 154 l 1214 949 q 1256 975 1225 975 m 671 1038 q 640 1046 660 1038 l 506 1114 q 478 1157 478 1129 q 490 1187 478 1175 q 519 1199 501 1199 q 560 1183 542 1199 l 683 1088 q 697 1063 697 1074 q 690 1044 697 1051 q 671 1038 683 1038 z "},"X":{"ha":842,"x_min":47,"x_max":794,"o":"m 785 63 q 794 38 794 49 q 781 6 794 18 q 751 -6 768 -6 q 718 13 731 -6 l 418 419 l 119 14 q 86 -6 107 -6 q 59 6 69 -6 q 49 32 49 18 q 58 60 49 46 l 371 485 l 57 910 q 47 935 47 921 q 60 964 47 951 q 90 976 74 976 q 125 960 111 976 l 424 553 l 721 958 q 754 976 736 976 q 783 966 771 976 q 794 940 794 956 q 785 914 794 929 l 472 488 l 785 63 z "},"Y":{"ha":776,"x_min":26,"x_max":751,"o":"m 751 936 q 743 910 751 926 l 433 483 l 433 42 q 421 12 433 24 q 390 0 408 0 q 360 12 372 0 q 349 42 349 24 l 349 482 l 38 907 q 26 936 26 919 q 40 965 26 953 q 71 978 54 978 q 106 958 93 978 l 393 567 l 674 958 q 710 978 689 978 q 739 965 726 978 q 751 936 751 951 z "},"Ý":{"ha":776,"x_min":26,"x_max":751,"o":"m 751 936 q 743 910 751 926 l 433 483 l 433 42 q 421 12 433 24 q 390 0 408 0 q 360 12 372 0 q 349 42 349 24 l 349 482 l 38 907 q 26 936 26 919 q 40 965 26 953 q 71 978 54 978 q 106 958 93 978 l 393 567 l 674 958 q 710 978 689 978 q 739 965 726 978 q 751 936 751 951 m 393 1036 q 374 1043 381 1036 q 367 1061 367 1050 q 381 1086 367 1072 l 504 1182 q 544 1197 522 1197 q 574 1185 563 1197 q 586 1156 586 1174 q 560 1113 586 1128 l 424 1044 q 393 1036 404 1036 z "},"Ŷ":{"ha":776,"x_min":26,"x_max":751,"o":"m 751 936 q 743 910 751 926 l 433 483 l 433 42 q 421 12 433 24 q 390 0 408 0 q 360 12 372 0 q 349 42 349 24 l 349 482 l 38 907 q 26 936 26 919 q 40 965 26 953 q 71 978 54 978 q 106 958 93 978 l 393 567 l 674 958 q 710 978 689 978 q 739 965 726 978 q 751 936 751 951 m 547 1103 q 558 1079 558 1090 q 551 1065 558 1072 q 536 1058 544 1058 q 499 1076 521 1058 l 383 1160 l 276 1075 q 239 1057 251 1057 q 222 1063 229 1057 q 215 1078 215 1069 q 226 1101 215 1089 l 333 1215 q 354 1233 344 1228 q 379 1239 364 1239 l 394 1239 q 419 1233 410 1239 q 442 1215 429 1228 l 547 1103 z "},"Ÿ":{"ha":776,"x_min":26,"x_max":751,"o":"m 751 936 q 743 910 751 926 l 433 483 l 433 42 q 421 12 433 24 q 390 0 408 0 q 360 12 372 0 q 349 42 349 24 l 349 482 l 38 907 q 26 936 26 919 q 40 965 26 953 q 71 978 54 978 q 106 958 93 978 l 393 567 l 674 958 q 710 978 689 978 q 739 965 726 978 q 751 936 751 951 m 269 1076 q 228 1091 243 1076 q 213 1132 213 1106 l 213 1146 q 228 1187 213 1172 q 271 1201 244 1201 q 313 1187 297 1201 q 328 1146 328 1172 l 328 1132 q 313 1091 328 1106 q 269 1076 297 1076 m 508 1076 q 467 1091 482 1076 q 451 1132 451 1106 l 451 1146 q 467 1187 451 1172 q 510 1201 482 1201 q 551 1187 536 1201 q 567 1146 567 1172 l 567 1132 q 551 1091 567 1106 q 508 1076 536 1076 z "},"Ẏ":{"ha":776,"x_min":26,"x_max":751,"o":"m 751 936 q 743 910 751 926 l 433 483 l 433 42 q 421 12 433 24 q 390 0 408 0 q 360 12 372 0 q 349 42 349 24 l 349 482 l 38 907 q 26 936 26 919 q 40 965 26 953 q 71 978 54 978 q 106 958 93 978 l 393 567 l 674 958 q 710 978 689 978 q 739 965 726 978 q 751 936 751 951 m 389 1069 q 346 1084 361 1069 q 331 1125 331 1099 l 331 1139 q 347 1180 331 1165 q 390 1194 363 1194 q 446 1139 446 1194 l 446 1125 q 431 1084 446 1099 q 389 1069 417 1069 z "},"Ỵ":{"ha":776,"x_min":26,"x_max":751,"o":"m 751 936 q 743 910 751 926 l 433 483 l 433 42 q 421 12 433 24 q 390 0 408 0 q 360 12 372 0 q 349 42 349 24 l 349 482 l 38 907 q 26 936 26 919 q 40 965 26 953 q 71 978 54 978 q 106 958 93 978 l 393 567 l 674 958 q 710 978 689 978 q 739 965 726 978 q 751 936 751 951 m 390 -194 q 347 -180 363 -194 q 332 -139 332 -165 l 332 -124 q 348 -84 332 -99 q 390 -69 364 -69 q 447 -124 447 -69 l 447 -139 q 433 -180 447 -165 q 390 -194 418 -194 z "},"Ỳ":{"ha":776,"x_min":26,"x_max":751,"o":"m 751 936 q 743 910 751 926 l 433 483 l 433 42 q 421 12 433 24 q 390 0 408 0 q 360 12 372 0 q 349 42 349 24 l 349 482 l 38 907 q 26 936 26 919 q 40 965 26 953 q 71 978 54 978 q 106 958 93 978 l 393 567 l 674 958 q 710 978 689 978 q 739 965 726 978 q 751 936 751 951 m 389 1038 q 358 1046 378 1038 l 224 1114 q 196 1157 196 1129 q 208 1187 196 1175 q 238 1199 219 1199 q 278 1183 260 1199 l 401 1088 q 415 1063 415 1074 q 408 1044 415 1051 q 389 1038 401 1038 z "},"Ỷ":{"ha":776,"x_min":26,"x_max":751,"o":"m 751 936 q 743 910 751 926 l 433 483 l 433 42 q 421 12 433 24 q 390 0 408 0 q 360 12 372 0 q 349 42 349 24 l 349 482 l 38 907 q 26 936 26 919 q 40 965 26 953 q 71 978 54 978 q 106 958 93 978 l 393 567 l 674 958 q 710 978 689 978 q 739 965 726 978 q 751 936 751 951 m 282 1254 q 385 1297 328 1297 q 472 1265 444 1297 q 499 1194 499 1233 q 487 1153 499 1172 q 451 1111 475 1135 q 435 1074 435 1092 q 425 1057 433 1063 q 403 1051 417 1051 q 384 1058 392 1051 q 376 1075 376 1065 q 396 1131 376 1108 q 428 1167 419 1156 q 436 1193 436 1178 q 422 1223 436 1211 q 386 1235 407 1235 q 322 1210 356 1235 q 299 1199 311 1199 q 276 1210 288 1199 q 269 1229 269 1219 q 282 1254 269 1242 z "},"Ȳ":{"ha":776,"x_min":26,"x_max":751,"o":"m 751 936 q 743 910 751 926 l 433 483 l 433 42 q 421 12 433 24 q 390 0 408 0 q 360 12 372 0 q 349 42 349 24 l 349 482 l 38 907 q 26 936 26 919 q 40 965 26 953 q 71 978 54 978 q 106 958 93 978 l 393 567 l 674 958 q 710 978 689 978 q 739 965 726 978 q 751 936 751 951 m 217 1094 q 176 1129 176 1094 q 217 1165 176 1165 l 571 1165 q 611 1129 611 1165 q 571 1094 611 1094 l 217 1094 z "},"Ỹ":{"ha":776,"x_min":26,"x_max":751,"o":"m 751 936 q 743 910 751 926 l 433 483 l 433 42 q 421 12 433 24 q 390 0 408 0 q 360 12 372 0 q 349 42 349 24 l 349 482 l 38 907 q 26 936 26 919 q 40 965 26 953 q 71 978 54 978 q 106 958 93 978 l 393 567 l 674 958 q 710 978 689 978 q 739 965 726 978 q 751 936 751 951 m 210 1071 q 185 1082 194 1071 q 176 1115 176 1093 q 178 1132 176 1126 q 221 1200 188 1175 q 299 1225 254 1225 q 351 1213 324 1225 q 413 1179 378 1201 q 460 1153 443 1161 q 492 1144 478 1144 q 523 1159 511 1144 q 538 1199 535 1174 q 544 1224 536 1214 q 568 1235 553 1235 q 594 1223 585 1235 q 603 1190 603 1211 l 601 1175 q 563 1103 593 1129 q 489 1076 533 1076 q 378 1121 450 1076 q 328 1147 346 1139 q 294 1156 310 1156 q 260 1142 275 1156 q 240 1101 246 1129 q 231 1078 240 1086 q 210 1071 222 1071 z "},"Z":{"ha":894,"x_min":75,"x_max":831,"o":"m 783 79 q 813 67 801 79 q 825 40 825 56 q 813 11 825 22 q 783 0 801 0 l 118 0 q 87 13 99 0 q 75 43 75 26 q 83 68 75 56 l 708 893 l 153 893 q 123 904 135 893 q 111 933 111 915 q 123 961 111 950 q 153 972 135 972 l 785 972 q 818 960 806 972 q 831 931 831 947 q 822 906 831 918 l 199 79 l 783 79 z "},"Ź":{"ha":894,"x_min":75,"x_max":831,"o":"m 783 79 q 813 67 801 79 q 825 40 825 56 q 813 11 825 22 q 783 0 801 0 l 118 0 q 87 13 99 0 q 75 43 75 26 q 83 68 75 56 l 708 893 l 153 893 q 123 904 135 893 q 111 933 111 915 q 123 961 111 950 q 153 972 135 972 l 785 972 q 818 960 806 972 q 831 931 831 947 q 822 906 831 918 l 199 79 l 783 79 m 453 1036 q 433 1043 440 1036 q 426 1061 426 1050 q 440 1086 426 1072 l 564 1182 q 604 1197 582 1197 q 634 1185 622 1197 q 646 1156 646 1174 q 619 1113 646 1128 l 483 1044 q 453 1036 464 1036 z "},"Ž":{"ha":894,"x_min":75,"x_max":831,"o":"m 783 79 q 813 67 801 79 q 825 40 825 56 q 813 11 825 22 q 783 0 801 0 l 118 0 q 87 13 99 0 q 75 43 75 26 q 83 68 75 56 l 708 893 l 153 893 q 123 904 135 893 q 111 933 111 915 q 123 961 111 950 q 153 972 135 972 l 785 972 q 818 960 806 972 q 831 931 831 947 q 822 906 831 918 l 199 79 l 783 79 m 596 1229 q 613 1223 606 1229 q 619 1208 619 1217 q 608 1185 619 1197 l 501 1071 q 456 1047 486 1047 l 440 1047 q 393 1071 411 1047 l 288 1183 q 276 1207 276 1196 q 283 1222 276 1215 q 299 1228 289 1228 q 336 1211 315 1228 l 451 1125 l 558 1211 q 596 1229 581 1229 z "},"Ż":{"ha":894,"x_min":75,"x_max":831,"o":"m 783 79 q 813 67 801 79 q 825 40 825 56 q 813 11 825 22 q 783 0 801 0 l 118 0 q 87 13 99 0 q 75 43 75 26 q 83 68 75 56 l 708 893 l 153 893 q 123 904 135 893 q 111 933 111 915 q 123 961 111 950 q 153 972 135 972 l 785 972 q 818 960 806 972 q 831 931 831 947 q 822 906 831 918 l 199 79 l 783 79 m 449 1069 q 406 1084 421 1069 q 390 1125 390 1099 l 390 1139 q 406 1180 390 1165 q 450 1194 422 1194 q 506 1139 506 1194 l 506 1125 q 491 1084 506 1099 q 449 1069 476 1069 z "},"Ẓ":{"ha":894,"x_min":75,"x_max":831,"o":"m 783 79 q 813 67 801 79 q 825 40 825 56 q 813 11 825 22 q 783 0 801 0 l 118 0 q 87 13 99 0 q 75 43 75 26 q 83 68 75 56 l 708 893 l 153 893 q 123 904 135 893 q 111 933 111 915 q 123 961 111 950 q 153 972 135 972 l 785 972 q 818 960 806 972 q 831 931 831 947 q 822 906 831 918 l 199 79 l 783 79 m 449 -194 q 406 -180 421 -194 q 390 -139 390 -165 l 390 -124 q 406 -84 390 -99 q 449 -69 422 -69 q 506 -124 506 -69 l 506 -139 q 491 -180 506 -165 q 449 -194 476 -194 z "},"a":{"ha":836,"x_min":63,"x_max":728,"o":"m 686 710 q 716 697 704 710 q 728 667 728 685 l 728 42 q 716 12 728 24 q 686 0 704 0 q 656 12 668 0 q 644 42 644 24 l 644 135 q 540 29 610 72 q 389 -14 471 -14 q 222 35 296 -14 q 105 168 147 83 q 63 358 63 253 q 106 548 63 464 q 223 679 149 632 q 388 726 297 726 q 540 686 471 726 q 644 581 610 646 l 644 667 q 656 697 644 685 q 686 710 668 710 m 397 64 q 527 102 469 64 q 617 208 585 140 q 650 358 650 275 q 617 506 650 439 q 527 610 585 572 q 397 649 469 649 q 267 611 325 649 q 177 508 210 574 q 144 358 144 442 q 176 208 144 275 q 266 102 208 140 q 397 64 324 64 z "},"á":{"ha":836,"x_min":63,"x_max":728,"o":"m 686 710 q 716 697 704 710 q 728 667 728 685 l 728 42 q 716 12 728 24 q 686 0 704 0 q 656 12 668 0 q 644 42 644 24 l 644 135 q 540 29 610 72 q 389 -14 471 -14 q 222 35 296 -14 q 105 168 147 83 q 63 358 63 253 q 106 548 63 464 q 223 679 149 632 q 388 726 297 726 q 540 686 471 726 q 644 581 610 646 l 644 667 q 656 697 644 685 q 686 710 668 710 m 397 64 q 527 102 469 64 q 617 208 585 140 q 650 358 650 275 q 617 506 650 439 q 527 610 585 572 q 397 649 469 649 q 267 611 325 649 q 177 508 210 574 q 144 358 144 442 q 176 208 144 275 q 266 102 208 140 q 397 64 324 64 m 388 765 q 372 773 379 765 q 365 790 365 781 q 372 810 365 799 l 457 942 q 504 972 474 972 q 538 961 525 972 q 549 929 550 950 q 535 897 549 914 l 431 788 q 388 765 408 765 z "},"ă":{"ha":836,"x_min":63,"x_max":728,"o":"m 686 710 q 716 697 704 710 q 728 667 728 685 l 728 42 q 716 12 728 24 q 686 0 704 0 q 656 12 668 0 q 644 42 644 24 l 644 135 q 540 29 610 72 q 389 -14 471 -14 q 222 35 296 -14 q 105 168 147 83 q 63 358 63 253 q 106 548 63 464 q 223 679 149 632 q 388 726 297 726 q 540 686 471 726 q 644 581 610 646 l 644 667 q 656 697 644 685 q 686 710 668 710 m 397 64 q 527 102 469 64 q 617 208 585 140 q 650 358 650 275 q 617 506 650 439 q 527 610 585 572 q 397 649 469 649 q 267 611 325 649 q 177 508 210 574 q 144 358 144 442 q 176 208 144 275 q 266 102 208 140 q 397 64 324 64 m 396 796 q 273 845 325 796 q 214 963 221 894 q 220 990 211 978 q 244 1001 229 1001 q 271 993 261 1001 q 288 968 281 985 q 325 892 296 919 q 396 864 354 864 q 465 892 436 864 q 504 968 494 919 q 546 1001 518 1001 q 570 990 561 1001 q 576 964 579 979 q 518 845 569 894 q 396 796 467 796 z "},"ắ":{"ha":836,"x_min":63,"x_max":728,"o":"m 686 710 q 716 697 704 710 q 728 667 728 685 l 728 42 q 716 12 728 24 q 686 0 704 0 q 656 12 668 0 q 644 42 644 24 l 644 135 q 540 29 610 72 q 389 -14 471 -14 q 222 35 296 -14 q 105 168 147 83 q 63 358 63 253 q 106 548 63 464 q 223 679 149 632 q 388 726 297 726 q 540 686 471 726 q 644 581 610 646 l 644 667 q 656 697 644 685 q 686 710 668 710 m 397 64 q 527 102 469 64 q 617 208 585 140 q 650 358 650 275 q 617 506 650 439 q 527 610 585 572 q 397 649 469 649 q 267 611 325 649 q 177 508 210 574 q 144 358 144 442 q 176 208 144 275 q 266 102 208 140 q 397 64 324 64 m 414 808 q 291 858 343 808 q 232 975 239 907 q 238 1002 229 990 q 263 1014 247 1014 q 289 1006 279 1014 q 306 981 299 997 q 343 904 314 932 q 414 876 372 876 q 483 904 454 876 q 522 981 513 932 q 564 1014 536 1014 q 588 1003 579 1014 q 594 976 597 992 q 536 858 588 907 q 414 808 485 808 m 406 1035 q 390 1042 397 1035 q 383 1060 383 1050 q 390 1079 383 1068 l 475 1211 q 522 1242 492 1242 q 556 1231 543 1242 q 567 1199 568 1219 q 553 1167 567 1183 l 449 1057 q 406 1035 426 1035 z "},"ặ":{"ha":836,"x_min":63,"x_max":728,"o":"m 686 710 q 716 697 704 710 q 728 667 728 685 l 728 42 q 716 12 728 24 q 686 0 704 0 q 656 12 668 0 q 644 42 644 24 l 644 135 q 540 29 610 72 q 389 -14 471 -14 q 222 35 296 -14 q 105 168 147 83 q 63 358 63 253 q 106 548 63 464 q 223 679 149 632 q 388 726 297 726 q 540 686 471 726 q 644 581 610 646 l 644 667 q 656 697 644 685 q 686 710 668 710 m 397 64 q 527 102 469 64 q 617 208 585 140 q 650 358 650 275 q 617 506 650 439 q 527 610 585 572 q 397 649 469 649 q 267 611 325 649 q 177 508 210 574 q 144 358 144 442 q 176 208 144 275 q 266 102 208 140 q 397 64 324 64 m 399 -190 q 356 -177 371 -190 q 340 -140 340 -164 l 340 -125 q 356 -87 340 -100 q 399 -74 372 -74 q 456 -125 456 -74 l 456 -140 q 399 -190 456 -190 m 396 796 q 273 845 325 796 q 214 963 221 894 q 220 990 211 978 q 244 1001 229 1001 q 271 993 261 1001 q 288 968 281 985 q 325 892 296 919 q 396 864 354 864 q 465 892 436 864 q 504 968 494 919 q 546 1001 518 1001 q 570 990 561 1001 q 576 964 579 979 q 518 845 569 894 q 396 796 467 796 z "},"ằ":{"ha":836,"x_min":63,"x_max":728,"o":"m 686 710 q 716 697 704 710 q 728 667 728 685 l 728 42 q 716 12 728 24 q 686 0 704 0 q 656 12 668 0 q 644 42 644 24 l 644 135 q 540 29 610 72 q 389 -14 471 -14 q 222 35 296 -14 q 105 168 147 83 q 63 358 63 253 q 106 548 63 464 q 223 679 149 632 q 388 726 297 726 q 540 686 471 726 q 644 581 610 646 l 644 667 q 656 697 644 685 q 686 710 668 710 m 397 64 q 527 102 469 64 q 617 208 585 140 q 650 358 650 275 q 617 506 650 439 q 527 610 585 572 q 397 649 469 649 q 267 611 325 649 q 177 508 210 574 q 144 358 144 442 q 176 208 144 275 q 266 102 208 140 q 397 64 324 64 m 411 813 q 288 862 340 813 q 229 979 236 911 q 235 1006 226 994 q 260 1018 244 1018 q 286 1010 276 1018 q 303 985 296 1001 q 340 908 311 936 q 411 881 369 881 q 481 908 451 881 q 519 985 510 936 q 561 1018 533 1018 q 585 1007 576 1018 q 592 981 594 996 q 533 862 585 911 q 411 813 482 813 m 424 1049 q 389 1065 408 1049 l 279 1167 q 260 1203 260 1182 q 272 1233 260 1222 q 301 1243 283 1243 q 344 1219 326 1243 l 439 1096 q 450 1074 450 1082 q 442 1056 450 1063 q 424 1049 435 1049 z "},"ẳ":{"ha":836,"x_min":63,"x_max":728,"o":"m 686 710 q 716 697 704 710 q 728 667 728 685 l 728 42 q 716 12 728 24 q 686 0 704 0 q 656 12 668 0 q 644 42 644 24 l 644 135 q 540 29 610 72 q 389 -14 471 -14 q 222 35 296 -14 q 105 168 147 83 q 63 358 63 253 q 106 548 63 464 q 223 679 149 632 q 388 726 297 726 q 540 686 471 726 q 644 581 610 646 l 644 667 q 656 697 644 685 q 686 710 668 710 m 397 64 q 527 102 469 64 q 617 208 585 140 q 650 358 650 275 q 617 506 650 439 q 527 610 585 572 q 397 649 469 649 q 267 611 325 649 q 177 508 210 574 q 144 358 144 442 q 176 208 144 275 q 266 102 208 140 q 397 64 324 64 m 407 794 q 284 844 336 794 q 225 961 232 893 q 231 988 222 976 q 256 1000 240 1000 q 282 992 272 1000 q 299 967 292 983 q 336 890 307 918 q 407 863 365 863 q 476 890 447 863 q 515 967 506 918 q 557 1000 529 1000 q 581 989 572 1000 q 588 963 590 978 q 529 844 581 893 q 407 794 478 794 m 310 1236 q 414 1279 357 1279 q 499 1247 472 1279 q 526 1176 526 1215 q 515 1136 526 1154 q 481 1093 504 1118 q 463 1056 464 1075 q 453 1038 461 1044 q 433 1031 444 1031 q 413 1038 421 1031 q 404 1057 404 1046 q 425 1113 404 1090 q 442 1131 431 1118 q 460 1155 454 1144 q 465 1175 465 1165 q 450 1205 465 1193 q 414 1217 435 1217 q 351 1192 385 1217 q 326 1181 338 1181 q 304 1192 315 1181 q 297 1211 297 1201 q 310 1236 297 1224 z "},"ẵ":{"ha":836,"x_min":63,"x_max":728,"o":"m 686 710 q 716 697 704 710 q 728 667 728 685 l 728 42 q 716 12 728 24 q 686 0 704 0 q 656 12 668 0 q 644 42 644 24 l 644 135 q 540 29 610 72 q 389 -14 471 -14 q 222 35 296 -14 q 105 168 147 83 q 63 358 63 253 q 106 548 63 464 q 223 679 149 632 q 388 726 297 726 q 540 686 471 726 q 644 581 610 646 l 644 667 q 656 697 644 685 q 686 710 668 710 m 397 64 q 527 102 469 64 q 617 208 585 140 q 650 358 650 275 q 617 506 650 439 q 527 610 585 572 q 397 649 469 649 q 267 611 325 649 q 177 508 210 574 q 144 358 144 442 q 176 208 144 275 q 266 102 208 140 q 397 64 324 64 m 403 786 q 280 835 332 786 q 221 953 228 885 q 227 980 218 968 q 251 992 236 992 q 278 983 268 992 q 294 958 288 975 q 332 882 303 910 q 403 854 361 854 q 472 882 443 854 q 511 958 501 910 q 553 992 525 992 q 577 981 568 992 q 583 954 586 969 q 525 835 576 885 q 403 786 474 786 m 233 1054 q 200 1092 200 1054 l 203 1114 q 247 1183 213 1158 q 328 1208 281 1208 q 378 1197 351 1208 q 438 1163 404 1185 q 483 1136 467 1144 q 515 1128 500 1128 q 560 1181 556 1128 q 567 1206 558 1196 q 592 1215 576 1215 q 628 1174 628 1215 q 626 1157 628 1163 q 587 1085 618 1111 q 506 1058 556 1058 q 461 1069 485 1058 q 404 1100 438 1079 q 352 1128 371 1119 q 318 1136 333 1136 q 265 1085 276 1136 q 256 1062 265 1069 q 233 1054 247 1054 z "},"ǎ":{"ha":836,"x_min":63,"x_max":728,"o":"m 686 710 q 716 697 704 710 q 728 667 728 685 l 728 42 q 716 12 728 24 q 686 0 704 0 q 656 12 668 0 q 644 42 644 24 l 644 135 q 540 29 610 72 q 389 -14 471 -14 q 222 35 296 -14 q 105 168 147 83 q 63 358 63 253 q 106 548 63 464 q 223 679 149 632 q 388 726 297 726 q 540 686 471 726 q 644 581 610 646 l 644 667 q 656 697 644 685 q 686 710 668 710 m 397 64 q 527 102 469 64 q 617 208 585 140 q 650 358 650 275 q 617 506 650 439 q 527 610 585 572 q 397 649 469 649 q 267 611 325 649 q 177 508 210 574 q 144 358 144 442 q 176 208 144 275 q 266 102 208 140 q 397 64 324 64 m 549 968 q 566 961 558 968 q 574 946 574 954 q 561 921 574 936 l 461 813 q 415 790 446 790 l 393 790 q 346 813 363 790 l 247 921 q 236 944 236 932 q 243 960 236 953 q 263 967 250 967 q 299 949 276 967 l 407 861 l 510 949 q 549 968 532 968 z "},"â":{"ha":836,"x_min":63,"x_max":728,"o":"m 686 710 q 716 697 704 710 q 728 667 728 685 l 728 42 q 716 12 728 24 q 686 0 704 0 q 656 12 668 0 q 644 42 644 24 l 644 135 q 540 29 610 72 q 389 -14 471 -14 q 222 35 296 -14 q 105 168 147 83 q 63 358 63 253 q 106 548 63 464 q 223 679 149 632 q 388 726 297 726 q 540 686 471 726 q 644 581 610 646 l 644 667 q 656 697 644 685 q 686 710 668 710 m 397 64 q 527 102 469 64 q 617 208 585 140 q 650 358 650 275 q 617 506 650 439 q 527 610 585 572 q 397 649 469 649 q 267 611 325 649 q 177 508 210 574 q 144 358 144 442 q 176 208 144 275 q 266 102 208 140 q 397 64 324 64 m 565 844 q 575 821 575 833 q 568 807 575 814 q 553 800 561 800 q 535 804 542 800 q 515 819 528 808 l 406 907 l 300 818 q 290 810 297 817 q 276 801 282 804 q 264 799 271 799 q 247 806 254 799 q 240 821 240 813 q 251 843 240 832 l 353 954 q 399 978 368 978 l 421 978 q 447 973 438 978 q 465 954 457 968 l 565 844 z "},"ấ":{"ha":836,"x_min":63,"x_max":728,"o":"m 686 710 q 716 697 704 710 q 728 667 728 685 l 728 42 q 716 12 728 24 q 686 0 704 0 q 656 12 668 0 q 644 42 644 24 l 644 135 q 540 29 610 72 q 389 -14 471 -14 q 222 35 296 -14 q 105 168 147 83 q 63 358 63 253 q 106 548 63 464 q 223 679 149 632 q 388 726 297 726 q 540 686 471 726 q 644 581 610 646 l 644 667 q 656 697 644 685 q 686 710 668 710 m 397 64 q 527 102 469 64 q 617 208 585 140 q 650 358 650 275 q 617 506 650 439 q 527 610 585 572 q 397 649 469 649 q 267 611 325 649 q 177 508 210 574 q 144 358 144 442 q 176 208 144 275 q 266 102 208 140 q 397 64 324 64 m 554 839 q 564 815 564 828 q 557 801 564 808 q 542 794 550 794 q 524 799 531 794 q 504 814 517 803 l 394 901 l 289 813 q 278 805 286 811 q 265 796 271 799 q 253 793 260 793 q 236 800 243 793 q 229 815 229 807 q 240 838 229 826 l 342 949 q 388 972 357 972 l 410 972 q 436 967 426 972 q 454 949 446 963 l 554 839 m 556 908 q 540 916 547 908 q 533 933 533 924 q 540 953 533 942 l 625 1085 q 672 1115 642 1115 q 706 1104 693 1115 q 717 1072 718 1093 q 703 1040 717 1057 l 599 931 q 556 908 576 908 z "},"ậ":{"ha":836,"x_min":63,"x_max":728,"o":"m 686 710 q 716 697 704 710 q 728 667 728 685 l 728 42 q 716 12 728 24 q 686 0 704 0 q 656 12 668 0 q 644 42 644 24 l 644 135 q 540 29 610 72 q 389 -14 471 -14 q 222 35 296 -14 q 105 168 147 83 q 63 358 63 253 q 106 548 63 464 q 223 679 149 632 q 388 726 297 726 q 540 686 471 726 q 644 581 610 646 l 644 667 q 656 697 644 685 q 686 710 668 710 m 397 64 q 527 102 469 64 q 617 208 585 140 q 650 358 650 275 q 617 506 650 439 q 527 610 585 572 q 397 649 469 649 q 267 611 325 649 q 177 508 210 574 q 144 358 144 442 q 176 208 144 275 q 266 102 208 140 q 397 64 324 64 m 399 -190 q 356 -177 371 -190 q 340 -140 340 -164 l 340 -125 q 356 -87 340 -100 q 399 -74 372 -74 q 456 -125 456 -74 l 456 -140 q 399 -190 456 -190 m 565 844 q 575 821 575 833 q 568 807 575 814 q 553 800 561 800 q 535 804 542 800 q 515 819 528 808 l 406 907 l 300 818 q 290 810 297 817 q 276 801 282 804 q 264 799 271 799 q 247 806 254 799 q 240 821 240 813 q 251 843 240 832 l 353 954 q 399 978 368 978 l 421 978 q 447 973 438 978 q 465 954 457 968 l 565 844 z "},"ầ":{"ha":836,"x_min":63,"x_max":728,"o":"m 686 710 q 716 697 704 710 q 728 667 728 685 l 728 42 q 716 12 728 24 q 686 0 704 0 q 656 12 668 0 q 644 42 644 24 l 644 135 q 540 29 610 72 q 389 -14 471 -14 q 222 35 296 -14 q 105 168 147 83 q 63 358 63 253 q 106 548 63 464 q 223 679 149 632 q 388 726 297 726 q 540 686 471 726 q 644 581 610 646 l 644 667 q 656 697 644 685 q 686 710 668 710 m 397 64 q 527 102 469 64 q 617 208 585 140 q 650 358 650 275 q 617 506 650 439 q 527 610 585 572 q 397 649 469 649 q 267 611 325 649 q 177 508 210 574 q 144 358 144 442 q 176 208 144 275 q 266 102 208 140 q 397 64 324 64 m 546 839 q 556 815 556 828 q 549 801 556 808 q 533 794 542 794 q 515 799 522 794 q 496 814 508 803 l 386 901 l 281 813 q 270 805 278 811 q 257 796 263 799 q 244 793 251 793 q 228 800 235 793 q 221 815 221 807 q 232 838 221 826 l 333 949 q 379 972 349 972 l 401 972 q 428 967 418 972 q 446 949 438 963 l 546 839 m 569 939 q 535 956 554 939 l 425 1057 q 406 1093 406 1072 q 417 1123 406 1113 q 447 1133 429 1133 q 490 1110 472 1133 l 585 986 q 596 964 596 972 q 588 946 596 953 q 569 939 581 939 z "},"ẩ":{"ha":836,"x_min":63,"x_max":728,"o":"m 686 710 q 716 697 704 710 q 728 667 728 685 l 728 42 q 716 12 728 24 q 686 0 704 0 q 656 12 668 0 q 644 42 644 24 l 644 135 q 540 29 610 72 q 389 -14 471 -14 q 222 35 296 -14 q 105 168 147 83 q 63 358 63 253 q 106 548 63 464 q 223 679 149 632 q 388 726 297 726 q 540 686 471 726 q 644 581 610 646 l 644 667 q 656 697 644 685 q 686 710 668 710 m 397 64 q 527 102 469 64 q 617 208 585 140 q 650 358 650 275 q 617 506 650 439 q 527 610 585 572 q 397 649 469 649 q 267 611 325 649 q 177 508 210 574 q 144 358 144 442 q 176 208 144 275 q 266 102 208 140 q 397 64 324 64 m 560 842 q 569 818 569 831 q 563 804 569 811 q 547 797 556 797 q 529 801 536 797 q 510 817 522 806 l 400 904 l 294 815 q 284 808 292 814 q 271 799 276 801 q 258 796 265 796 q 242 803 249 796 q 235 818 235 810 q 246 840 235 829 l 347 951 q 393 975 363 975 l 415 975 q 442 970 432 975 q 460 951 451 965 l 560 842 m 490 1082 q 594 1125 538 1125 q 680 1093 653 1125 q 707 1022 707 1061 q 696 982 707 1000 q 661 939 685 964 q 643 901 644 921 q 633 883 642 890 q 614 876 625 876 q 593 884 601 876 q 585 903 585 892 q 606 958 585 936 q 623 977 611 964 q 640 1001 635 990 q 646 1021 646 1011 q 631 1051 646 1039 q 594 1063 615 1063 q 532 1038 565 1063 q 507 1026 518 1026 q 485 1038 496 1026 q 478 1057 478 1047 q 490 1082 478 1069 z "},"ẫ":{"ha":836,"x_min":63,"x_max":728,"o":"m 686 710 q 716 697 704 710 q 728 667 728 685 l 728 42 q 716 12 728 24 q 686 0 704 0 q 656 12 668 0 q 644 42 644 24 l 644 135 q 540 29 610 72 q 389 -14 471 -14 q 222 35 296 -14 q 105 168 147 83 q 63 358 63 253 q 106 548 63 464 q 223 679 149 632 q 388 726 297 726 q 540 686 471 726 q 644 581 610 646 l 644 667 q 656 697 644 685 q 686 710 668 710 m 397 64 q 527 102 469 64 q 617 208 585 140 q 650 358 650 275 q 617 506 650 439 q 527 610 585 572 q 397 649 469 649 q 267 611 325 649 q 177 508 210 574 q 144 358 144 442 q 176 208 144 275 q 266 102 208 140 q 397 64 324 64 m 563 826 q 572 803 572 815 q 565 789 572 796 q 550 782 558 782 q 532 786 539 782 q 513 801 525 790 l 403 889 l 297 800 q 287 792 294 799 q 274 783 279 786 q 261 781 268 781 q 244 788 251 781 q 238 803 238 794 q 249 825 238 814 l 350 936 q 396 960 365 960 l 418 960 q 444 955 435 960 q 463 936 454 950 l 563 826 m 231 976 q 197 1014 197 976 l 200 1036 q 244 1106 210 1081 q 325 1131 278 1131 q 375 1119 349 1131 q 435 1085 401 1107 q 481 1058 464 1067 q 513 1050 497 1050 q 557 1103 553 1050 q 565 1128 556 1118 q 589 1138 574 1138 q 625 1096 625 1138 q 624 1079 625 1085 q 584 1007 615 1033 q 503 981 553 981 q 458 991 482 981 q 401 1022 435 1001 q 349 1050 368 1042 q 315 1058 331 1058 q 263 1007 274 1058 q 253 984 263 992 q 231 976 244 976 z "},"ȁ":{"ha":836,"x_min":63,"x_max":728,"o":"m 686 710 q 716 697 704 710 q 728 667 728 685 l 728 42 q 716 12 728 24 q 686 0 704 0 q 656 12 668 0 q 644 42 644 24 l 644 135 q 540 29 610 72 q 389 -14 471 -14 q 222 35 296 -14 q 105 168 147 83 q 63 358 63 253 q 106 548 63 464 q 223 679 149 632 q 388 726 297 726 q 540 686 471 726 q 644 581 610 646 l 644 667 q 656 697 644 685 q 686 710 668 710 m 397 64 q 527 102 469 64 q 617 208 585 140 q 650 358 650 275 q 617 506 650 439 q 527 610 585 572 q 397 649 469 649 q 267 611 325 649 q 177 508 210 574 q 144 358 144 442 q 176 208 144 275 q 266 102 208 140 q 397 64 324 64 m 336 826 q 301 843 321 826 l 193 944 q 172 981 172 961 q 184 1010 172 1000 q 214 1021 196 1021 q 258 997 238 1021 l 353 874 q 363 851 363 863 q 356 833 363 840 q 336 826 349 826 m 535 826 q 500 843 519 826 l 390 944 q 371 981 371 960 q 383 1010 371 1000 q 413 1021 394 1021 q 456 997 438 1021 l 550 874 q 561 851 561 860 q 553 833 561 840 q 535 826 546 826 z "},"ä":{"ha":836,"x_min":63,"x_max":728,"o":"m 686 710 q 716 697 704 710 q 728 667 728 685 l 728 42 q 716 12 728 24 q 686 0 704 0 q 656 12 668 0 q 644 42 644 24 l 644 135 q 540 29 610 72 q 389 -14 471 -14 q 222 35 296 -14 q 105 168 147 83 q 63 358 63 253 q 106 548 63 464 q 223 679 149 632 q 388 726 297 726 q 540 686 471 726 q 644 581 610 646 l 644 667 q 656 697 644 685 q 686 710 668 710 m 397 64 q 527 102 469 64 q 617 208 585 140 q 650 358 650 275 q 617 506 650 439 q 527 610 585 572 q 397 649 469 649 q 267 611 325 649 q 177 508 210 574 q 144 358 144 442 q 176 208 144 275 q 266 102 208 140 q 397 64 324 64 m 274 821 q 232 835 247 821 q 217 876 217 850 l 217 890 q 232 931 217 917 q 274 946 247 946 q 315 931 300 946 q 331 890 331 917 l 331 876 q 316 835 331 850 q 274 821 301 821 m 513 821 q 471 835 486 821 q 456 876 456 850 l 456 890 q 471 931 456 917 q 514 946 486 946 q 555 931 540 946 q 569 890 569 917 l 569 876 q 555 835 569 850 q 513 821 540 821 z "},"ạ":{"ha":836,"x_min":63,"x_max":728,"o":"m 686 710 q 716 697 704 710 q 728 667 728 685 l 728 42 q 716 12 728 24 q 686 0 704 0 q 656 12 668 0 q 644 42 644 24 l 644 135 q 540 29 610 72 q 389 -14 471 -14 q 222 35 296 -14 q 105 168 147 83 q 63 358 63 253 q 106 548 63 464 q 223 679 149 632 q 388 726 297 726 q 540 686 471 726 q 644 581 610 646 l 644 667 q 656 697 644 685 q 686 710 668 710 m 397 64 q 527 102 469 64 q 617 208 585 140 q 650 358 650 275 q 617 506 650 439 q 527 610 585 572 q 397 649 469 649 q 267 611 325 649 q 177 508 210 574 q 144 358 144 442 q 176 208 144 275 q 266 102 208 140 q 397 64 324 64 m 399 -190 q 356 -177 371 -190 q 340 -140 340 -164 l 340 -125 q 356 -87 340 -100 q 399 -74 372 -74 q 456 -125 456 -74 l 456 -140 q 399 -190 456 -190 z "},"à":{"ha":836,"x_min":63,"x_max":728,"o":"m 686 710 q 716 697 704 710 q 728 667 728 685 l 728 42 q 716 12 728 24 q 686 0 704 0 q 656 12 668 0 q 644 42 644 24 l 644 135 q 540 29 610 72 q 389 -14 471 -14 q 222 35 296 -14 q 105 168 147 83 q 63 358 63 253 q 106 548 63 464 q 223 679 149 632 q 388 726 297 726 q 540 686 471 726 q 644 581 610 646 l 644 667 q 656 697 644 685 q 686 710 668 710 m 397 64 q 527 102 469 64 q 617 208 585 140 q 650 358 650 275 q 617 506 650 439 q 527 610 585 572 q 397 649 469 649 q 267 611 325 649 q 177 508 210 574 q 144 358 144 442 q 176 208 144 275 q 266 102 208 140 q 397 64 324 64 m 408 775 q 374 792 393 775 l 264 893 q 244 929 244 908 q 256 959 244 949 q 286 969 268 969 q 329 946 311 969 l 424 822 q 435 800 435 808 q 427 782 435 789 q 408 775 419 775 z "},"ả":{"ha":836,"x_min":63,"x_max":728,"o":"m 686 710 q 716 697 704 710 q 728 667 728 685 l 728 42 q 716 12 728 24 q 686 0 704 0 q 656 12 668 0 q 644 42 644 24 l 644 135 q 540 29 610 72 q 389 -14 471 -14 q 222 35 296 -14 q 105 168 147 83 q 63 358 63 253 q 106 548 63 464 q 223 679 149 632 q 388 726 297 726 q 540 686 471 726 q 644 581 610 646 l 644 667 q 656 697 644 685 q 686 710 668 710 m 397 64 q 527 102 469 64 q 617 208 585 140 q 650 358 650 275 q 617 506 650 439 q 527 610 585 572 q 397 649 469 649 q 267 611 325 649 q 177 508 210 574 q 144 358 144 442 q 176 208 144 275 q 266 102 208 140 q 397 64 324 64 m 299 981 q 403 1024 346 1024 q 488 992 461 1024 q 515 921 515 960 q 504 881 515 899 q 469 838 493 863 q 451 800 453 819 q 442 782 450 789 q 422 775 433 775 q 401 783 410 775 q 393 801 393 790 q 414 857 393 835 q 431 876 419 863 q 449 899 443 889 q 454 919 454 910 q 439 949 454 938 q 403 961 424 961 q 340 936 374 961 q 315 925 326 925 q 293 936 304 925 q 286 956 286 946 q 299 981 286 968 z "},"ȃ":{"ha":836,"x_min":63,"x_max":728,"o":"m 686 710 q 716 697 704 710 q 728 667 728 685 l 728 42 q 716 12 728 24 q 686 0 704 0 q 656 12 668 0 q 644 42 644 24 l 644 135 q 540 29 610 72 q 389 -14 471 -14 q 222 35 296 -14 q 105 168 147 83 q 63 358 63 253 q 106 548 63 464 q 223 679 149 632 q 388 726 297 726 q 540 686 471 726 q 644 581 610 646 l 644 667 q 656 697 644 685 q 686 710 668 710 m 397 64 q 527 102 469 64 q 617 208 585 140 q 650 358 650 275 q 617 506 650 439 q 527 610 585 572 q 397 649 469 649 q 267 611 325 649 q 177 508 210 574 q 144 358 144 442 q 176 208 144 275 q 266 102 208 140 q 397 64 324 64 m 417 1001 q 539 952 488 1001 q 597 833 590 903 q 591 807 600 818 q 567 796 582 796 q 525 829 536 796 q 486 905 515 878 q 417 932 457 932 q 347 904 376 932 q 308 829 318 876 q 292 804 301 813 q 265 796 282 796 q 241 806 250 796 q 235 832 232 817 q 293 951 242 901 q 417 1001 344 1001 z "},"ā":{"ha":836,"x_min":63,"x_max":728,"o":"m 686 710 q 716 697 704 710 q 728 667 728 685 l 728 42 q 716 12 728 24 q 686 0 704 0 q 656 12 668 0 q 644 42 644 24 l 644 135 q 540 29 610 72 q 389 -14 471 -14 q 222 35 296 -14 q 105 168 147 83 q 63 358 63 253 q 106 548 63 464 q 223 679 149 632 q 388 726 297 726 q 540 686 471 726 q 644 581 610 646 l 644 667 q 656 697 644 685 q 686 710 668 710 m 397 64 q 527 102 469 64 q 617 208 585 140 q 650 358 650 275 q 617 506 650 439 q 527 610 585 572 q 397 649 469 649 q 267 611 325 649 q 177 508 210 574 q 144 358 144 442 q 176 208 144 275 q 266 102 208 140 q 397 64 324 64 m 236 839 q 197 875 197 839 q 208 903 197 893 q 236 913 218 913 l 569 913 q 598 903 588 913 q 608 875 608 893 q 569 839 608 839 l 236 839 z "},"ą":{"ha":835,"x_min":63,"x_max":767,"o":"m 736 -160 q 758 -169 750 -160 q 767 -192 767 -178 q 732 -244 767 -221 q 651 -268 697 -268 q 557 -232 596 -268 q 518 -135 518 -196 q 644 26 518 -24 l 644 135 q 540 29 610 72 q 389 -14 471 -14 q 222 35 296 -14 q 105 168 147 83 q 63 358 63 253 q 106 548 63 464 q 223 679 149 632 q 388 726 297 726 q 540 686 471 726 q 644 581 610 646 l 644 667 q 656 697 644 685 q 686 710 668 710 q 716 697 704 710 q 728 667 728 685 l 728 29 q 689 -12 728 0 q 619 -56 647 -26 q 592 -119 592 -85 q 612 -176 592 -156 q 660 -197 632 -197 q 684 -194 675 -197 q 700 -181 693 -190 q 736 -160 718 -160 m 397 64 q 527 102 469 64 q 617 208 585 140 q 650 358 650 275 q 617 506 650 439 q 527 610 585 572 q 397 649 469 649 q 267 611 325 649 q 177 508 210 574 q 144 358 144 442 q 176 208 144 275 q 266 102 208 140 q 397 64 324 64 z "},"å":{"ha":836,"x_min":63,"x_max":728,"o":"m 686 710 q 716 697 704 710 q 728 667 728 685 l 728 42 q 716 12 728 24 q 686 0 704 0 q 656 12 668 0 q 644 42 644 24 l 644 135 q 540 29 610 72 q 389 -14 471 -14 q 222 35 296 -14 q 105 168 147 83 q 63 358 63 253 q 106 548 63 464 q 223 679 149 632 q 388 726 297 726 q 540 686 471 726 q 644 581 610 646 l 644 667 q 656 697 644 685 q 686 710 668 710 m 397 64 q 527 102 469 64 q 617 208 585 140 q 650 358 650 275 q 617 506 650 439 q 527 610 585 572 q 397 649 469 649 q 267 611 325 649 q 177 508 210 574 q 144 358 144 442 q 176 208 144 275 q 266 102 208 140 q 397 64 324 64 m 406 771 q 306 811 349 771 q 264 907 264 851 q 306 1003 264 963 q 406 1043 349 1043 q 505 1003 463 1043 q 547 907 547 963 q 505 811 547 851 q 406 771 463 771 m 406 829 q 463 852 439 829 q 486 907 486 875 q 463 963 486 940 q 406 986 439 986 q 349 963 372 986 q 326 907 326 940 q 349 852 326 875 q 406 829 372 829 z "},"ǻ":{"ha":836,"x_min":63,"x_max":728,"o":"m 686 710 q 716 697 704 710 q 728 667 728 685 l 728 42 q 716 12 728 24 q 686 0 704 0 q 656 12 668 0 q 644 42 644 24 l 644 135 q 540 29 610 72 q 389 -14 471 -14 q 222 35 296 -14 q 105 168 147 83 q 63 358 63 253 q 106 548 63 464 q 223 679 149 632 q 388 726 297 726 q 540 686 471 726 q 644 581 610 646 l 644 667 q 656 697 644 685 q 686 710 668 710 m 397 64 q 527 102 469 64 q 617 208 585 140 q 650 358 650 275 q 617 506 650 439 q 527 610 585 572 q 397 649 469 649 q 267 611 325 649 q 177 508 210 574 q 144 358 144 442 q 176 208 144 275 q 266 102 208 140 q 397 64 324 64 m 406 771 q 306 811 349 771 q 264 907 264 851 q 306 1003 264 963 q 406 1043 349 1043 q 505 1003 463 1043 q 547 907 547 963 q 505 811 547 851 q 406 771 463 771 m 406 829 q 463 852 439 829 q 486 907 486 875 q 463 963 486 940 q 406 986 439 986 q 349 963 372 986 q 326 907 326 940 q 349 852 326 875 q 406 829 372 829 m 410 1092 q 390 1099 397 1092 q 383 1117 383 1106 q 397 1142 383 1128 l 521 1238 q 561 1253 539 1253 q 591 1241 579 1253 q 603 1211 603 1229 q 576 1168 603 1183 l 440 1100 q 410 1092 421 1092 z "}}}
